<ttFont>
<head>
    <!-- Most of this table will be recalculated by the compiler -->
    <tableVersion value="1.0"/>
    <fontRevision value="1.0"/>
    <checkSumAdjustment value="0x16724020"/>
    <magicNumber value="0x5f0f3cf5"/>
    <flags value="00100000 00011111"/>
    <unitsPerEm value="2048"/>
    <created value="Thu Mar  3 03:21:05 2011"/>
    <modified value="Thu Mar  3 03:21:05 2011"/>
    <xMin value="-131"/>
    <yMin value="-788"/>
    <xMax value="3915"/>
    <yMax value="2173"/>
    <macStyle value="00000000 00000000"/>
    <lowestRecPPEM value="8"/>
    <fontDirectionHint value="2"/>
    <indexToLocFormat value="0"/>
    <glyphDataFormat value="0"/>
  </head>
    <TTGlyph name="A" xMin="64" yMin="0" xMax="1439" yMax="1414">
      <contour>
        <pt x="1439" y="0" on="1"/>
        <pt x="905" y="0" on="1"/>
        <pt x="839" y="301" on="1"/>
        <pt x="488" y="301" on="1"/>
        <pt x="425" y="0" on="1"/>
        <pt x="64" y="0" on="1"/>
        <pt x="424" y="1414" on="1"/>
        <pt x="1050" y="1414" on="1"/>
      </contour>
      <contour>
        <pt x="668" y="1194" on="1"/>
        <pt x="531" y="535" on="1"/>
        <pt x="817" y="535" on="1"/>
        <pt x="699" y="1194" on="1"/>
      </contour>
    </TTGlyph>
    <TTGlyph name="AE" xMin="0" yMin="0" xMax="1760" yMax="1408">
      <contour>
        <pt x="1760" y="0" on="1"/>
        <pt x="832" y="0" on="1"/>
        <pt x="832" y="288" on="1"/>
        <pt x="480" y="288" on="1"/>
        <pt x="352" y="0" on="1"/>
        <pt x="0" y="0" on="1"/>
        <pt x="622" y="1408" on="1"/>
        <pt x="1728" y="1408" on="1"/>
        <pt x="1728" y="1120" on="1"/>
        <pt x="1248" y="1120" on="1"/>
        <pt x="1248" y="864" on="1"/>
        <pt x="1696" y="864" on="1"/>
        <pt x="1696" y="576" on="1"/>
        <pt x="1248" y="576" on="1"/>
        <pt x="1248" y="288" on="1"/>
        <pt x="1760" y="288" on="1"/>
      </contour>
      <contour>
        <pt x="800" y="1120" on="1"/>
        <pt x="576" y="544" on="1"/>
        <pt x="832" y="544" on="1"/>
        <pt x="832" y="1120" on="1"/>
      </contour>
    </TTGlyph>
    <TTGlyph name="Aacute" xMin="64" yMin="0" xMax="1439" yMax="2173">
      <component glyphName="A" x="0" y="0" flags="0x1204"/>
      <component glyphName="acute" x="352" y="320" flags="0x1004"/>
    </TTGlyph>
    <TTGlyph name="Acircumflex" xMin="64" yMin="0" xMax="1439" yMax="2112">
      <component glyphName="A" x="0" y="0" flags="0x1204"/>
      <component glyphName="circumflex" x="202" y="320" flags="0x1004"/>
    </TTGlyph>
    <TTGlyph name="Adieresis" xMin="64" yMin="0" xMax="1439" yMax="1920">
      <component glyphName="A" x="0" y="0" flags="0x1204"/>
      <component glyphName="dieresis" x="152" y="320" flags="0x1004"/>
    </TTGlyph>
    <TTGlyph name="Agrave" xMin="64" yMin="0" xMax="1439" yMax="2173">
      <component glyphName="A" x="0" y="0" flags="0x1204"/>
      <component glyphName="grave" x="448" y="320" flags="0x1004"/>
    </TTGlyph>
    <TTGlyph name="Aring" xMin="64" yMin="0" xMax="1439" yMax="1920">
      <component glyphName="A" x="0" y="0" flags="0x1204"/>
      <component glyphName="ring" x="464" y="320" flags="0x1004"/>
    </TTGlyph>
    <TTGlyph name="Atilde" xMin="64" yMin="0" xMax="1439" yMax="1996">
      <component glyphName="A" x="0" y="0" flags="0x1204"/>
      <component glyphName="tilde" x="84" y="320" flags="0x1004"/>
    </TTGlyph>
    <TTGlyph name="B" xMin="160" yMin="0" xMax="1408" yMax="1414">
      <contour>
        <pt x="160" y="1414" on="1"/>
        <pt x="636" y="1414" on="1"/>
        <pt x="698" y="1414" on="0"/>
        <pt x="847" y="1400" on="0"/>
        <pt x="997" y="1374" on="0"/>
        <pt x="1137" y="1327" on="0"/>
        <pt x="1246" y="1249" on="0"/>
        <pt x="1311" y="1135" on="0"/>
        <pt x="1311" y="1056" on="1"/>
        <pt x="1311" y="1009" on="0"/>
        <pt x="1289" y="916" on="0"/>
        <pt x="1232" y="838" on="0"/>
        <pt x="1133" y="780" on="0"/>
        <pt x="1056" y="768" on="1"/>
        <pt x="1140" y="763" on="0"/>
        <pt x="1271" y="696" on="0"/>
        <pt x="1361" y="596" on="0"/>
        <pt x="1408" y="475" on="0"/>
        <pt x="1408" y="416" on="1"/>
        <pt x="1408" y="337" on="0"/>
        <pt x="1344" y="188" on="0"/>
        <pt x="1193" y="71" on="0"/>
        <pt x="945" y="0" on="0"/>
        <pt x="761" y="0" on="1"/>
        <pt x="160" y="0" on="1"/>
      </contour>
      <contour>
        <pt x="608" y="256" on="1"/>
        <pt x="789" y="256" on="1"/>
        <pt x="875" y="256" on="0"/>
        <pt x="960" y="345" on="0"/>
        <pt x="960" y="416" on="1"/>
        <pt x="960" y="458" on="0"/>
        <pt x="931" y="518" on="0"/>
        <pt x="853" y="557" on="0"/>
        <pt x="716" y="576" on="0"/>
        <pt x="608" y="576" on="1"/>
      </contour>
      <contour>
        <pt x="748" y="832" on="1"/>
        <pt x="795" y="832" on="0"/>
        <pt x="873" y="859" on="0"/>
        <pt x="929" y="903" on="0"/>
        <pt x="960" y="961" on="0"/>
        <pt x="960" y="992" on="1"/>
        <pt x="960" y="1040" on="0"/>
        <pt x="922" y="1102" on="0"/>
        <pt x="838" y="1138" on="0"/>
        <pt x="704" y="1152" on="0"/>
        <pt x="608" y="1152" on="1"/>
        <pt x="608" y="832" on="1"/>
      </contour>
    </TTGlyph>
    <TTGlyph name="C" xMin="96" yMin="-32" xMax="1312" yMax="1441">
      <contour>
        <pt x="863" y="-32" on="1"/>
        <pt x="707" y="-32" on="0"/>
        <pt x="429" y="69" on="0"/>
        <pt x="219" y="260" on="0"/>
        <pt x="96" y="533" on="0"/>
        <pt x="96" y="704" on="1"/>
        <pt x="96" y="884" on="0"/>
        <pt x="207" y="1159" on="0"/>
        <pt x="409" y="1346" on="0"/>
        <pt x="692" y="1441" on="0"/>
        <pt x="864" y="1441" on="1"/>
        <pt x="909" y="1441" on="0"/>
        <pt x="1028" y="1431" on="0"/>
        <pt x="1151" y="1414" on="0"/>
        <pt x="1268" y="1390" on="0"/>
        <pt x="1312" y="1376" on="1"/>
        <pt x="1248" y="1056" on="1"/>
        <pt x="1208" y="1072" on="0"/>
        <pt x="1104" y="1096" on="0"/>
        <pt x="997" y="1112" on="0"/>
        <pt x="898" y="1120" on="0"/>
        <pt x="864" y="1120" on="1"/>
        <pt x="774" y="1120" on="0"/>
        <pt x="651" y="1059" on="0"/>
        <pt x="576" y="948" on="0"/>
        <pt x="544" y="795" on="0"/>
        <pt x="544" y="704" on="1"/>
        <pt x="544" y="607" on="0"/>
        <pt x="592" y="453" on="0"/>
        <pt x="682" y="345" on="0"/>
        <pt x="813" y="288" on="0"/>
        <pt x="896" y="288" on="1"/>
        <pt x="971" y="288" on="0"/>
        <pt x="1157" y="336" on="0"/>
        <pt x="1248" y="384" on="1"/>
        <pt x="1310" y="64" on="1"/>
        <pt x="1198" y="10" on="0"/>
        <pt x="972" y="-32" on="0"/>
      </contour>
    </TTGlyph>
    <TTGlyph name="Ccedilla" xMin="96" yMin="-788" xMax="1312" yMax="1441">
      <component glyphName="C" x="0" y="0" flags="0x1204"/>
      <component glyphName="cedilla" x="496" y="0" flags="0x1004"/>
    </TTGlyph>
    <TTGlyph name="D" xMin="160" yMin="0" xMax="1408" yMax="1414">
      <contour>
        <pt x="160" y="0" on="1"/>
        <pt x="160" y="1414" on="1"/>
        <pt x="652" y="1414" on="1"/>
        <pt x="827" y="1414" on="0"/>
        <pt x="1108" y="1325" on="0"/>
        <pt x="1303" y="1155" on="0"/>
        <pt x="1408" y="895" on="0"/>
        <pt x="1408" y="719" on="1"/>
        <pt x="1408" y="518" on="0"/>
        <pt x="1289" y="243" on="0"/>
        <pt x="1083" y="74" on="0"/>
        <pt x="806" y="0" on="0"/>
        <pt x="648" y="0" on="1"/>
      </contour>
      <contour>
        <pt x="608" y="320" on="1"/>
        <pt x="638" y="320" on="1"/>
        <pt x="716" y="320" on="0"/>
        <pt x="846" y="349" on="0"/>
        <pt x="938" y="435" on="0"/>
        <pt x="989" y="592" on="0"/>
        <pt x="989" y="719" on="1"/>
        <pt x="989" y="835" on="0"/>
        <pt x="943" y="990" on="0"/>
        <pt x="856" y="1082" on="0"/>
        <pt x="728" y="1120" on="0"/>
        <pt x="647" y="1120" on="1"/>
        <pt x="608" y="1120" on="1"/>
      </contour>
    </TTGlyph>
    <TTGlyph name="Delta" xMin="64" yMin="0" xMax="1439" yMax="1408">
      <contour>
        <pt x="1439" y="0" on="1"/>
        <pt x="64" y="0" on="1"/>
        <pt x="424" y="1408" on="1"/>
        <pt x="1050" y="1408" on="1"/>
      </contour>
      <contour>
        <pt x="715" y="1194" on="1"/>
        <pt x="549" y="299" on="1"/>
        <pt x="918" y="299" on="1"/>
        <pt x="746" y="1194" on="1"/>
      </contour>
    </TTGlyph>
    <TTGlyph name="E" xMin="160" yMin="0" xMax="1152" yMax="1414">
      <contour>
        <pt x="160" y="1414" on="1"/>
        <pt x="1152" y="1414" on="1"/>
        <pt x="1152" y="1152" on="1"/>
        <pt x="608" y="1152" on="1"/>
        <pt x="608" y="873" on="1"/>
        <pt x="1088" y="873" on="1"/>
        <pt x="1088" y="617" on="1"/>
        <pt x="608" y="617" on="1"/>
        <pt x="608" y="288" on="1"/>
        <pt x="1152" y="288" on="1"/>
        <pt x="1152" y="0" on="1"/>
        <pt x="160" y="0" on="1"/>
      </contour>
    </TTGlyph>
    <TTGlyph name="Eacute" xMin="160" yMin="0" xMax="1152" yMax="2173">
      <component glyphName="E" x="0" y="0" flags="0x1204"/>
      <component glyphName="acute" x="224" y="320" flags="0x1004"/>
    </TTGlyph>
    <TTGlyph name="Ecircumflex" xMin="160" yMin="0" xMax="1152" yMax="2112">
      <component glyphName="E" x="0" y="0" flags="0x1204"/>
      <component glyphName="circumflex" x="74" y="320" flags="0x1004"/>
    </TTGlyph>
    <TTGlyph name="Edieresis" xMin="124" yMin="0" xMax="1152" yMax="1920">
      <component glyphName="E" x="0" y="0" flags="0x1204"/>
      <component glyphName="dieresis" x="24" y="320" flags="0x1004"/>
    </TTGlyph>
    <TTGlyph name="Egrave" xMin="160" yMin="0" xMax="1152" yMax="2173">
      <component glyphName="E" x="0" y="0" flags="0x1204"/>
      <component glyphName="grave" x="320" y="320" flags="0x1004"/>
    </TTGlyph>
    <TTGlyph name="Eth" xMin="0" yMin="0" xMax="1405" yMax="1426">
      <contour>
        <pt x="151" y="0" on="1"/>
        <pt x="151" y="579" on="1"/>
        <pt x="0" y="579" on="1"/>
        <pt x="0" y="847" on="1"/>
        <pt x="151" y="847" on="1"/>
        <pt x="151" y="1426" on="1"/>
        <pt x="620" y="1426" on="1"/>
        <pt x="797" y="1426" on="0"/>
        <pt x="1087" y="1337" on="0"/>
        <pt x="1293" y="1159" on="0"/>
        <pt x="1405" y="891" on="0"/>
        <pt x="1405" y="712" on="1"/>
        <pt x="1405" y="578" on="0"/>
        <pt x="1347" y="368" on="0"/>
        <pt x="1243" y="210" on="0"/>
        <pt x="1098" y="100" on="0"/>
        <pt x="922" y="31" on="0"/>
        <pt x="722" y="0" on="0"/>
        <pt x="616" y="0" on="1"/>
      </contour>
      <contour>
        <pt x="800" y="847" on="1"/>
        <pt x="800" y="579" on="1"/>
        <pt x="551" y="579" on="1"/>
        <pt x="551" y="320" on="1"/>
        <pt x="553" y="320" on="0"/>
        <pt x="575" y="320" on="0"/>
        <pt x="602" y="320" on="0"/>
        <pt x="624" y="319" on="0"/>
        <pt x="626" y="319" on="1"/>
        <pt x="714" y="320" on="0"/>
        <pt x="853" y="351" on="0"/>
        <pt x="949" y="440" on="0"/>
        <pt x="1000" y="603" on="0"/>
        <pt x="1000" y="736" on="1"/>
        <pt x="1000" y="847" on="0"/>
        <pt x="952" y="992" on="0"/>
        <pt x="859" y="1078" on="0"/>
        <pt x="723" y="1112" on="0"/>
        <pt x="635" y="1112" on="1"/>
        <pt x="633" y="1111" on="0"/>
        <pt x="609" y="1111" on="0"/>
        <pt x="595" y="1111" on="1"/>
        <pt x="551" y="1111" on="1"/>
        <pt x="551" y="847" on="1"/>
      </contour>
    </TTGlyph>
    <TTGlyph name="Euro" xMin="52" yMin="-28" xMax="1400" yMax="1493">
      <contour>
        <pt x="201" y="913" on="1"/>
        <pt x="218" y="1030" on="0"/>
        <pt x="305" y="1240" on="0"/>
        <pt x="457" y="1399" on="0"/>
        <pt x="679" y="1493" on="0"/>
        <pt x="831" y="1493" on="1"/>
        <pt x="965" y="1493" on="0"/>
        <pt x="1164" y="1406" on="0"/>
        <pt x="1302" y="1257" on="0"/>
        <pt x="1383" y="1058" on="0"/>
        <pt x="1400" y="945" on="1"/>
        <pt x="1008" y="945" on="1"/>
        <pt x="998" y="998" on="0"/>
        <pt x="965" y="1087" on="0"/>
        <pt x="921" y="1152" on="0"/>
        <pt x="865" y="1188" on="0"/>
        <pt x="831" y="1188" on="1"/>
        <pt x="797" y="1188" on="0"/>
        <pt x="740" y="1145" on="0"/>
        <pt x="696" y="1071" on="0"/>
        <pt x="664" y="970" on="0"/>
        <pt x="655" y="913" on="1"/>
        <pt x="889" y="913" on="1"/>
        <pt x="889" y="738" on="1"/>
        <pt x="644" y="738" on="1"/>
        <pt x="644" y="643" on="1"/>
        <pt x="889" y="643" on="1"/>
        <pt x="889" y="468" on="1"/>
        <pt x="672" y="468" on="1"/>
        <pt x="684" y="426" on="0"/>
        <pt x="715" y="355" on="0"/>
        <pt x="755" y="304" on="0"/>
        <pt x="803" y="275" on="0"/>
        <pt x="831" y="275" on="1"/>
        <pt x="898" y="275" on="0"/>
        <pt x="986" y="396" on="0"/>
        <pt x="1007" y="500" on="1"/>
        <pt x="1400" y="500" on="1"/>
        <pt x="1368" y="385" on="0"/>
        <pt x="1284" y="191" on="0"/>
        <pt x="1153" y="51" on="0"/>
        <pt x="966" y="-28" on="0"/>
        <pt x="831" y="-28" on="1"/>
        <pt x="693" y="-28" on="0"/>
        <pt x="485" y="48" on="0"/>
        <pt x="336" y="182" on="0"/>
        <pt x="242" y="363" on="0"/>
        <pt x="218" y="468" on="1"/>
        <pt x="52" y="468" on="1"/>
        <pt x="52" y="643" on="1"/>
        <pt x="200" y="643" on="1"/>
        <pt x="200" y="738" on="1"/>
        <pt x="52" y="738" on="1"/>
        <pt x="52" y="913" on="1"/>
      </contour>
    </TTGlyph>
    <TTGlyph name="F" xMin="160" yMin="0" xMax="1088" yMax="1414">
      <contour>
        <pt x="160" y="1414" on="1"/>
        <pt x="1088" y="1414" on="1"/>
        <pt x="1088" y="1152" on="1"/>
        <pt x="608" y="1152" on="1"/>
        <pt x="608" y="800" on="1"/>
        <pt x="1024" y="800" on="1"/>
        <pt x="1024" y="512" on="1"/>
        <pt x="608" y="512" on="1"/>
        <pt x="608" y="0" on="1"/>
        <pt x="160" y="0" on="1"/>
      </contour>
    </TTGlyph>
    <TTGlyph name="G" xMin="90" yMin="-32" xMax="1408" yMax="1440">
      <contour>
        <pt x="864" y="-32" on="1"/>
        <pt x="699" y="-32" on="0"/>
        <pt x="418" y="77" on="0"/>
        <pt x="212" y="274" on="0"/>
        <pt x="90" y="550" on="0"/>
        <pt x="90" y="717" on="1"/>
        <pt x="90" y="880" on="0"/>
        <pt x="222" y="1147" on="0"/>
        <pt x="450" y="1336" on="0"/>
        <pt x="768" y="1440" on="0"/>
        <pt x="960" y="1440" on="1"/>
        <pt x="1063" y="1440" on="0"/>
        <pt x="1294" y="1410" on="0"/>
        <pt x="1408" y="1376" on="1"/>
        <pt x="1344" y="1056" on="1"/>
        <pt x="1241" y="1093" on="0"/>
        <pt x="1071" y="1120" on="0"/>
        <pt x="992" y="1120" on="1"/>
        <pt x="887" y="1120" on="0"/>
        <pt x="720" y="1062" on="0"/>
        <pt x="599" y="956" on="0"/>
        <pt x="538" y="806" on="0"/>
        <pt x="538" y="715" on="1"/>
        <pt x="538" y="615" on="0"/>
        <pt x="578" y="456" on="0"/>
        <pt x="670" y="346" on="0"/>
        <pt x="803" y="288" on="0"/>
        <pt x="896" y="288" on="1"/>
        <pt x="1024" y="288" on="1"/>
        <pt x="1024" y="581" on="1"/>
        <pt x="800" y="551" on="1"/>
        <pt x="800" y="800" on="1"/>
        <pt x="1408" y="800" on="1"/>
        <pt x="1408" y="124" on="1"/>
        <pt x="1334" y="80" on="0"/>
        <pt x="1196" y="20" on="0"/>
        <pt x="1062" y="-16" on="0"/>
        <pt x="931" y="-32" on="0"/>
      </contour>
    </TTGlyph>
    <TTGlyph name="H" xMin="160" yMin="0" xMax="1472" yMax="1414">
      <contour>
        <pt x="160" y="1414" on="1"/>
        <pt x="608" y="1414" on="1"/>
        <pt x="608" y="864" on="1"/>
        <pt x="1024" y="864" on="1"/>
        <pt x="1024" y="1414" on="1"/>
        <pt x="1472" y="1414" on="1"/>
        <pt x="1472" y="0" on="1"/>
        <pt x="1024" y="0" on="1"/>
        <pt x="1024" y="576" on="1"/>
        <pt x="608" y="576" on="1"/>
        <pt x="608" y="0" on="1"/>
        <pt x="160" y="0" on="1"/>
      </contour>
    </TTGlyph>
    <TTGlyph name="I" xMin="141" yMin="0" xMax="589" yMax="1414">
      <contour>
        <pt x="141" y="1414" on="1"/>
        <pt x="589" y="1414" on="1"/>
        <pt x="589" y="0" on="1"/>
        <pt x="141" y="0" on="1"/>
      </contour>
    </TTGlyph>
    <TTGlyph name="Iacute" xMin="113" yMin="0" xMax="657" yMax="2173">
      <component glyphName="I" x="0" y="0" flags="0x1204"/>
      <component glyphName="acute" x="-15" y="320" flags="0x1004"/>
    </TTGlyph>
    <TTGlyph name="Icircumflex" xMin="-65" yMin="0" xMax="835" yMax="2112">
      <component glyphName="I" x="0" y="0" flags="0x1204"/>
      <component glyphName="circumflex" x="-165" y="320" flags="0x1004"/>
    </TTGlyph>
    <TTGlyph name="Idieresis" xMin="-115" yMin="0" xMax="885" yMax="1920">
      <component glyphName="I" x="0" y="0" flags="0x1204"/>
      <component glyphName="dieresis" x="-215" y="320" flags="0x1004"/>
    </TTGlyph>
    <TTGlyph name="Igrave" xMin="112" yMin="0" xMax="656" yMax="2173">
      <component glyphName="I" x="0" y="0" flags="0x1204"/>
      <component glyphName="grave" x="80" y="320" flags="0x1004"/>
    </TTGlyph>
    <TTGlyph name="J" xMin="32" yMin="-32" xMax="832" yMax="1414">
      <contour>
        <pt x="352" y="-32" on="1"/>
        <pt x="261" y="-32" on="0"/>
        <pt x="92" y="-6" on="0"/>
        <pt x="32" y="32" on="1"/>
        <pt x="32" y="320" on="1"/>
        <pt x="99" y="299" on="0"/>
        <pt x="214" y="288" on="0"/>
        <pt x="256" y="288" on="1"/>
        <pt x="308" y="288" on="0"/>
        <pt x="361" y="337" on="0"/>
        <pt x="383" y="410" on="0"/>
        <pt x="384" y="497" on="0"/>
        <pt x="384" y="536" on="1"/>
        <pt x="384" y="1414" on="1"/>
        <pt x="832" y="1414" on="1"/>
        <pt x="832" y="429" on="1"/>
        <pt x="832" y="309" on="0"/>
        <pt x="748" y="135" on="0"/>
        <pt x="613" y="22" on="0"/>
        <pt x="440" y="-32" on="0"/>
      </contour>
    </TTGlyph>
    <TTGlyph name="K" xMin="160" yMin="0" xMax="1440" yMax="1414">
      <contour>
        <pt x="608" y="608" on="1"/>
        <pt x="608" y="0" on="1"/>
        <pt x="160" y="0" on="1"/>
        <pt x="160" y="1414" on="1"/>
        <pt x="608" y="1414" on="1"/>
        <pt x="608" y="864" on="1"/>
        <pt x="640" y="864" on="1"/>
        <pt x="928" y="1414" on="1"/>
        <pt x="1440" y="1414" on="1"/>
        <pt x="1024" y="736" on="1"/>
        <pt x="1440" y="0" on="1"/>
        <pt x="928" y="0" on="1"/>
        <pt x="640" y="608" on="1"/>
      </contour>
    </TTGlyph>
    <TTGlyph name="L" xMin="160" yMin="0" xMax="1088" yMax="1414">
      <contour>
        <pt x="160" y="1414" on="1"/>
        <pt x="608" y="1414" on="1"/>
        <pt x="608" y="288" on="1"/>
        <pt x="1088" y="288" on="1"/>
        <pt x="1088" y="0" on="1"/>
        <pt x="160" y="0" on="1"/>
      </contour>
    </TTGlyph>
    <TTGlyph name="Lslash" xMin="52" yMin="0" xMax="1153" yMax="1408">
      <contour>
        <pt x="200" y="1408" on="1"/>
        <pt x="653" y="1408" on="1"/>
        <pt x="653" y="1013" on="1"/>
        <pt x="900" y="1100" on="1"/>
        <pt x="900" y="800" on="1"/>
        <pt x="653" y="713" on="1"/>
        <pt x="653" y="300" on="1"/>
        <pt x="1153" y="300" on="1"/>
        <pt x="1153" y="0" on="1"/>
        <pt x="200" y="0" on="1"/>
        <pt x="200" y="552" on="1"/>
        <pt x="52" y="500" on="1"/>
        <pt x="52" y="800" on="1"/>
        <pt x="200" y="852" on="1"/>
      </contour>
    </TTGlyph>
    <TTGlyph name="M" xMin="160" yMin="0" xMax="1706" yMax="1414">
      <contour>
        <pt x="160" y="1414" on="1"/>
        <pt x="576" y="1414" on="1"/>
        <pt x="928" y="864" on="1"/>
        <pt x="1280" y="1414" on="1"/>
        <pt x="1706" y="1414" on="1"/>
        <pt x="1706" y="0" on="1"/>
        <pt x="1248" y="0" on="1"/>
        <pt x="1248" y="768" on="1"/>
        <pt x="918" y="209" on="1"/>
        <pt x="821" y="209" on="1"/>
        <pt x="480" y="768" on="1"/>
        <pt x="480" y="0" on="1"/>
        <pt x="160" y="0" on="1"/>
      </contour>
    </TTGlyph>
    <TTGlyph name="N" xMin="84" yMin="0" xMax="1397" yMax="1414">
      <contour>
        <pt x="84" y="1414" on="1"/>
        <pt x="517" y="1414" on="1"/>
        <pt x="1056" y="704" on="1"/>
        <pt x="1055" y="1414" on="1"/>
        <pt x="1396" y="1414" on="1"/>
        <pt x="1397" y="0" on="1"/>
        <pt x="953" y="0" on="1"/>
        <pt x="423" y="752" on="1"/>
        <pt x="423" y="0" on="1"/>
        <pt x="84" y="0" on="1"/>
      </contour>
    </TTGlyph>
    <TTGlyph name="Ntilde" xMin="84" yMin="0" xMax="1397" yMax="1996">
      <component glyphName="N" x="0" y="0" flags="0x1204"/>
      <component glyphName="tilde" x="100" y="320" flags="0x1004"/>
    </TTGlyph>
    <TTGlyph name="O" xMin="59" yMin="-32" xMax="1467" yMax="1441">
      <contour>
        <pt x="763" y="256" on="1"/>
        <pt x="888" y="256" on="0"/>
        <pt x="1019" y="493" on="0"/>
        <pt x="1019" y="719" on="1"/>
        <pt x="1019" y="823" on="0"/>
        <pt x="985" y="994" on="0"/>
        <pt x="920" y="1117" on="0"/>
        <pt x="824" y="1184" on="0"/>
        <pt x="763" y="1184" on="1"/>
        <pt x="701" y="1184" on="0"/>
        <pt x="606" y="1117" on="0"/>
        <pt x="541" y="994" on="0"/>
        <pt x="507" y="823" on="0"/>
        <pt x="507" y="719" on="1"/>
        <pt x="507" y="493" on="0"/>
        <pt x="638" y="256" on="0"/>
      </contour>
      <contour>
        <pt x="763" y="-32" on="1"/>
        <pt x="632" y="-32" on="0"/>
        <pt x="425" y="27" on="0"/>
        <pt x="269" y="132" on="0"/>
        <pt x="159" y="275" on="0"/>
        <pt x="90" y="442" on="0"/>
        <pt x="59" y="627" on="0"/>
        <pt x="59" y="721" on="1"/>
        <pt x="59" y="812" on="0"/>
        <pt x="97" y="989" on="0"/>
        <pt x="173" y="1149" on="0"/>
        <pt x="289" y="1286" on="0"/>
        <pt x="446" y="1385" on="0"/>
        <pt x="643" y="1441" on="0"/>
        <pt x="763" y="1441" on="1"/>
        <pt x="883" y="1441" on="0"/>
        <pt x="1080" y="1385" on="0"/>
        <pt x="1237" y="1286" on="0"/>
        <pt x="1353" y="1149" on="0"/>
        <pt x="1429" y="989" on="0"/>
        <pt x="1467" y="812" on="0"/>
        <pt x="1467" y="721" on="1"/>
        <pt x="1467" y="627" on="0"/>
        <pt x="1436" y="442" on="0"/>
        <pt x="1367" y="275" on="0"/>
        <pt x="1257" y="132" on="0"/>
        <pt x="1101" y="27" on="0"/>
        <pt x="894" y="-32" on="0"/>
      </contour>
    </TTGlyph>
    <TTGlyph name="OE" xMin="100" yMin="-38" xMax="1900" yMax="1465">
      <contour>
        <pt x="1002" y="0" on="1"/>
        <pt x="930" y="-20" on="0"/>
        <pt x="801" y="-38" on="0"/>
        <pt x="740" y="-38" on="1"/>
        <pt x="636" y="-38" on="0"/>
        <pt x="460" y="21" on="0"/>
        <pt x="318" y="126" on="0"/>
        <pt x="210" y="268" on="0"/>
        <pt x="137" y="436" on="0"/>
        <pt x="100" y="622" on="0"/>
        <pt x="100" y="717" on="1"/>
        <pt x="100" y="812" on="0"/>
        <pt x="142" y="996" on="0"/>
        <pt x="221" y="1162" on="0"/>
        <pt x="336" y="1304" on="0"/>
        <pt x="481" y="1407" on="0"/>
        <pt x="655" y="1465" on="0"/>
        <pt x="755" y="1465" on="1"/>
        <pt x="815" y="1465" on="0"/>
        <pt x="939" y="1446" on="0"/>
        <pt x="1007" y="1426" on="1"/>
        <pt x="1855" y="1426" on="1"/>
        <pt x="1855" y="1109" on="1"/>
        <pt x="1400" y="1109" on="1"/>
        <pt x="1400" y="852" on="1"/>
        <pt x="1800" y="852" on="1"/>
        <pt x="1800" y="586" on="1"/>
        <pt x="1400" y="586" on="1"/>
        <pt x="1400" y="320" on="1"/>
        <pt x="1900" y="320" on="1"/>
        <pt x="1900" y="0" on="1"/>
      </contour>
      <contour>
        <pt x="543" y="715" on="1"/>
        <pt x="543" y="625" on="0"/>
        <pt x="584" y="462" on="0"/>
        <pt x="662" y="337" on="0"/>
        <pt x="776" y="264" on="0"/>
        <pt x="850" y="264" on="1"/>
        <pt x="919" y="264" on="0"/>
        <pt x="1000" y="292" on="1"/>
        <pt x="1000" y="1137" on="1"/>
        <pt x="919" y="1165" on="0"/>
        <pt x="850" y="1165" on="1"/>
        <pt x="776" y="1165" on="0"/>
        <pt x="662" y="1092" on="0"/>
        <pt x="584" y="969" on="0"/>
        <pt x="543" y="806" on="0"/>
      </contour>
    </TTGlyph>
    <TTGlyph name="Oacute" xMin="59" yMin="-32" xMax="1467" yMax="2173">
      <component glyphName="O" x="0" y="0" flags="0x1204"/>
      <component glyphName="acute" x="400" y="320" flags="0x1004"/>
    </TTGlyph>
    <TTGlyph name="Ocircumflex" xMin="59" yMin="-32" xMax="1467" yMax="2112">
      <component glyphName="O" x="0" y="0" flags="0x1204"/>
      <component glyphName="circumflex" x="250" y="320" flags="0x1004"/>
    </TTGlyph>
    <TTGlyph name="Odieresis" xMin="59" yMin="-32" xMax="1467" yMax="1920">
      <component glyphName="O" x="0" y="0" flags="0x1204"/>
      <component glyphName="dieresis" x="200" y="320" flags="0x1004"/>
    </TTGlyph>
    <TTGlyph name="Ograve" xMin="59" yMin="-32" xMax="1467" yMax="2173">
      <component glyphName="O" x="0" y="0" flags="0x1204"/>
      <component glyphName="grave" x="496" y="320" flags="0x1004"/>
    </TTGlyph>
    <TTGlyph name="Oslash" xMin="91" yMin="-200" xMax="1509" yMax="1600">
      <contour>
        <pt x="800" y="1464" on="1"/>
        <pt x="873" y="1464" on="0"/>
        <pt x="1002" y="1441" on="0"/>
        <pt x="1060" y="1421" on="1"/>
        <pt x="1155" y="1600" on="1"/>
        <pt x="1355" y="1500" on="1"/>
        <pt x="1254" y="1310" on="1"/>
        <pt x="1318" y="1256" on="0"/>
        <pt x="1414" y="1121" on="0"/>
        <pt x="1477" y="968" on="0"/>
        <pt x="1509" y="801" on="0"/>
        <pt x="1509" y="717" on="1"/>
        <pt x="1509" y="623" on="0"/>
        <pt x="1477" y="438" on="0"/>
        <pt x="1407" y="270" on="0"/>
        <pt x="1296" y="127" on="0"/>
        <pt x="1138" y="22" on="0"/>
        <pt x="931" y="-37" on="0"/>
        <pt x="800" y="-37" on="1"/>
        <pt x="666" y="-37" on="0"/>
        <pt x="558" y="-5" on="1"/>
        <pt x="455" y="-200" on="1"/>
        <pt x="255" y="-100" on="1"/>
        <pt x="357" y="93" on="1"/>
        <pt x="285" y="146" on="0"/>
        <pt x="184" y="287" on="0"/>
        <pt x="120" y="449" on="0"/>
        <pt x="91" y="627" on="0"/>
        <pt x="91" y="717" on="1"/>
        <pt x="91" y="810" on="0"/>
        <pt x="130" y="994" on="0"/>
        <pt x="207" y="1160" on="0"/>
        <pt x="325" y="1302" on="0"/>
        <pt x="482" y="1405" on="0"/>
        <pt x="680" y="1464" on="0"/>
      </contour>
      <contour>
        <pt x="800" y="1161" on="1"/>
        <pt x="733" y="1161" on="0"/>
        <pt x="633" y="1085" on="0"/>
        <pt x="566" y="960" on="0"/>
        <pt x="533" y="800" on="0"/>
        <pt x="533" y="715" on="1"/>
        <pt x="533" y="655" on="0"/>
        <pt x="549" y="540" on="0"/>
        <pt x="566" y="488" on="1"/>
        <pt x="906" y="1130" on="1"/>
        <pt x="883" y="1144" on="0"/>
        <pt x="830" y="1161" on="0"/>
      </contour>
      <contour>
        <pt x="800" y="268" on="1"/>
        <pt x="867" y="268" on="0"/>
        <pt x="967" y="345" on="0"/>
        <pt x="1034" y="470" on="0"/>
        <pt x="1067" y="631" on="0"/>
        <pt x="1067" y="715" on="1"/>
        <pt x="1067" y="818" on="0"/>
        <pt x="1043" y="910" on="1"/>
        <pt x="713" y="288" on="1"/>
        <pt x="753" y="268" on="0"/>
      </contour>
    </TTGlyph>
    <TTGlyph name="Otilde" xMin="59" yMin="-32" xMax="1467" yMax="1996">
      <component glyphName="O" x="0" y="0" flags="0x1204"/>
      <component glyphName="tilde" x="132" y="320" flags="0x1004"/>
    </TTGlyph>
    <TTGlyph name="P" xMin="160" yMin="0" xMax="1376" yMax="1414">
      <contour>
        <pt x="160" y="1414" on="1"/>
        <pt x="706" y="1414" on="1"/>
        <pt x="841" y="1414" on="0"/>
        <pt x="1045" y="1373" on="0"/>
        <pt x="1194" y="1310" on="0"/>
        <pt x="1293" y="1221" on="0"/>
        <pt x="1352" y="1115" on="0"/>
        <pt x="1376" y="993" on="0"/>
        <pt x="1376" y="928" on="1"/>
        <pt x="1376" y="846" on="0"/>
        <pt x="1319" y="685" on="0"/>
        <pt x="1180" y="558" on="0"/>
        <pt x="945" y="480" on="0"/>
        <pt x="768" y="480" on="1"/>
        <pt x="750" y="480" on="0"/>
        <pt x="696" y="481" on="0"/>
        <pt x="670" y="483" on="1"/>
        <pt x="640" y="485" on="0"/>
        <pt x="608" y="487" on="1"/>
        <pt x="608" y="0" on="1"/>
        <pt x="160" y="0" on="1"/>
      </contour>
      <contour>
        <pt x="608" y="704" on="1"/>
        <pt x="736" y="704" on="1"/>
        <pt x="808" y="704" on="0"/>
        <pt x="906" y="739" on="0"/>
        <pt x="966" y="799" on="0"/>
        <pt x="992" y="881" on="0"/>
        <pt x="992" y="928" on="1"/>
        <pt x="992" y="994" on="0"/>
        <pt x="954" y="1080" on="0"/>
        <pt x="885" y="1131" on="0"/>
        <pt x="791" y="1152" on="0"/>
        <pt x="736" y="1152" on="1"/>
        <pt x="608" y="1152" on="1"/>
      </contour>
    </TTGlyph>
    <TTGlyph name="Q" xMin="82" yMin="-416" xMax="1490" yMax="1440">
      <contour>
        <pt x="1298" y="-416" on="1"/>
        <pt x="1155" y="-416" on="0"/>
        <pt x="950" y="-381" on="0"/>
        <pt x="805" y="-294" on="0"/>
        <pt x="710" y="-146" on="0"/>
        <pt x="677" y="-32" on="1"/>
        <pt x="570" y="-19" on="0"/>
        <pt x="399" y="53" on="0"/>
        <pt x="266" y="162" on="0"/>
        <pt x="172" y="300" on="0"/>
        <pt x="111" y="459" on="0"/>
        <pt x="82" y="631" on="0"/>
        <pt x="82" y="719" on="1"/>
        <pt x="82" y="810" on="0"/>
        <pt x="119" y="988" on="0"/>
        <pt x="194" y="1148" on="0"/>
        <pt x="309" y="1284" on="0"/>
        <pt x="466" y="1384" on="0"/>
        <pt x="664" y="1440" on="0"/>
        <pt x="786" y="1440" on="1"/>
        <pt x="920" y="1440" on="0"/>
        <pt x="1128" y="1384" on="0"/>
        <pt x="1285" y="1284" on="0"/>
        <pt x="1393" y="1148" on="0"/>
        <pt x="1460" y="988" on="0"/>
        <pt x="1490" y="810" on="0"/>
        <pt x="1490" y="719" on="1"/>
        <pt x="1490" y="604" on="0"/>
        <pt x="1442" y="379" on="0"/>
        <pt x="1332" y="185" on="0"/>
        <pt x="1151" y="32" on="0"/>
        <pt x="1019" y="-11" on="1"/>
        <pt x="1030" y="-40" on="0"/>
        <pt x="1090" y="-73" on="0"/>
        <pt x="1174" y="-91" on="0"/>
        <pt x="1277" y="-96" on="0"/>
        <pt x="1330" y="-96" on="1"/>
      </contour>
      <contour>
        <pt x="786" y="256" on="1"/>
        <pt x="911" y="256" on="0"/>
        <pt x="1042" y="493" on="0"/>
        <pt x="1042" y="719" on="1"/>
        <pt x="1042" y="823" on="0"/>
        <pt x="1008" y="994" on="0"/>
        <pt x="943" y="1117" on="0"/>
        <pt x="847" y="1184" on="0"/>
        <pt x="786" y="1184" on="1"/>
        <pt x="724" y="1184" on="0"/>
        <pt x="629" y="1117" on="0"/>
        <pt x="564" y="994" on="0"/>
        <pt x="530" y="823" on="0"/>
        <pt x="530" y="719" on="1"/>
        <pt x="530" y="493" on="0"/>
        <pt x="661" y="256" on="0"/>
      </contour>
    </TTGlyph>
    <TTGlyph name="R" xMin="160" yMin="0" xMax="1408" yMax="1414">
      <contour>
        <pt x="160" y="1414" on="1"/>
        <pt x="716" y="1414" on="1"/>
        <pt x="890" y="1414" on="0"/>
        <pt x="1149" y="1332" on="0"/>
        <pt x="1322" y="1206" on="0"/>
        <pt x="1408" y="1045" on="0"/>
        <pt x="1408" y="960" on="1"/>
        <pt x="1408" y="895" on="0"/>
        <pt x="1382" y="768" on="0"/>
        <pt x="1316" y="656" on="0"/>
        <pt x="1201" y="564" on="0"/>
        <pt x="1112" y="536" on="1"/>
        <pt x="1119" y="513" on="0"/>
        <pt x="1153" y="442" on="0"/>
        <pt x="1197" y="357" on="0"/>
        <pt x="1249" y="265" on="0"/>
        <pt x="1275" y="221" on="1"/>
        <pt x="1336" y="116" on="0"/>
        <pt x="1408" y="0" on="1"/>
        <pt x="896" y="0" on="1"/>
        <pt x="863" y="74" on="0"/>
        <pt x="832" y="155" on="1"/>
        <pt x="819" y="189" on="0"/>
        <pt x="791" y="268" on="0"/>
        <pt x="766" y="351" on="0"/>
        <pt x="744" y="438" on="0"/>
        <pt x="736" y="480" on="1"/>
        <pt x="608" y="480" on="1"/>
        <pt x="608" y="0" on="1"/>
        <pt x="160" y="0" on="1"/>
      </contour>
      <contour>
        <pt x="684" y="704" on="1"/>
        <pt x="760" y="704" on="0"/>
        <pt x="865" y="744" on="0"/>
        <pt x="931" y="808" on="0"/>
        <pt x="960" y="888" on="0"/>
        <pt x="960" y="928" on="1"/>
        <pt x="960" y="998" on="0"/>
        <pt x="916" y="1086" on="0"/>
        <pt x="840" y="1135" on="0"/>
        <pt x="740" y="1152" on="0"/>
        <pt x="683" y="1152" on="1"/>
        <pt x="608" y="1152" on="1"/>
        <pt x="608" y="704" on="1"/>
      </contour>
    </TTGlyph>
    <TTGlyph name="S" xMin="128" yMin="-32" xMax="1248" yMax="1440">
      <contour>
        <pt x="680" y="-32" on="1"/>
        <pt x="551" y="-32" on="0"/>
        <pt x="289" y="10" on="0"/>
        <pt x="160" y="64" on="1"/>
        <pt x="160" y="384" on="1"/>
        <pt x="267" y="331" on="0"/>
        <pt x="504" y="288" on="0"/>
        <pt x="627" y="288" on="1"/>
        <pt x="708" y="288" on="0"/>
        <pt x="768" y="339" on="0"/>
        <pt x="768" y="384" on="1"/>
        <pt x="768" y="409" on="0"/>
        <pt x="749" y="447" on="0"/>
        <pt x="703" y="483" on="0"/>
        <pt x="628" y="520" on="0"/>
        <pt x="572" y="543" on="1"/>
        <pt x="529" y="561" on="0"/>
        <pt x="429" y="605" on="0"/>
        <pt x="331" y="664" on="0"/>
        <pt x="240" y="741" on="0"/>
        <pt x="170" y="840" on="0"/>
        <pt x="128" y="964" on="0"/>
        <pt x="128" y="1042" on="1"/>
        <pt x="128" y="1121" on="0"/>
        <pt x="189" y="1266" on="0"/>
        <pt x="326" y="1375" on="0"/>
        <pt x="545" y="1440" on="0"/>
        <pt x="704" y="1440" on="1"/>
        <pt x="758" y="1440" on="0"/>
        <pt x="895" y="1429" on="0"/>
        <pt x="1034" y="1406" on="0"/>
        <pt x="1166" y="1370" on="0"/>
        <pt x="1216" y="1344" on="1"/>
        <pt x="1184" y="1056" on="1"/>
        <pt x="1165" y="1064" on="0"/>
        <pt x="1067" y="1096" on="0"/>
        <pt x="939" y="1128" on="0"/>
        <pt x="797" y="1152" on="0"/>
        <pt x="736" y="1152" on="1"/>
        <pt x="704" y="1152" on="0"/>
        <pt x="647" y="1143" on="0"/>
        <pt x="602" y="1124" on="0"/>
        <pt x="576" y="1093" on="0"/>
        <pt x="576" y="1071" on="1"/>
        <pt x="576" y="1048" on="0"/>
        <pt x="615" y="1007" on="0"/>
        <pt x="683" y="969" on="0"/>
        <pt x="773" y="930" on="0"/>
        <pt x="824" y="908" on="1"/>
        <pt x="869" y="889" on="0"/>
        <pt x="967" y="838" on="0"/>
        <pt x="1061" y="774" on="0"/>
        <pt x="1146" y="694" on="0"/>
        <pt x="1210" y="598" on="0"/>
        <pt x="1248" y="483" on="0"/>
        <pt x="1248" y="416" on="1"/>
        <pt x="1248" y="331" on="0"/>
        <pt x="1188" y="170" on="0"/>
        <pt x="1054" y="44" on="0"/>
        <pt x="837" y="-32" on="0"/>
      </contour>
    </TTGlyph>
    <TTGlyph name="Scaron" xMin="128" yMin="-32" xMax="1248" yMax="2107">
      <component glyphName="S" x="0" y="0" flags="0x1004"/>
      <component glyphName="caron" x="150" y="315" flags="0x1004"/>
    </TTGlyph>
    <TTGlyph name="T" xMin="96" yMin="0" xMax="1191" yMax="1414">
      <contour>
        <pt x="416" y="0" on="1"/>
        <pt x="416" y="1088" on="1"/>
        <pt x="96" y="1088" on="1"/>
        <pt x="96" y="1414" on="1"/>
        <pt x="1191" y="1414" on="1"/>
        <pt x="1191" y="1088" on="1"/>
        <pt x="864" y="1088" on="1"/>
        <pt x="864" y="0" on="1"/>
      </contour>
    </TTGlyph>
    <TTGlyph name="Thorn" xMin="160" yMin="0" xMax="1376" yMax="1408">
      <contour>
        <pt x="160" y="1408" on="1"/>
        <pt x="608" y="1408" on="1"/>
        <pt x="608" y="1280" on="1"/>
        <pt x="706" y="1280" on="1"/>
        <pt x="841" y="1280" on="0"/>
        <pt x="1045" y="1245" on="0"/>
        <pt x="1194" y="1182" on="0"/>
        <pt x="1293" y="1093" on="0"/>
        <pt x="1352" y="987" on="0"/>
        <pt x="1376" y="865" on="0"/>
        <pt x="1376" y="800" on="1"/>
        <pt x="1376" y="718" on="0"/>
        <pt x="1319" y="557" on="0"/>
        <pt x="1180" y="430" on="0"/>
        <pt x="945" y="352" on="0"/>
        <pt x="768" y="352" on="1"/>
        <pt x="608" y="352" on="1"/>
        <pt x="608" y="0" on="1"/>
        <pt x="160" y="0" on="1"/>
      </contour>
      <contour>
        <pt x="608" y="576" on="1"/>
        <pt x="736" y="576" on="1"/>
        <pt x="808" y="576" on="0"/>
        <pt x="906" y="611" on="0"/>
        <pt x="966" y="671" on="0"/>
        <pt x="992" y="753" on="0"/>
        <pt x="992" y="800" on="1"/>
        <pt x="992" y="866" on="0"/>
        <pt x="954" y="952" on="0"/>
        <pt x="885" y="1003" on="0"/>
        <pt x="791" y="1024" on="0"/>
        <pt x="736" y="1024" on="1"/>
        <pt x="608" y="1024" on="1"/>
      </contour>
    </TTGlyph>
    <TTGlyph name="U" xMin="128" yMin="-32" xMax="1366" yMax="1414">
      <contour>
        <pt x="768" y="-32" on="1"/>
        <pt x="619" y="-32" on="0"/>
        <pt x="382" y="56" on="0"/>
        <pt x="216" y="232" on="0"/>
        <pt x="128" y="497" on="0"/>
        <pt x="128" y="674" on="1"/>
        <pt x="128" y="1414" on="1"/>
        <pt x="608" y="1414" on="1"/>
        <pt x="608" y="672" on="1"/>
        <pt x="608" y="573" on="0"/>
        <pt x="628" y="419" on="0"/>
        <pt x="676" y="312" on="0"/>
        <pt x="756" y="256" on="0"/>
        <pt x="816" y="256" on="1"/>
        <pt x="882" y="256" on="0"/>
        <pt x="963" y="312" on="0"/>
        <pt x="1008" y="419" on="0"/>
        <pt x="1024" y="573" on="0"/>
        <pt x="1024" y="672" on="1"/>
        <pt x="1024" y="1414" on="1"/>
        <pt x="1366" y="1414" on="1"/>
        <pt x="1366" y="674" on="1"/>
        <pt x="1366" y="318" on="0"/>
        <pt x="1079" y="-32" on="0"/>
      </contour>
    </TTGlyph>
    <TTGlyph name="Uacute" xMin="128" yMin="-32" xMax="1366" yMax="2173">
      <component glyphName="U" x="0" y="0" flags="0x1204"/>
      <component glyphName="acute" x="352" y="320" flags="0x1004"/>
    </TTGlyph>
    <TTGlyph name="Ucircumflex" xMin="128" yMin="-32" xMax="1366" yMax="2112">
      <component glyphName="U" x="0" y="0" flags="0x1204"/>
      <component glyphName="circumflex" x="202" y="320" flags="0x1004"/>
    </TTGlyph>
    <TTGlyph name="Udieresis" xMin="128" yMin="-32" xMax="1366" yMax="1920">
      <component glyphName="U" x="0" y="0" flags="0x1204"/>
      <component glyphName="dieresis" x="152" y="320" flags="0x1004"/>
    </TTGlyph>
    <TTGlyph name="Ugrave" xMin="128" yMin="-32" xMax="1366" yMax="2173">
      <component glyphName="U" x="0" y="0" flags="0x1204"/>
      <component glyphName="grave" x="448" y="320" flags="0x1004"/>
    </TTGlyph>
    <TTGlyph name="V" xMin="64" yMin="0" xMax="1408" yMax="1414">
      <contour>
        <pt x="64" y="1414" on="1"/>
        <pt x="608" y="1414" on="1"/>
        <pt x="814" y="359" on="1"/>
        <pt x="1056" y="1414" on="1"/>
        <pt x="1408" y="1414" on="1"/>
        <pt x="1025" y="0" on="1"/>
        <pt x="416" y="0" on="1"/>
      </contour>
    </TTGlyph>
    <TTGlyph name="W" xMin="32" yMin="0" xMax="1952" yMax="1414">
      <contour>
        <pt x="1024" y="800" on="1"/>
        <pt x="879" y="0" on="1"/>
        <pt x="288" y="0" on="1"/>
        <pt x="32" y="1414" on="1"/>
        <pt x="538" y="1414" on="1"/>
        <pt x="679" y="280" on="1"/>
        <pt x="854" y="1414" on="1"/>
        <pt x="1280" y="1414" on="1"/>
        <pt x="1452" y="278" on="1"/>
        <pt x="1600" y="1414" on="1"/>
        <pt x="1952" y="1414" on="1"/>
        <pt x="1728" y="0" on="1"/>
        <pt x="1184" y="0" on="1"/>
      </contour>
    </TTGlyph>
    <TTGlyph name="X" xMin="64" yMin="0" xMax="1440" yMax="1414">
      <contour>
        <pt x="1088" y="704" on="1"/>
        <pt x="1440" y="0" on="1"/>
        <pt x="896" y="0" on="1"/>
        <pt x="716" y="533" on="1"/>
        <pt x="474" y="0" on="1"/>
        <pt x="64" y="0" on="1"/>
        <pt x="416" y="704" on="1"/>
        <pt x="64" y="1414" on="1"/>
        <pt x="608" y="1414" on="1"/>
        <pt x="824" y="913" on="1"/>
        <pt x="1056" y="1414" on="1"/>
        <pt x="1440" y="1414" on="1"/>
      </contour>
    </TTGlyph>
    <TTGlyph name="Y" xMin="45" yMin="0" xMax="1325" yMax="1414">
      <contour>
        <pt x="493" y="0" on="1"/>
        <pt x="493" y="486" on="1"/>
        <pt x="45" y="1414" on="1"/>
        <pt x="589" y="1414" on="1"/>
        <pt x="751" y="925" on="1"/>
        <pt x="909" y="1414" on="1"/>
        <pt x="1325" y="1414" on="1"/>
        <pt x="920" y="499" on="1"/>
        <pt x="920" y="0" on="1"/>
      </contour>
    </TTGlyph>
    <TTGlyph name="Yacute" xMin="45" yMin="0" xMax="1325" yMax="2173">
      <component glyphName="Y" x="0" y="0" flags="0x1204"/>
      <component glyphName="acute" x="304" y="320" flags="0x1004"/>
    </TTGlyph>
    <TTGlyph name="Ydieresis" xMin="45" yMin="0" xMax="1325" yMax="1920">
      <component glyphName="Y" x="0" y="0" flags="0x1204"/>
      <component glyphName="dieresis" x="104" y="320" flags="0x1004"/>
    </TTGlyph>
    <TTGlyph name="Z" xMin="96" yMin="0" xMax="992" yMax="1414">
      <contour>
        <pt x="992" y="1414" on="1"/>
        <pt x="992" y="1088" on="1"/>
        <pt x="576" y="320" on="1"/>
        <pt x="979" y="320" on="1"/>
        <pt x="979" y="0" on="1"/>
        <pt x="96" y="0" on="1"/>
        <pt x="96" y="317" on="1"/>
        <pt x="579" y="1088" on="1"/>
        <pt x="110" y="1088" on="1"/>
        <pt x="110" y="1414" on="1"/>
      </contour>
    </TTGlyph>
    <TTGlyph name="Zcaron" xMin="95" yMin="0" xMax="993" yMax="2107">
      <component glyphName="Z" x="0" y="0" flags="0x1004"/>
      <component glyphName="caron" x="0" y="315" flags="0x1004"/>
    </TTGlyph>
    <TTGlyph name="a" xMin="96" yMin="-32" xMax="1216" yMax="1122">
      <contour>
        <pt x="420" y="-32" on="1"/>
        <pt x="357" y="-32" on="0"/>
        <pt x="240" y="4" on="0"/>
        <pt x="150" y="78" on="0"/>
        <pt x="96" y="189" on="0"/>
        <pt x="96" y="264" on="1"/>
        <pt x="96" y="344" on="0"/>
        <pt x="147" y="461" on="0"/>
        <pt x="232" y="544" on="0"/>
        <pt x="344" y="595" on="0"/>
        <pt x="466" y="624" on="0"/>
        <pt x="590" y="634" on="0"/>
        <pt x="646" y="634" on="1"/>
        <pt x="678" y="634" on="0"/>
        <pt x="733" y="631" on="0"/>
        <pt x="774" y="628" on="0"/>
        <pt x="799" y="626" on="0"/>
        <pt x="800" y="626" on="1"/>
        <pt x="800" y="672" on="1"/>
        <pt x="800" y="720" on="0"/>
        <pt x="770" y="782" on="0"/>
        <pt x="718" y="818" on="0"/>
        <pt x="648" y="832" on="0"/>
        <pt x="608" y="832" on="1"/>
        <pt x="531" y="832" on="0"/>
        <pt x="392" y="812" on="0"/>
        <pt x="339" y="800" on="1"/>
        <pt x="277" y="786" on="0"/>
        <pt x="224" y="768" on="1"/>
        <pt x="160" y="1056" on="1"/>
        <pt x="239" y="1074" on="0"/>
        <pt x="329" y="1088" on="1"/>
        <pt x="406" y="1100" on="0"/>
        <pt x="603" y="1122" on="0"/>
        <pt x="711" y="1122" on="1"/>
        <pt x="812" y="1122" on="0"/>
        <pt x="995" y="1073" on="0"/>
        <pt x="1134" y="965" on="0"/>
        <pt x="1216" y="787" on="0"/>
        <pt x="1216" y="655" on="1"/>
        <pt x="1216" y="0" on="1"/>
        <pt x="800" y="0" on="1"/>
        <pt x="800" y="179" on="1"/>
        <pt x="778" y="130" on="0"/>
        <pt x="696" y="52" on="0"/>
        <pt x="593" y="-3" on="0"/>
        <pt x="477" y="-32" on="0"/>
      </contour>
      <contour>
        <pt x="589" y="206" on="1"/>
        <pt x="617" y="206" on="0"/>
        <pt x="675" y="226" on="0"/>
        <pt x="731" y="257" on="0"/>
        <pt x="781" y="294" on="0"/>
        <pt x="800" y="310" on="1"/>
        <pt x="800" y="467" on="1"/>
        <pt x="767" y="467" on="1"/>
        <pt x="719" y="467" on="0"/>
        <pt x="618" y="447" on="0"/>
        <pt x="534" y="407" on="0"/>
        <pt x="480" y="349" on="0"/>
        <pt x="480" y="311" on="1"/>
        <pt x="480" y="281" on="0"/>
        <pt x="500" y="241" on="0"/>
        <pt x="531" y="216" on="0"/>
        <pt x="570" y="206" on="0"/>
      </contour>
    </TTGlyph>
    <TTGlyph name="aacute" xMin="96" yMin="-32" xMax="1216" yMax="1853">
      <component glyphName="a" x="0" y="0" flags="0x1204"/>
      <component glyphName="acute" x="293" y="0" flags="0x1004"/>
    </TTGlyph>
    <TTGlyph name="acircumflex" xMin="96" yMin="-32" xMax="1216" yMax="1792">
      <component glyphName="a" x="0" y="0" flags="0x1204"/>
      <component glyphName="circumflex" x="143" y="0" flags="0x1004"/>
    </TTGlyph>
    <TTGlyph name="acute" xMin="128" yMin="1218" xMax="672" yMax="1853">
      <contour>
        <pt x="128" y="1219" on="1"/>
        <pt x="224" y="1853" on="1"/>
        <pt x="672" y="1853" on="1"/>
        <pt x="416" y="1219" on="1"/>
      </contour>
    </TTGlyph>
    <TTGlyph name="adieresis" xMin="96" yMin="-32" xMax="1216" yMax="1600">
      <component glyphName="a" x="0" y="0" flags="0x1204"/>
      <component glyphName="dieresis" x="93" y="0" flags="0x1004"/>
    </TTGlyph>
    <TTGlyph name="ae" xMin="167" yMin="-45" xMax="1926" yMax="1145">
      <contour>
        <pt x="1462" y="-41" on="1"/>
        <pt x="1350" y="-41" on="0"/>
        <pt x="1146" y="18" on="0"/>
        <pt x="1065" y="81" on="1"/>
        <pt x="1018" y="51" on="0"/>
        <pt x="905" y="4" on="0"/>
        <pt x="783" y="-28" on="0"/>
        <pt x="654" y="-45" on="0"/>
        <pt x="591" y="-45" on="1"/>
        <pt x="510" y="-45" on="0"/>
        <pt x="357" y="-10" on="0"/>
        <pt x="238" y="64" on="0"/>
        <pt x="167" y="176" on="0"/>
        <pt x="167" y="254" on="1"/>
        <pt x="167" y="336" on="0"/>
        <pt x="216" y="457" on="0"/>
        <pt x="298" y="541" on="0"/>
        <pt x="406" y="594" on="0"/>
        <pt x="523" y="623" on="0"/>
        <pt x="643" y="634" on="0"/>
        <pt x="697" y="634" on="1"/>
        <pt x="731" y="634" on="0"/>
        <pt x="789" y="631" on="0"/>
        <pt x="832" y="628" on="0"/>
        <pt x="857" y="626" on="0"/>
        <pt x="858" y="626" on="1"/>
        <pt x="858" y="648" on="1"/>
        <pt x="858" y="693" on="0"/>
        <pt x="827" y="755" on="0"/>
        <pt x="775" y="793" on="0"/>
        <pt x="703" y="810" on="0"/>
        <pt x="663" y="810" on="1"/>
        <pt x="598" y="810" on="0"/>
        <pt x="449" y="785" on="0"/>
        <pt x="313" y="749" on="0"/>
        <pt x="205" y="709" on="0"/>
        <pt x="181" y="694" on="1"/>
        <pt x="181" y="1002" on="1"/>
        <pt x="222" y="1029" on="0"/>
        <pt x="349" y="1080" on="0"/>
        <pt x="498" y="1120" on="0"/>
        <pt x="658" y="1145" on="0"/>
        <pt x="732" y="1145" on="1"/>
        <pt x="838" y="1145" on="0"/>
        <pt x="1030" y="1096" on="0"/>
        <pt x="1105" y="1041" on="1"/>
        <pt x="1185" y="1092" on="0"/>
        <pt x="1367" y="1143" on="0"/>
        <pt x="1456" y="1143" on="1"/>
        <pt x="1568" y="1143" on="0"/>
        <pt x="1743" y="1083" on="0"/>
        <pt x="1863" y="987" on="0"/>
        <pt x="1926" y="867" on="0"/>
        <pt x="1926" y="807" on="1"/>
        <pt x="1926" y="702" on="0"/>
        <pt x="1839" y="557" on="0"/>
        <pt x="1699" y="467" on="0"/>
        <pt x="1526" y="427" on="0"/>
        <pt x="1440" y="427" on="1"/>
        <pt x="1396" y="427" on="0"/>
        <pt x="1316" y="434" on="0"/>
        <pt x="1278" y="439" on="1"/>
        <pt x="1279" y="395" on="0"/>
        <pt x="1316" y="332" on="0"/>
        <pt x="1381" y="292" on="0"/>
        <pt x="1469" y="273" on="0"/>
        <pt x="1521" y="273" on="1"/>
        <pt x="1560" y="273" on="0"/>
        <pt x="1650" y="283" on="0"/>
        <pt x="1740" y="302" on="0"/>
        <pt x="1824" y="329" on="0"/>
        <pt x="1857" y="347" on="1"/>
        <pt x="1907" y="53" on="1"/>
        <pt x="1806" y="8" on="0"/>
        <pt x="1583" y="-41" on="0"/>
      </contour>
      <contour>
        <pt x="1276" y="611" on="1"/>
        <pt x="1301" y="612" on="0"/>
        <pt x="1372" y="618" on="0"/>
        <pt x="1448" y="630" on="0"/>
        <pt x="1522" y="651" on="0"/>
        <pt x="1581" y="684" on="0"/>
        <pt x="1618" y="731" on="0"/>
        <pt x="1618" y="764" on="1"/>
        <pt x="1618" y="793" on="0"/>
        <pt x="1599" y="842" on="0"/>
        <pt x="1564" y="877" on="0"/>
        <pt x="1515" y="897" on="0"/>
        <pt x="1485" y="897" on="1"/>
        <pt x="1455" y="897" on="0"/>
        <pt x="1390" y="881" on="0"/>
        <pt x="1331" y="836" on="0"/>
        <pt x="1285" y="758" on="0"/>
        <pt x="1274" y="697" on="1"/>
        <pt x="1275" y="686" on="0"/>
        <pt x="1276" y="666" on="0"/>
        <pt x="1276" y="655" on="1"/>
      </contour>
      <contour>
        <pt x="620" y="206" on="1"/>
        <pt x="675" y="206" on="0"/>
        <pt x="781" y="225" on="0"/>
        <pt x="863" y="249" on="0"/>
        <pt x="915" y="269" on="0"/>
        <pt x="917" y="270" on="1"/>
        <pt x="912" y="282" on="0"/>
        <pt x="901" y="308" on="0"/>
        <pt x="887" y="346" on="0"/>
        <pt x="870" y="399" on="0"/>
        <pt x="858" y="437" on="1"/>
        <pt x="837" y="437" on="1"/>
        <pt x="778" y="437" on="0"/>
        <pt x="658" y="422" on="0"/>
        <pt x="562" y="392" on="0"/>
        <pt x="501" y="347" on="0"/>
        <pt x="501" y="317" on="1"/>
        <pt x="501" y="287" on="0"/>
        <pt x="521" y="245" on="0"/>
        <pt x="554" y="218" on="0"/>
        <pt x="597" y="206" on="0"/>
      </contour>
    </TTGlyph>
    <TTGlyph name="agrave" xMin="96" yMin="-32" xMax="1216" yMax="1853">
      <component glyphName="a" x="0" y="0" flags="0x1204"/>
      <component glyphName="grave" x="389" y="0" flags="0x1004"/>
    </TTGlyph>
    <TTGlyph name="ampersand" xMin="128" yMin="-32" xMax="1698" yMax="1441">
      <contour>
        <pt x="1344" y="456" on="1"/>
        <pt x="1344" y="420" on="0"/>
        <pt x="1355" y="354" on="0"/>
        <pt x="1389" y="304" on="0"/>
        <pt x="1453" y="274" on="0"/>
        <pt x="1506" y="274" on="1"/>
        <pt x="1540" y="274" on="0"/>
        <pt x="1622" y="288" on="0"/>
        <pt x="1674" y="305" on="1"/>
        <pt x="1698" y="23" on="1"/>
        <pt x="1635" y="0" on="0"/>
        <pt x="1472" y="-32" on="0"/>
        <pt x="1381" y="-32" on="1"/>
        <pt x="1343" y="-32" on="0"/>
        <pt x="1259" y="-23" on="0"/>
        <pt x="1218" y="-11" on="1"/>
        <pt x="1171" y="2" on="0"/>
        <pt x="1146" y="32" on="1"/>
        <pt x="1111" y="72" on="0"/>
        <pt x="1087" y="122" on="1"/>
        <pt x="1001" y="40" on="0"/>
        <pt x="974" y="20" on="1"/>
        <pt x="931" y="-8" on="0"/>
        <pt x="869" y="-15" on="1"/>
        <pt x="822" y="-20" on="0"/>
        <pt x="718" y="-32" on="0"/>
        <pt x="672" y="-32" on="1"/>
        <pt x="529" y="-32" on="0"/>
        <pt x="323" y="34" on="0"/>
        <pt x="191" y="147" on="0"/>
        <pt x="128" y="298" on="0"/>
        <pt x="128" y="384" on="1"/>
        <pt x="128" y="441" on="0"/>
        <pt x="175" y="562" on="0"/>
        <pt x="265" y="663" on="0"/>
        <pt x="396" y="731" on="0"/>
        <pt x="480" y="736" on="1"/>
        <pt x="403" y="749" on="0"/>
        <pt x="304" y="813" on="0"/>
        <pt x="247" y="900" on="0"/>
        <pt x="225" y="1003" on="0"/>
        <pt x="225" y="1056" on="1"/>
        <pt x="225" y="1135" on="0"/>
        <pt x="285" y="1253" on="0"/>
        <pt x="385" y="1339" on="0"/>
        <pt x="516" y="1395" on="0"/>
        <pt x="658" y="1428" on="0"/>
        <pt x="801" y="1441" on="0"/>
        <pt x="864" y="1441" on="1"/>
        <pt x="909" y="1441" on="0"/>
        <pt x="1028" y="1431" on="0"/>
        <pt x="1151" y="1414" on="0"/>
        <pt x="1268" y="1390" on="0"/>
        <pt x="1312" y="1376" on="1"/>
        <pt x="1248" y="1088" on="1"/>
        <pt x="1116" y="1104" on="1"/>
        <pt x="1088" y="1107" on="0"/>
        <pt x="1062" y="1110" on="1"/>
        <pt x="1034" y="1113" on="0"/>
        <pt x="982" y="1117" on="0"/>
        <pt x="939" y="1120" on="0"/>
        <pt x="924" y="1120" on="1"/>
        <pt x="906" y="1120" on="0"/>
        <pt x="888" y="1120" on="1"/>
        <pt x="834" y="1120" on="0"/>
        <pt x="786" y="1118" on="1"/>
        <pt x="723" y="1117" on="0"/>
        <pt x="630" y="1089" on="0"/>
        <pt x="576" y="1023" on="0"/>
        <pt x="576" y="907" on="0"/>
        <pt x="607" y="849" on="0"/>
        <pt x="663" y="805" on="0"/>
        <pt x="741" y="778" on="0"/>
        <pt x="788" y="778" on="1"/>
        <pt x="938" y="778" on="1"/>
        <pt x="938" y="938" on="1"/>
        <pt x="1344" y="938" on="1"/>
      </contour>
      <contour>
        <pt x="952" y="288" on="1"/>
        <pt x="948" y="299" on="0"/>
        <pt x="945" y="336" on="1"/>
        <pt x="942" y="360" on="0"/>
        <pt x="938" y="483" on="0"/>
        <pt x="938" y="564" on="1"/>
        <pt x="830" y="564" on="0"/>
        <pt x="683" y="547" on="0"/>
        <pt x="605" y="515" on="0"/>
        <pt x="576" y="447" on="0"/>
        <pt x="576" y="416" on="1"/>
        <pt x="576" y="389" on="0"/>
        <pt x="595" y="332" on="0"/>
        <pt x="640" y="285" on="0"/>
        <pt x="713" y="255" on="0"/>
        <pt x="768" y="255" on="1"/>
        <pt x="804" y="255" on="0"/>
        <pt x="895" y="270" on="0"/>
      </contour>
    </TTGlyph>
    <TTGlyph name="approxequal" xMin="55" yMin="257" xMax="1334" yMax="1360">
      <contour>
        <pt x="885" y="836" on="1"/>
        <pt x="846" y="836" on="0"/>
        <pt x="771" y="864" on="0"/>
        <pt x="696" y="907" on="0"/>
        <pt x="623" y="956" on="0"/>
        <pt x="551" y="999" on="0"/>
        <pt x="480" y="1027" on="0"/>
        <pt x="445" y="1027" on="1"/>
        <pt x="388" y="1027" on="0"/>
        <pt x="302" y="962" on="0"/>
        <pt x="285" y="893" on="1"/>
        <pt x="55" y="976" on="1"/>
        <pt x="91" y="1075" on="0"/>
        <pt x="189" y="1219" on="0"/>
        <pt x="307" y="1314" on="0"/>
        <pt x="440" y="1360" on="0"/>
        <pt x="509" y="1360" on="1"/>
        <pt x="547" y="1360" on="0"/>
        <pt x="623" y="1332" on="0"/>
        <pt x="698" y="1289" on="0"/>
        <pt x="771" y="1240" on="0"/>
        <pt x="843" y="1197" on="0"/>
        <pt x="913" y="1169" on="0"/>
        <pt x="948" y="1169" on="1"/>
        <pt x="1004" y="1169" on="0"/>
        <pt x="1086" y="1218" on="0"/>
        <pt x="1103" y="1272" on="1"/>
        <pt x="1334" y="1189" on="1"/>
        <pt x="1299" y="1098" on="0"/>
        <pt x="1201" y="965" on="0"/>
        <pt x="1085" y="878" on="0"/>
        <pt x="954" y="836" on="0"/>
      </contour>
      <contour>
        <pt x="885" y="257" on="1"/>
        <pt x="846" y="257" on="0"/>
        <pt x="771" y="285" on="0"/>
        <pt x="696" y="328" on="0"/>
        <pt x="623" y="377" on="0"/>
        <pt x="551" y="420" on="0"/>
        <pt x="480" y="448" on="0"/>
        <pt x="445" y="448" on="1"/>
        <pt x="388" y="448" on="0"/>
        <pt x="302" y="383" on="0"/>
        <pt x="285" y="314" on="1"/>
        <pt x="55" y="397" on="1"/>
        <pt x="91" y="496" on="0"/>
        <pt x="189" y="640" on="0"/>
        <pt x="307" y="735" on="0"/>
        <pt x="440" y="781" on="0"/>
        <pt x="509" y="781" on="1"/>
        <pt x="547" y="781" on="0"/>
        <pt x="623" y="753" on="0"/>
        <pt x="698" y="710" on="0"/>
        <pt x="771" y="661" on="0"/>
        <pt x="843" y="618" on="0"/>
        <pt x="913" y="590" on="0"/>
        <pt x="948" y="590" on="1"/>
        <pt x="1004" y="590" on="0"/>
        <pt x="1086" y="639" on="0"/>
        <pt x="1103" y="693" on="1"/>
        <pt x="1334" y="610" on="1"/>
        <pt x="1299" y="519" on="0"/>
        <pt x="1201" y="386" on="0"/>
        <pt x="1085" y="299" on="0"/>
        <pt x="954" y="257" on="0"/>
      </contour>
    </TTGlyph>
    <TTGlyph name="aring" xMin="96" yMin="-32" xMax="1216" yMax="1600">
      <component glyphName="a" x="0" y="0" flags="0x1204"/>
      <component glyphName="ring" x="405" y="0" flags="0x1004"/>
    </TTGlyph>
    <TTGlyph name="asciicircum" xMin="100" yMin="512" xMax="1100" yMax="1200">
      <contour>
        <pt x="100" y="512" on="1"/>
        <pt x="400" y="1200" on="1"/>
        <pt x="800" y="1200" on="1"/>
        <pt x="1100" y="512" on="1"/>
        <pt x="756" y="512" on="1"/>
        <pt x="600" y="1000" on="1"/>
        <pt x="449" y="512" on="1"/>
      </contour>
    </TTGlyph>
    <TTGlyph name="asciitilde" xMin="55" yMin="836" xMax="1334" yMax="1360">
      <contour>
        <pt x="885" y="836" on="1"/>
        <pt x="846" y="836" on="0"/>
        <pt x="771" y="864" on="0"/>
        <pt x="696" y="907" on="0"/>
        <pt x="623" y="956" on="0"/>
        <pt x="551" y="999" on="0"/>
        <pt x="480" y="1027" on="0"/>
        <pt x="445" y="1027" on="1"/>
        <pt x="388" y="1027" on="0"/>
        <pt x="302" y="962" on="0"/>
        <pt x="285" y="893" on="1"/>
        <pt x="55" y="976" on="1"/>
        <pt x="91" y="1075" on="0"/>
        <pt x="189" y="1219" on="0"/>
        <pt x="307" y="1314" on="0"/>
        <pt x="440" y="1360" on="0"/>
        <pt x="509" y="1360" on="1"/>
        <pt x="547" y="1360" on="0"/>
        <pt x="623" y="1332" on="0"/>
        <pt x="698" y="1289" on="0"/>
        <pt x="771" y="1240" on="0"/>
        <pt x="843" y="1197" on="0"/>
        <pt x="913" y="1169" on="0"/>
        <pt x="948" y="1169" on="1"/>
        <pt x="1004" y="1169" on="0"/>
        <pt x="1086" y="1218" on="0"/>
        <pt x="1103" y="1272" on="1"/>
        <pt x="1334" y="1189" on="1"/>
        <pt x="1299" y="1098" on="0"/>
        <pt x="1201" y="965" on="0"/>
        <pt x="1085" y="878" on="0"/>
        <pt x="954" y="836" on="0"/>
      </contour>
    </TTGlyph>
    <TTGlyph name="asterisk" xMin="74" yMin="473" xMax="1034" yMax="1496">
      <contour>
        <pt x="426" y="473" on="1"/>
        <pt x="233" y="565" on="1"/>
        <pt x="385" y="866" on="1"/>
        <pt x="74" y="866" on="1"/>
        <pt x="74" y="1086" on="1"/>
        <pt x="385" y="1086" on="1"/>
        <pt x="233" y="1404" on="1"/>
        <pt x="426" y="1496" on="1"/>
        <pt x="554" y="1199" on="1"/>
        <pt x="682" y="1496" on="1"/>
        <pt x="875" y="1404" on="1"/>
        <pt x="723" y="1103" on="1"/>
        <pt x="1034" y="1103" on="1"/>
        <pt x="1034" y="883" on="1"/>
        <pt x="723" y="883" on="1"/>
        <pt x="875" y="565" on="1"/>
        <pt x="682" y="473" on="1"/>
        <pt x="554" y="770" on="1"/>
      </contour>
    </TTGlyph>
    <TTGlyph name="at" xMin="96" yMin="-256" xMax="2304" yMax="1504">
      <contour>
        <pt x="1834" y="256" on="1"/>
        <pt x="1920" y="256" on="0"/>
        <pt x="1920" y="598" on="1"/>
        <pt x="1920" y="738" on="0"/>
        <pt x="1908" y="800" on="1"/>
        <pt x="1882" y="931" on="0"/>
        <pt x="1682" y="1131" on="0"/>
        <pt x="1495" y="1168" on="1"/>
        <pt x="1313" y="1203" on="0"/>
        <pt x="1259" y="1202" on="1"/>
        <pt x="1114" y="1199" on="0"/>
        <pt x="1076" y="1193" on="1"/>
        <pt x="928" y="1173" on="0"/>
        <pt x="841" y="1129" on="1"/>
        <pt x="781" y="1099" on="0"/>
        <pt x="697" y="1019" on="1"/>
        <pt x="589" y="915" on="0"/>
        <pt x="536" y="742" on="1"/>
        <pt x="512" y="664" on="0"/>
        <pt x="512" y="542" on="1"/>
        <pt x="512" y="415" on="0"/>
        <pt x="560" y="300" on="1"/>
        <pt x="610" y="180" on="0"/>
        <pt x="716" y="99" on="1"/>
        <pt x="929" y="-64" on="0"/>
        <pt x="1408" y="-64" on="1"/>
        <pt x="1440" y="-224" on="1"/>
        <pt x="1355" y="-256" on="0"/>
        <pt x="941" y="-256" on="0"/>
        <pt x="650" y="-192" on="0"/>
        <pt x="536" y="-135" on="1"/>
        <pt x="315" y="-24" on="0"/>
        <pt x="96" y="352" on="0"/>
        <pt x="96" y="769" on="0"/>
        <pt x="169" y="940" on="1"/>
        <pt x="250" y="1130" on="0"/>
        <pt x="388" y="1237" on="1"/>
        <pt x="563" y="1371" on="0"/>
        <pt x="744" y="1442" on="1"/>
        <pt x="904" y="1504" on="0"/>
        <pt x="1247" y="1504" on="1"/>
        <pt x="1694" y="1504" on="0"/>
        <pt x="1974" y="1326" on="1"/>
        <pt x="2180" y="1195" on="0"/>
        <pt x="2262" y="954" on="1"/>
        <pt x="2304" y="830" on="0"/>
        <pt x="2304" y="561" on="0"/>
        <pt x="2262" y="380" on="0"/>
        <pt x="2226" y="309" on="1"/>
        <pt x="2158" y="175" on="0"/>
        <pt x="1924" y="32" on="0"/>
        <pt x="1792" y="32" on="1"/>
        <pt x="1592" y="32" on="0"/>
        <pt x="1488" y="166" on="1"/>
        <pt x="1454" y="210" on="0"/>
        <pt x="1425" y="269" on="1"/>
        <pt x="1374" y="171" on="0"/>
        <pt x="1236" y="138" on="1"/>
        <pt x="1194" y="128" on="0"/>
        <pt x="1152" y="128" on="1"/>
        <pt x="923" y="128" on="0"/>
        <pt x="672" y="393" on="0"/>
        <pt x="672" y="576" on="1"/>
        <pt x="672" y="755" on="0"/>
        <pt x="899" y="1024" on="0"/>
        <pt x="1285" y="1024" on="0"/>
        <pt x="1376" y="864" on="1"/>
        <pt x="1408" y="974" on="1"/>
        <pt x="1620" y="974" on="1"/>
        <pt x="1706" y="849" on="1"/>
        <pt x="1706" y="384" on="1"/>
        <pt x="1706" y="318" on="0"/>
        <pt x="1759" y="261" on="0"/>
        <pt x="1807" y="256" on="0"/>
      </contour>
      <contour>
        <pt x="1376" y="736" on="1"/>
        <pt x="1297" y="798" on="0"/>
        <pt x="1167" y="798" on="0"/>
        <pt x="1094" y="760" on="0"/>
        <pt x="1070" y="728" on="1"/>
        <pt x="1024" y="666" on="0"/>
        <pt x="1024" y="576" on="1"/>
        <pt x="1024" y="496" on="0"/>
        <pt x="1081" y="440" on="1"/>
        <pt x="1139" y="384" on="0"/>
        <pt x="1305" y="384" on="0"/>
        <pt x="1376" y="416" on="1"/>
      </contour>
    </TTGlyph>
    <TTGlyph name="atilde" xMin="96" yMin="-32" xMax="1221" yMax="1676">
      <component glyphName="a" x="0" y="0" flags="0x1204"/>
      <component glyphName="tilde" x="25" y="0" flags="0x1004"/>
    </TTGlyph>
    <TTGlyph name="b" xMin="160" yMin="-32" xMax="1440" yMax="1536">
      <contour>
        <pt x="956" y="-32" on="1"/>
        <pt x="899" y="-32" on="0"/>
        <pt x="787" y="-3" on="0"/>
        <pt x="687" y="51" on="0"/>
        <pt x="604" y="129" on="0"/>
        <pt x="576" y="178" on="1"/>
        <pt x="576" y="0" on="1"/>
        <pt x="160" y="0" on="1"/>
        <pt x="160" y="1536" on="1"/>
        <pt x="576" y="1536" on="1"/>
        <pt x="576" y="931" on="1"/>
        <pt x="601" y="974" on="0"/>
        <pt x="686" y="1044" on="0"/>
        <pt x="791" y="1094" on="0"/>
        <pt x="910" y="1122" on="0"/>
        <pt x="970" y="1122" on="1"/>
        <pt x="1028" y="1122" on="0"/>
        <pt x="1144" y="1094" on="0"/>
        <pt x="1248" y="1038" on="0"/>
        <pt x="1337" y="950" on="0"/>
        <pt x="1403" y="824" on="0"/>
        <pt x="1440" y="659" on="0"/>
        <pt x="1440" y="555" on="1"/>
        <pt x="1440" y="402" on="0"/>
        <pt x="1361" y="180" on="0"/>
        <pt x="1227" y="37" on="0"/>
        <pt x="1052" y="-32" on="0"/>
      </contour>
      <contour>
        <pt x="768" y="266" on="1"/>
        <pt x="800" y="266" on="0"/>
        <pt x="878" y="282" on="0"/>
        <pt x="946" y="341" on="0"/>
        <pt x="992" y="456" on="0"/>
        <pt x="992" y="555" on="1"/>
        <pt x="992" y="626" on="0"/>
        <pt x="971" y="724" on="0"/>
        <pt x="936" y="788" on="0"/>
        <pt x="891" y="823" on="0"/>
        <pt x="842" y="840" on="0"/>
        <pt x="793" y="843" on="0"/>
        <pt x="772" y="843" on="1"/>
        <pt x="734" y="843" on="0"/>
        <pt x="663" y="812" on="0"/>
        <pt x="609" y="745" on="0"/>
        <pt x="576" y="637" on="0"/>
        <pt x="576" y="559" on="1"/>
        <pt x="576" y="478" on="0"/>
        <pt x="608" y="366" on="0"/>
        <pt x="661" y="297" on="0"/>
        <pt x="730" y="266" on="0"/>
      </contour>
    </TTGlyph>
    <TTGlyph name="backslash" xMin="0" yMin="0" xMax="853" yMax="1426">
      <contour>
        <pt x="451" y="1426" on="1"/>
        <pt x="853" y="0" on="1"/>
        <pt x="402" y="0" on="1"/>
        <pt x="0" y="1426" on="1"/>
      </contour>
    </TTGlyph>
    <TTGlyph name="bar" xMin="200" yMin="-100" xMax="600" yMax="1600">
      <contour>
        <pt x="200" y="1600" on="1"/>
        <pt x="600" y="1600" on="1"/>
        <pt x="600" y="-100" on="1"/>
        <pt x="200" y="-100" on="1"/>
      </contour>
    </TTGlyph>
    <TTGlyph name="braceleft" xMin="100" yMin="-111" xMax="800" yMax="1636">
      <contour>
        <pt x="250" y="1055" on="1"/>
        <pt x="250" y="1172" on="0"/>
        <pt x="322" y="1383" on="0"/>
        <pt x="462" y="1542" on="0"/>
        <pt x="667" y="1636" on="0"/>
        <pt x="800" y="1636" on="1"/>
        <pt x="800" y="1409" on="1"/>
        <pt x="762" y="1409" on="0"/>
        <pt x="722" y="1363" on="0"/>
        <pt x="703" y="1289" on="0"/>
        <pt x="700" y="1194" on="0"/>
        <pt x="700" y="1145" on="1"/>
        <pt x="700" y="1089" on="0"/>
        <pt x="664" y="968" on="0"/>
        <pt x="590" y="862" on="0"/>
        <pt x="477" y="780" on="0"/>
        <pt x="400" y="762" on="1"/>
        <pt x="477" y="743" on="0"/>
        <pt x="590" y="655" on="0"/>
        <pt x="664" y="540" on="0"/>
        <pt x="700" y="410" on="0"/>
        <pt x="700" y="350" on="1"/>
        <pt x="700" y="306" on="0"/>
        <pt x="704" y="222" on="0"/>
        <pt x="722" y="156" on="0"/>
        <pt x="762" y="116" on="0"/>
        <pt x="800" y="116" on="1"/>
        <pt x="800" y="-111" on="1"/>
        <pt x="667" y="-111" on="0"/>
        <pt x="462" y="-17" on="0"/>
        <pt x="322" y="142" on="0"/>
        <pt x="250" y="353" on="0"/>
        <pt x="250" y="470" on="1"/>
        <pt x="250" y="507" on="0"/>
        <pt x="226" y="559" on="0"/>
        <pt x="185" y="590" on="0"/>
        <pt x="131" y="604" on="0"/>
        <pt x="100" y="604" on="1"/>
        <pt x="100" y="921" on="1"/>
        <pt x="131" y="921" on="0"/>
        <pt x="185" y="935" on="0"/>
        <pt x="226" y="966" on="0"/>
        <pt x="250" y="1017" on="0"/>
      </contour>
    </TTGlyph>
    <TTGlyph name="braceright" xMin="100" yMin="-111" xMax="800" yMax="1636">
      <contour>
        <pt x="650" y="1055" on="1"/>
        <pt x="650" y="1017" on="0"/>
        <pt x="674" y="966" on="0"/>
        <pt x="715" y="935" on="0"/>
        <pt x="769" y="921" on="0"/>
        <pt x="800" y="921" on="1"/>
        <pt x="800" y="604" on="1"/>
        <pt x="769" y="604" on="0"/>
        <pt x="715" y="590" on="0"/>
        <pt x="674" y="559" on="0"/>
        <pt x="650" y="507" on="0"/>
        <pt x="650" y="470" on="1"/>
        <pt x="650" y="353" on="0"/>
        <pt x="578" y="142" on="0"/>
        <pt x="438" y="-17" on="0"/>
        <pt x="233" y="-111" on="0"/>
        <pt x="100" y="-111" on="1"/>
        <pt x="100" y="116" on="1"/>
        <pt x="137" y="116" on="0"/>
        <pt x="178" y="156" on="0"/>
        <pt x="197" y="222" on="0"/>
        <pt x="200" y="306" on="0"/>
        <pt x="200" y="350" on="1"/>
        <pt x="200" y="410" on="0"/>
        <pt x="236" y="540" on="0"/>
        <pt x="310" y="655" on="0"/>
        <pt x="423" y="743" on="0"/>
        <pt x="500" y="762" on="1"/>
        <pt x="423" y="780" on="0"/>
        <pt x="310" y="862" on="0"/>
        <pt x="236" y="968" on="0"/>
        <pt x="200" y="1089" on="0"/>
        <pt x="200" y="1145" on="1"/>
        <pt x="200" y="1194" on="0"/>
        <pt x="197" y="1289" on="0"/>
        <pt x="178" y="1363" on="0"/>
        <pt x="137" y="1409" on="0"/>
        <pt x="100" y="1409" on="1"/>
        <pt x="100" y="1636" on="1"/>
        <pt x="233" y="1636" on="0"/>
        <pt x="438" y="1542" on="0"/>
        <pt x="578" y="1383" on="0"/>
        <pt x="650" y="1172" on="0"/>
      </contour>
    </TTGlyph>
    <TTGlyph name="bracketleft" xMin="92" yMin="0" xMax="813" yMax="1616">
      <contour>
        <pt x="92" y="1616" on="1"/>
        <pt x="813" y="1616" on="1"/>
        <pt x="813" y="1291" on="1"/>
        <pt x="553" y="1291" on="1"/>
        <pt x="553" y="325" on="1"/>
        <pt x="813" y="325" on="1"/>
        <pt x="813" y="0" on="1"/>
        <pt x="92" y="0" on="1"/>
      </contour>
    </TTGlyph>
    <TTGlyph name="bracketright" xMin="92" yMin="0" xMax="813" yMax="1616">
      <contour>
        <pt x="813" y="0" on="1"/>
        <pt x="92" y="0" on="1"/>
        <pt x="92" y="325" on="1"/>
        <pt x="351" y="325" on="1"/>
        <pt x="351" y="1291" on="1"/>
        <pt x="92" y="1291" on="1"/>
        <pt x="92" y="1616" on="1"/>
        <pt x="813" y="1616" on="1"/>
      </contour>
    </TTGlyph>
    <TTGlyph name="breve" xMin="28" yMin="1200" xMax="772" yMax="1545">
      <contour>
        <pt x="772" y="1545" on="1"/>
        <pt x="772" y="1454" on="0"/>
        <pt x="711" y="1323" on="0"/>
        <pt x="608" y="1239" on="0"/>
        <pt x="473" y="1200" on="0"/>
        <pt x="400" y="1200" on="1"/>
        <pt x="316" y="1200" on="0"/>
        <pt x="179" y="1239" on="0"/>
        <pt x="82" y="1323" on="0"/>
        <pt x="28" y="1454" on="0"/>
        <pt x="28" y="1545" on="1"/>
        <pt x="240" y="1545" on="1"/>
        <pt x="240" y="1511" on="0"/>
        <pt x="267" y="1465" on="0"/>
        <pt x="312" y="1438" on="0"/>
        <pt x="370" y="1426" on="0"/>
        <pt x="400" y="1426" on="1"/>
        <pt x="430" y="1426" on="0"/>
        <pt x="487" y="1438" on="0"/>
        <pt x="532" y="1465" on="0"/>
        <pt x="560" y="1511" on="0"/>
        <pt x="560" y="1545" on="1"/>
      </contour>
    </TTGlyph>
    <TTGlyph name="brokenbar" xMin="192" yMin="-96" xMax="576" yMax="1600">
      <contour>
        <pt x="192" y="1600" on="1"/>
        <pt x="576" y="1600" on="1"/>
        <pt x="576" y="864" on="1"/>
        <pt x="192" y="864" on="1"/>
      </contour>
      <contour>
        <pt x="192" y="640" on="1"/>
        <pt x="576" y="640" on="1"/>
        <pt x="576" y="-96" on="1"/>
        <pt x="192" y="-96" on="1"/>
      </contour>
    </TTGlyph>
    <TTGlyph name="bullet" xMin="106" yMin="300" xMax="693" yMax="899">
      <contour>
        <pt x="400" y="300" on="1"/>
        <pt x="326" y="300" on="0"/>
        <pt x="216" y="351" on="0"/>
        <pt x="142" y="434" on="0"/>
        <pt x="106" y="540" on="0"/>
        <pt x="106" y="596" on="1"/>
        <pt x="106" y="653" on="0"/>
        <pt x="143" y="761" on="0"/>
        <pt x="217" y="847" on="0"/>
        <pt x="327" y="899" on="0"/>
        <pt x="400" y="899" on="1"/>
        <pt x="473" y="899" on="0"/>
        <pt x="582" y="847" on="0"/>
        <pt x="656" y="762" on="0"/>
        <pt x="693" y="653" on="0"/>
        <pt x="693" y="597" on="1"/>
        <pt x="693" y="541" on="0"/>
        <pt x="657" y="434" on="0"/>
        <pt x="583" y="351" on="0"/>
        <pt x="473" y="300" on="0"/>
      </contour>
    </TTGlyph>
    <TTGlyph name="c" xMin="94" yMin="-32" xMax="1118" yMax="1122">
      <contour>
        <pt x="700" y="-32" on="1"/>
        <pt x="575" y="-32" on="0"/>
        <pt x="355" y="41" on="0"/>
        <pt x="190" y="187" on="0"/>
        <pt x="94" y="408" on="0"/>
        <pt x="94" y="557" on="1"/>
        <pt x="94" y="669" on="0"/>
        <pt x="174" y="873" on="0"/>
        <pt x="326" y="1028" on="0"/>
        <pt x="547" y="1122" on="0"/>
        <pt x="688" y="1122" on="1"/>
        <pt x="785" y="1122" on="0"/>
        <pt x="989" y="1090" on="0"/>
        <pt x="1086" y="1056" on="1"/>
        <pt x="1054" y="768" on="1"/>
        <pt x="1000" y="802" on="0"/>
        <pt x="862" y="829" on="0"/>
        <pt x="796" y="829" on="1"/>
        <pt x="740" y="829" on="0"/>
        <pt x="647" y="793" on="0"/>
        <pt x="579" y="724" on="0"/>
        <pt x="542" y="622" on="0"/>
        <pt x="542" y="555" on="1"/>
        <pt x="542" y="420" on="0"/>
        <pt x="675" y="279" on="0"/>
        <pt x="787" y="279" on="1"/>
        <pt x="859" y="279" on="0"/>
        <pt x="987" y="318" on="0"/>
        <pt x="1054" y="352" on="1"/>
        <pt x="1118" y="64" on="1"/>
        <pt x="1074" y="41" on="0"/>
        <pt x="972" y="6" on="0"/>
        <pt x="864" y="-19" on="0"/>
        <pt x="753" y="-32" on="0"/>
      </contour>
    </TTGlyph>
    <TTGlyph name="caron" xMin="95" yMin="1248" xMax="993" yMax="1792">
      <contour>
        <pt x="544" y="1411" on="1"/>
        <pt x="610" y="1584" on="0"/>
        <pt x="614" y="1593" on="1"/>
        <pt x="628" y="1623" on="0"/>
        <pt x="656" y="1684" on="0"/>
        <pt x="680" y="1738" on="0"/>
        <pt x="699" y="1780" on="0"/>
        <pt x="704" y="1792" on="1"/>
        <pt x="993" y="1792" on="1"/>
        <pt x="800" y="1248" on="1"/>
        <pt x="288" y="1248" on="1"/>
        <pt x="95" y="1792" on="1"/>
        <pt x="384" y="1792" on="1"/>
        <pt x="389" y="1780" on="0"/>
        <pt x="408" y="1738" on="0"/>
        <pt x="420" y="1711" on="1"/>
        <pt x="444" y="1658" on="0"/>
        <pt x="446" y="1654" on="1"/>
        <pt x="469" y="1611" on="0"/>
        <pt x="474" y="1593" on="1"/>
        <pt x="516" y="1462" on="0"/>
      </contour>
    </TTGlyph>
    <TTGlyph name="ccedilla" xMin="94" yMin="-788" xMax="1153" yMax="1122">
      <component glyphName="c" x="0" y="0" flags="0x1204"/>
      <component glyphName="cedilla" x="400" y="0" flags="0x1004"/>
    </TTGlyph>
    <TTGlyph name="cedilla" xMin="200" yMin="-788" xMax="753" yMax="0">
      <contour>
        <pt x="200" y="0" on="1"/>
        <pt x="400" y="0" on="1"/>
        <pt x="400" y="-100" on="1"/>
        <pt x="486" y="-100" on="0"/>
        <pt x="618" y="-158" on="0"/>
        <pt x="707" y="-253" on="0"/>
        <pt x="753" y="-374" on="0"/>
        <pt x="753" y="-438" on="1"/>
        <pt x="753" y="-503" on="0"/>
        <pt x="704" y="-629" on="0"/>
        <pt x="602" y="-728" on="0"/>
        <pt x="447" y="-788" on="0"/>
        <pt x="342" y="-788" on="1"/>
        <pt x="309" y="-788" on="0"/>
        <pt x="238" y="-781" on="0"/>
        <pt x="200" y="-774" on="1"/>
        <pt x="200" y="-478" on="1"/>
        <pt x="251" y="-487" on="0"/>
        <pt x="291" y="-487" on="1"/>
        <pt x="330" y="-487" on="0"/>
        <pt x="389" y="-465" on="0"/>
        <pt x="428" y="-430" on="0"/>
        <pt x="448" y="-385" on="0"/>
        <pt x="448" y="-361" on="1"/>
        <pt x="448" y="-338" on="0"/>
        <pt x="429" y="-294" on="0"/>
        <pt x="392" y="-259" on="0"/>
        <pt x="335" y="-238" on="0"/>
        <pt x="297" y="-238" on="1"/>
        <pt x="252" y="-238" on="0"/>
        <pt x="200" y="-256" on="1"/>
      </contour>
    </TTGlyph>
    <TTGlyph name="cent" xMin="100" yMin="0" xMax="1100" yMax="1426">
      <contour>
        <pt x="565" y="156" on="1"/>
        <pt x="466" y="172" on="0"/>
        <pt x="295" y="261" on="0"/>
        <pt x="171" y="403" on="0"/>
        <pt x="100" y="600" on="0"/>
        <pt x="100" y="726" on="1"/>
        <pt x="100" y="826" on="0"/>
        <pt x="162" y="1013" on="0"/>
        <pt x="281" y="1164" on="0"/>
        <pt x="454" y="1270" on="0"/>
        <pt x="565" y="1288" on="1"/>
        <pt x="565" y="1426" on="1"/>
        <pt x="782" y="1426" on="1"/>
        <pt x="782" y="1290" on="1"/>
        <pt x="857" y="1282" on="0"/>
        <pt x="1026" y="1246" on="0"/>
        <pt x="1100" y="1217" on="1"/>
        <pt x="1100" y="926" on="1"/>
        <pt x="1067" y="942" on="0"/>
        <pt x="989" y="967" on="0"/>
        <pt x="907" y="982" on="0"/>
        <pt x="823" y="990" on="0"/>
        <pt x="784" y="990" on="1"/>
        <pt x="731" y="990" on="0"/>
        <pt x="644" y="956" on="0"/>
        <pt x="581" y="888" on="0"/>
        <pt x="546" y="789" on="0"/>
        <pt x="546" y="724" on="1"/>
        <pt x="546" y="593" on="0"/>
        <pt x="670" y="455" on="0"/>
        <pt x="775" y="455" on="1"/>
        <pt x="864" y="455" on="0"/>
        <pt x="1022" y="487" on="0"/>
        <pt x="1100" y="520" on="1"/>
        <pt x="1100" y="234" on="1"/>
        <pt x="1028" y="201" on="0"/>
        <pt x="863" y="160" on="0"/>
        <pt x="782" y="151" on="1"/>
        <pt x="782" y="0" on="1"/>
        <pt x="565" y="0" on="1"/>
      </contour>
    </TTGlyph>
    <TTGlyph name="circumflex" xMin="100" yMin="1248" xMax="1000" yMax="1792">
      <contour>
        <pt x="700" y="1248" on="1"/>
        <pt x="680" y="1295" on="0"/>
        <pt x="603" y="1506" on="0"/>
        <pt x="550" y="1600" on="1"/>
        <pt x="496" y="1506" on="0"/>
        <pt x="420" y="1295" on="0"/>
        <pt x="400" y="1248" on="1"/>
        <pt x="100" y="1248" on="1"/>
        <pt x="300" y="1792" on="1"/>
        <pt x="800" y="1792" on="1"/>
        <pt x="1000" y="1248" on="1"/>
      </contour>
    </TTGlyph>
    <TTGlyph name="colon" xMin="128" yMin="0" xMax="640" yMax="1120">
      <contour>
        <pt x="384" y="0" on="1"/>
        <pt x="319" y="0" on="0"/>
        <pt x="222" y="42" on="0"/>
        <pt x="159" y="110" on="0"/>
        <pt x="128" y="195" on="0"/>
        <pt x="128" y="239" on="1"/>
        <pt x="128" y="284" on="0"/>
        <pt x="161" y="371" on="0"/>
        <pt x="225" y="438" on="0"/>
        <pt x="321" y="464" on="0"/>
        <pt x="384" y="464" on="1"/>
        <pt x="447" y="464" on="0"/>
        <pt x="543" y="438" on="0"/>
        <pt x="607" y="371" on="0"/>
        <pt x="640" y="284" on="0"/>
        <pt x="640" y="239" on="1"/>
        <pt x="640" y="195" on="0"/>
        <pt x="608" y="110" on="0"/>
        <pt x="545" y="42" on="0"/>
        <pt x="448" y="0" on="0"/>
      </contour>
      <contour>
        <pt x="384" y="654" on="1"/>
        <pt x="319" y="654" on="0"/>
        <pt x="222" y="682" on="0"/>
        <pt x="159" y="750" on="0"/>
        <pt x="128" y="835" on="0"/>
        <pt x="128" y="879" on="1"/>
        <pt x="128" y="924" on="0"/>
        <pt x="161" y="1011" on="0"/>
        <pt x="225" y="1078" on="0"/>
        <pt x="321" y="1120" on="0"/>
        <pt x="384" y="1120" on="1"/>
        <pt x="447" y="1120" on="0"/>
        <pt x="543" y="1078" on="0"/>
        <pt x="607" y="1011" on="0"/>
        <pt x="640" y="924" on="0"/>
        <pt x="640" y="879" on="1"/>
        <pt x="640" y="835" on="0"/>
        <pt x="608" y="750" on="0"/>
        <pt x="545" y="682" on="0"/>
        <pt x="448" y="654" on="0"/>
      </contour>
    </TTGlyph>
    <TTGlyph name="comma" xMin="128" yMin="-320" xMax="672" yMax="416">
      <contour>
        <pt x="427" y="4" on="1"/>
        <pt x="361" y="-32" on="0"/>
        <pt x="312" y="-32" on="1"/>
        <pt x="273" y="-32" on="0"/>
        <pt x="206" y="2" on="0"/>
        <pt x="156" y="59" on="0"/>
        <pt x="128" y="135" on="0"/>
        <pt x="128" y="176" on="1"/>
        <pt x="128" y="218" on="0"/>
        <pt x="161" y="304" on="0"/>
        <pt x="228" y="373" on="0"/>
        <pt x="329" y="416" on="0"/>
        <pt x="397" y="416" on="1"/>
        <pt x="533" y="416" on="0"/>
        <pt x="672" y="252" on="0"/>
        <pt x="672" y="98" on="1"/>
        <pt x="672" y="-28" on="0"/>
        <pt x="598" y="-191" on="0"/>
        <pt x="479" y="-284" on="0"/>
        <pt x="331" y="-320" on="0"/>
        <pt x="256" y="-320" on="1"/>
        <pt x="160" y="-320" on="1"/>
        <pt x="160" y="-128" on="1"/>
        <pt x="258" y="-128" on="0"/>
        <pt x="281" y="-124" on="1"/>
        <pt x="346" y="-116" on="0"/>
        <pt x="369" y="-106" on="1"/>
        <pt x="404" y="-90" on="0"/>
        <pt x="427" y="-30" on="0"/>
      </contour>
    </TTGlyph>
    <TTGlyph name="copyright" xMin="0" yMin="-141" xMax="1800" yMax="1541">
      <contour>
        <pt x="299" y="700" on="1"/>
        <pt x="299" y="622" on="0"/>
        <pt x="316" y="471" on="0"/>
        <pt x="363" y="335" on="0"/>
        <pt x="447" y="220" on="0"/>
        <pt x="581" y="135" on="0"/>
        <pt x="770" y="88" on="0"/>
        <pt x="900" y="88" on="1"/>
        <pt x="1030" y="88" on="0"/>
        <pt x="1219" y="135" on="0"/>
        <pt x="1353" y="220" on="0"/>
        <pt x="1437" y="335" on="0"/>
        <pt x="1484" y="471" on="0"/>
        <pt x="1501" y="622" on="0"/>
        <pt x="1501" y="700" on="1"/>
        <pt x="1501" y="778" on="0"/>
        <pt x="1484" y="929" on="0"/>
        <pt x="1437" y="1065" on="0"/>
        <pt x="1353" y="1180" on="0"/>
        <pt x="1219" y="1265" on="0"/>
        <pt x="1029" y="1312" on="0"/>
        <pt x="900" y="1312" on="1"/>
        <pt x="771" y="1312" on="0"/>
        <pt x="581" y="1265" on="0"/>
        <pt x="447" y="1180" on="0"/>
        <pt x="363" y="1065" on="0"/>
        <pt x="316" y="929" on="0"/>
        <pt x="299" y="778" on="0"/>
      </contour>
      <contour>
        <pt x="0" y="700" on="1"/>
        <pt x="0" y="803" on="0"/>
        <pt x="33" y="1009" on="0"/>
        <pt x="112" y="1195" on="0"/>
        <pt x="244" y="1356" on="0"/>
        <pt x="444" y="1474" on="0"/>
        <pt x="719" y="1541" on="0"/>
        <pt x="900" y="1541" on="1"/>
        <pt x="1081" y="1541" on="0"/>
        <pt x="1356" y="1474" on="0"/>
        <pt x="1556" y="1356" on="0"/>
        <pt x="1688" y="1195" on="0"/>
        <pt x="1767" y="1009" on="0"/>
        <pt x="1800" y="803" on="0"/>
        <pt x="1800" y="700" on="1"/>
        <pt x="1800" y="597" on="0"/>
        <pt x="1767" y="391" on="0"/>
        <pt x="1688" y="205" on="0"/>
        <pt x="1556" y="44" on="0"/>
        <pt x="1356" y="-74" on="0"/>
        <pt x="1081" y="-141" on="0"/>
        <pt x="900" y="-141" on="1"/>
        <pt x="719" y="-141" on="0"/>
        <pt x="444" y="-74" on="0"/>
        <pt x="244" y="44" on="0"/>
        <pt x="112" y="205" on="0"/>
        <pt x="33" y="391" on="0"/>
        <pt x="0" y="596" on="0"/>
      </contour>
      <contour>
        <pt x="919" y="238" on="1"/>
        <pt x="827" y="238" on="0"/>
        <pt x="666" y="298" on="0"/>
        <pt x="546" y="416" on="0"/>
        <pt x="476" y="594" on="0"/>
        <pt x="476" y="713" on="1"/>
        <pt x="476" y="801" on="0"/>
        <pt x="534" y="964" on="0"/>
        <pt x="645" y="1088" on="0"/>
        <pt x="806" y="1162" on="0"/>
        <pt x="909" y="1162" on="1"/>
        <pt x="985" y="1162" on="0"/>
        <pt x="1137" y="1131" on="0"/>
        <pt x="1213" y="1096" on="1"/>
        <pt x="1197" y="864" on="1"/>
        <pt x="1155" y="890" on="0"/>
        <pt x="1045" y="915" on="0"/>
        <pt x="994" y="915" on="1"/>
        <pt x="950" y="915" on="0"/>
        <pt x="876" y="887" on="0"/>
        <pt x="823" y="833" on="0"/>
        <pt x="793" y="754" on="0"/>
        <pt x="793" y="702" on="1"/>
        <pt x="793" y="596" on="0"/>
        <pt x="898" y="486" on="0"/>
        <pt x="987" y="486" on="1"/>
        <pt x="1098" y="486" on="0"/>
        <pt x="1201" y="538" on="1"/>
        <pt x="1227" y="310" on="1"/>
        <pt x="1158" y="275" on="0"/>
        <pt x="1002" y="238" on="0"/>
      </contour>
    </TTGlyph>
    <TTGlyph name="currency" xMin="166" yMin="298" xMax="1009" yMax="1111">
      <contour>
        <pt x="588" y="298" on="1"/>
        <pt x="484" y="298" on="0"/>
        <pt x="326" y="368" on="0"/>
        <pt x="220" y="482" on="0"/>
        <pt x="166" y="628" on="0"/>
        <pt x="166" y="705" on="1"/>
        <pt x="166" y="782" on="0"/>
        <pt x="219" y="928" on="0"/>
        <pt x="325" y="1042" on="0"/>
        <pt x="483" y="1111" on="0"/>
        <pt x="588" y="1111" on="1"/>
        <pt x="692" y="1111" on="0"/>
        <pt x="850" y="1042" on="0"/>
        <pt x="956" y="928" on="0"/>
        <pt x="1009" y="782" on="0"/>
        <pt x="1009" y="705" on="1"/>
        <pt x="1009" y="628" on="0"/>
        <pt x="955" y="482" on="0"/>
        <pt x="849" y="368" on="0"/>
        <pt x="692" y="298" on="0"/>
      </contour>
      <contour>
        <pt x="587" y="474" on="1"/>
        <pt x="640" y="474" on="0"/>
        <pt x="722" y="514" on="0"/>
        <pt x="777" y="578" on="0"/>
        <pt x="805" y="661" on="0"/>
        <pt x="805" y="705" on="1"/>
        <pt x="805" y="748" on="0"/>
        <pt x="777" y="831" on="0"/>
        <pt x="722" y="896" on="0"/>
        <pt x="641" y="935" on="0"/>
        <pt x="587" y="935" on="1"/>
        <pt x="533" y="935" on="0"/>
        <pt x="450" y="896" on="0"/>
        <pt x="395" y="831" on="0"/>
        <pt x="367" y="748" on="0"/>
        <pt x="367" y="705" on="1"/>
        <pt x="367" y="661" on="0"/>
        <pt x="395" y="578" on="0"/>
        <pt x="451" y="514" on="0"/>
        <pt x="533" y="474" on="0"/>
      </contour>
    </TTGlyph>
    <TTGlyph name="d" xMin="105" yMin="-32" xMax="1417" yMax="1536">
      <contour>
        <pt x="582" y="-32" on="1"/>
        <pt x="522" y="-32" on="0"/>
        <pt x="404" y="-2" on="0"/>
        <pt x="298" y="60" on="0"/>
        <pt x="208" y="156" on="0"/>
        <pt x="142" y="286" on="0"/>
        <pt x="105" y="453" on="0"/>
        <pt x="105" y="555" on="1"/>
        <pt x="105" y="711" on="0"/>
        <pt x="187" y="927" on="0"/>
        <pt x="320" y="1061" on="0"/>
        <pt x="487" y="1122" on="0"/>
        <pt x="572" y="1122" on="1"/>
        <pt x="635" y="1122" on="0"/>
        <pt x="755" y="1092" on="0"/>
        <pt x="860" y="1040" on="0"/>
        <pt x="943" y="967" on="0"/>
        <pt x="969" y="921" on="1"/>
        <pt x="969" y="1536" on="1"/>
        <pt x="1417" y="1536" on="1"/>
        <pt x="1417" y="0" on="1"/>
        <pt x="969" y="0" on="1"/>
        <pt x="969" y="209" on="1"/>
        <pt x="942" y="153" on="0"/>
        <pt x="859" y="64" on="0"/>
        <pt x="757" y="2" on="0"/>
        <pt x="642" y="-32" on="0"/>
      </contour>
      <contour>
        <pt x="772" y="266" on="1"/>
        <pt x="811" y="266" on="0"/>
        <pt x="883" y="296" on="0"/>
        <pt x="937" y="361" on="0"/>
        <pt x="969" y="466" on="0"/>
        <pt x="969" y="541" on="1"/>
        <pt x="969" y="559" on="1"/>
        <pt x="969" y="637" on="0"/>
        <pt x="937" y="745" on="0"/>
        <pt x="883" y="812" on="0"/>
        <pt x="811" y="843" on="0"/>
        <pt x="771" y="843" on="1"/>
        <pt x="753" y="843" on="0"/>
        <pt x="706" y="840" on="0"/>
        <pt x="657" y="823" on="0"/>
        <pt x="611" y="788" on="0"/>
        <pt x="575" y="724" on="0"/>
        <pt x="553" y="626" on="0"/>
        <pt x="553" y="555" on="1"/>
        <pt x="553" y="489" on="0"/>
        <pt x="575" y="395" on="0"/>
        <pt x="611" y="331" on="0"/>
        <pt x="658" y="292" on="0"/>
        <pt x="707" y="272" on="0"/>
        <pt x="753" y="266" on="0"/>
      </contour>
    </TTGlyph>
    <TTGlyph name="dagger" xMin="0" yMin="0" xMax="800" yMax="1408">
      <contour>
        <pt x="0" y="832" on="1"/>
        <pt x="0" y="1088" on="1"/>
        <pt x="200" y="1088" on="1"/>
        <pt x="200" y="1408" on="1"/>
        <pt x="600" y="1408" on="1"/>
        <pt x="600" y="1088" on="1"/>
        <pt x="800" y="1088" on="1"/>
        <pt x="800" y="832" on="1"/>
        <pt x="600" y="832" on="1"/>
        <pt x="600" y="0" on="1"/>
        <pt x="200" y="0" on="1"/>
        <pt x="200" y="832" on="1"/>
      </contour>
    </TTGlyph>
    <TTGlyph name="daggerdbl" xMin="0" yMin="0" xMax="800" yMax="1408">
      <contour>
        <pt x="0" y="320" on="1"/>
        <pt x="0" y="576" on="1"/>
        <pt x="200" y="576" on="1"/>
        <pt x="200" y="832" on="1"/>
        <pt x="0" y="832" on="1"/>
        <pt x="0" y="1088" on="1"/>
        <pt x="200" y="1088" on="1"/>
        <pt x="200" y="1408" on="1"/>
        <pt x="600" y="1408" on="1"/>
        <pt x="600" y="1088" on="1"/>
        <pt x="800" y="1088" on="1"/>
        <pt x="800" y="832" on="1"/>
        <pt x="600" y="832" on="1"/>
        <pt x="600" y="576" on="1"/>
        <pt x="800" y="576" on="1"/>
        <pt x="800" y="320" on="1"/>
        <pt x="600" y="320" on="1"/>
        <pt x="600" y="0" on="1"/>
        <pt x="200" y="0" on="1"/>
        <pt x="200" y="320" on="1"/>
      </contour>
    </TTGlyph>
    <TTGlyph name="degree" xMin="90" yMin="823" xMax="714" yMax="1426">
      <contour>
        <pt x="401" y="823" on="1"/>
        <pt x="324" y="823" on="0"/>
        <pt x="208" y="875" on="0"/>
        <pt x="130" y="961" on="0"/>
        <pt x="90" y="1069" on="0"/>
        <pt x="90" y="1126" on="1"/>
        <pt x="90" y="1182" on="0"/>
        <pt x="129" y="1290" on="0"/>
        <pt x="207" y="1374" on="0"/>
        <pt x="323" y="1426" on="0"/>
        <pt x="401" y="1426" on="1"/>
        <pt x="479" y="1426" on="0"/>
        <pt x="596" y="1374" on="0"/>
        <pt x="674" y="1290" on="0"/>
        <pt x="714" y="1182" on="0"/>
        <pt x="714" y="1126" on="1"/>
        <pt x="714" y="1069" on="0"/>
        <pt x="674" y="961" on="0"/>
        <pt x="596" y="875" on="0"/>
        <pt x="479" y="823" on="0"/>
      </contour>
      <contour>
        <pt x="400" y="983" on="1"/>
        <pt x="432" y="983" on="0"/>
        <pt x="482" y="1007" on="0"/>
        <pt x="516" y="1048" on="0"/>
        <pt x="534" y="1099" on="0"/>
        <pt x="534" y="1126" on="1"/>
        <pt x="534" y="1153" on="0"/>
        <pt x="517" y="1203" on="0"/>
        <pt x="483" y="1242" on="0"/>
        <pt x="433" y="1266" on="0"/>
        <pt x="400" y="1266" on="1"/>
        <pt x="367" y="1266" on="0"/>
        <pt x="317" y="1242" on="0"/>
        <pt x="282" y="1203" on="0"/>
        <pt x="265" y="1153" on="0"/>
        <pt x="265" y="1126" on="1"/>
        <pt x="265" y="1099" on="0"/>
        <pt x="283" y="1048" on="0"/>
        <pt x="317" y="1007" on="0"/>
        <pt x="368" y="983" on="0"/>
      </contour>
    </TTGlyph>
    <TTGlyph name="dieresis" xMin="100" yMin="1197" xMax="1100" yMax="1600">
      <contour>
        <pt x="308" y="1197" on="1"/>
        <pt x="257" y="1197" on="0"/>
        <pt x="179" y="1232" on="0"/>
        <pt x="126" y="1289" on="0"/>
        <pt x="100" y="1361" on="0"/>
        <pt x="100" y="1399" on="1"/>
        <pt x="100" y="1437" on="0"/>
        <pt x="126" y="1509" on="0"/>
        <pt x="178" y="1566" on="0"/>
        <pt x="256" y="1600" on="0"/>
        <pt x="308" y="1600" on="1"/>
        <pt x="360" y="1600" on="0"/>
        <pt x="438" y="1566" on="0"/>
        <pt x="490" y="1509" on="0"/>
        <pt x="517" y="1437" on="0"/>
        <pt x="517" y="1399" on="1"/>
        <pt x="517" y="1361" on="0"/>
        <pt x="490" y="1289" on="0"/>
        <pt x="438" y="1232" on="0"/>
        <pt x="360" y="1197" on="0"/>
      </contour>
      <contour>
        <pt x="891" y="1197" on="1"/>
        <pt x="840" y="1197" on="0"/>
        <pt x="762" y="1232" on="0"/>
        <pt x="709" y="1289" on="0"/>
        <pt x="683" y="1361" on="0"/>
        <pt x="683" y="1399" on="1"/>
        <pt x="683" y="1437" on="0"/>
        <pt x="709" y="1509" on="0"/>
        <pt x="761" y="1566" on="0"/>
        <pt x="839" y="1600" on="0"/>
        <pt x="891" y="1600" on="1"/>
        <pt x="943" y="1600" on="0"/>
        <pt x="1021" y="1566" on="0"/>
        <pt x="1073" y="1509" on="0"/>
        <pt x="1100" y="1437" on="0"/>
        <pt x="1100" y="1399" on="1"/>
        <pt x="1100" y="1361" on="0"/>
        <pt x="1073" y="1289" on="0"/>
        <pt x="1021" y="1232" on="0"/>
        <pt x="943" y="1197" on="0"/>
      </contour>
    </TTGlyph>
    <TTGlyph name="divide" xMin="64" yMin="8" xMax="832" yMax="1120">
      <contour>
        <pt x="448" y="8" on="1"/>
        <pt x="404" y="8" on="0"/>
        <pt x="340" y="36" on="0"/>
        <pt x="298" y="81" on="0"/>
        <pt x="278" y="139" on="0"/>
        <pt x="278" y="168" on="1"/>
        <pt x="278" y="198" on="0"/>
        <pt x="300" y="255" on="0"/>
        <pt x="342" y="300" on="0"/>
        <pt x="406" y="328" on="0"/>
        <pt x="448" y="328" on="1"/>
        <pt x="490" y="328" on="0"/>
        <pt x="554" y="300" on="0"/>
        <pt x="597" y="255" on="0"/>
        <pt x="619" y="198" on="0"/>
        <pt x="619" y="168" on="1"/>
        <pt x="619" y="139" on="0"/>
        <pt x="598" y="81" on="0"/>
        <pt x="555" y="36" on="0"/>
        <pt x="491" y="8" on="0"/>
      </contour>
      <contour>
        <pt x="448" y="800" on="1"/>
        <pt x="404" y="800" on="0"/>
        <pt x="340" y="828" on="0"/>
        <pt x="298" y="874" on="0"/>
        <pt x="278" y="931" on="0"/>
        <pt x="278" y="960" on="1"/>
        <pt x="278" y="990" on="0"/>
        <pt x="300" y="1047" on="0"/>
        <pt x="342" y="1092" on="0"/>
        <pt x="406" y="1120" on="0"/>
        <pt x="448" y="1120" on="1"/>
        <pt x="490" y="1120" on="0"/>
        <pt x="554" y="1092" on="0"/>
        <pt x="597" y="1047" on="0"/>
        <pt x="619" y="990" on="0"/>
        <pt x="619" y="960" on="1"/>
        <pt x="619" y="931" on="0"/>
        <pt x="598" y="874" on="0"/>
        <pt x="555" y="828" on="0"/>
        <pt x="491" y="800" on="0"/>
      </contour>
      <contour>
        <pt x="832" y="704" on="1"/>
        <pt x="832" y="480" on="1"/>
        <pt x="64" y="480" on="1"/>
        <pt x="64" y="704" on="1"/>
      </contour>
    </TTGlyph>
    <TTGlyph name="dollar" xMin="100" yMin="-100" xMax="1200" yMax="1600">
      <contour>
        <pt x="536" y="42" on="1"/>
        <pt x="435" y="51" on="0"/>
        <pt x="227" y="102" on="0"/>
        <pt x="133" y="143" on="1"/>
        <pt x="133" y="475" on="1"/>
        <pt x="180" y="451" on="0"/>
        <pt x="289" y="408" on="0"/>
        <pt x="403" y="377" on="0"/>
        <pt x="519" y="359" on="0"/>
        <pt x="574" y="359" on="1"/>
        <pt x="655" y="359" on="0"/>
        <pt x="772" y="387" on="0"/>
        <pt x="772" y="441" on="1"/>
        <pt x="772" y="465" on="0"/>
        <pt x="733" y="515" on="0"/>
        <pt x="659" y="557" on="0"/>
        <pt x="563" y="603" on="0"/>
        <pt x="486" y="633" on="1"/>
        <pt x="443" y="653" on="0"/>
        <pt x="353" y="699" on="0"/>
        <pt x="267" y="756" on="0"/>
        <pt x="191" y="825" on="0"/>
        <pt x="133" y="911" on="0"/>
        <pt x="100" y="1015" on="0"/>
        <pt x="100" y="1079" on="1"/>
        <pt x="100" y="1145" on="0"/>
        <pt x="148" y="1265" on="0"/>
        <pt x="249" y="1362" on="0"/>
        <pt x="405" y="1430" on="0"/>
        <pt x="513" y="1444" on="1"/>
        <pt x="513" y="1600" on="1"/>
        <pt x="751" y="1600" on="1"/>
        <pt x="751" y="1450" on="1"/>
        <pt x="799" y="1447" on="0"/>
        <pt x="903" y="1431" on="0"/>
        <pt x="1007" y="1404" on="0"/>
        <pt x="1104" y="1364" on="0"/>
        <pt x="1145" y="1335" on="1"/>
        <pt x="1113" y="1058" on="1"/>
        <pt x="1074" y="1075" on="0"/>
        <pt x="984" y="1109" on="0"/>
        <pt x="889" y="1136" on="0"/>
        <pt x="825" y="1147" on="1"/>
        <pt x="779" y="1155" on="0"/>
        <pt x="716" y="1158" on="1"/>
        <pt x="692" y="1159" on="0"/>
        <pt x="673" y="1159" on="1"/>
        <pt x="628" y="1159" on="0"/>
        <pt x="609" y="1152" on="1"/>
        <pt x="547" y="1134" on="0"/>
        <pt x="547" y="1086" on="1"/>
        <pt x="547" y="1062" on="0"/>
        <pt x="590" y="1024" on="0"/>
        <pt x="670" y="981" on="0"/>
        <pt x="742" y="948" on="0"/>
        <pt x="790" y="930" on="1"/>
        <pt x="829" y="912" on="0"/>
        <pt x="920" y="866" on="0"/>
        <pt x="1011" y="805" on="0"/>
        <pt x="1096" y="727" on="0"/>
        <pt x="1161" y="628" on="0"/>
        <pt x="1200" y="507" on="0"/>
        <pt x="1200" y="433" on="1"/>
        <pt x="1200" y="369" on="0"/>
        <pt x="1150" y="243" on="0"/>
        <pt x="1046" y="137" on="0"/>
        <pt x="885" y="60" on="0"/>
        <pt x="774" y="45" on="1"/>
        <pt x="774" y="-100" on="1"/>
        <pt x="536" y="-100" on="1"/>
      </contour>
    </TTGlyph>
    <TTGlyph name="dotaccent" xMin="141" yMin="0" xMax="698" yMax="473">
      <contour>
        <pt x="418" y="0" on="1"/>
        <pt x="348" y="0" on="0"/>
        <pt x="244" y="39" on="0"/>
        <pt x="175" y="104" on="0"/>
        <pt x="141" y="186" on="0"/>
        <pt x="141" y="230" on="1"/>
        <pt x="141" y="275" on="0"/>
        <pt x="177" y="362" on="0"/>
        <pt x="247" y="431" on="0"/>
        <pt x="351" y="473" on="0"/>
        <pt x="419" y="473" on="1"/>
        <pt x="487" y="473" on="0"/>
        <pt x="591" y="431" on="0"/>
        <pt x="662" y="362" on="0"/>
        <pt x="698" y="276" on="0"/>
        <pt x="698" y="231" on="1"/>
        <pt x="698" y="187" on="0"/>
        <pt x="664" y="104" on="0"/>
        <pt x="594" y="39" on="0"/>
        <pt x="489" y="0" on="0"/>
      </contour>
    </TTGlyph>
    <TTGlyph name="dotlessi" xMin="160" yMin="0" xMax="576" yMax="1088">
      <contour>
        <pt x="160" y="1088" on="1"/>
        <pt x="576" y="1088" on="1"/>
        <pt x="576" y="0" on="1"/>
        <pt x="160" y="0" on="1"/>
      </contour>
    </TTGlyph>
    <TTGlyph name="e" xMin="95" yMin="-32" xMax="1183" yMax="1122">
      <contour>
        <pt x="1151" y="332" on="1"/>
        <pt x="1151" y="43" on="1"/>
        <pt x="1058" y="12" on="0"/>
        <pt x="832" y="-32" on="0"/>
        <pt x="711" y="-32" on="1"/>
        <pt x="588" y="-32" on="0"/>
        <pt x="364" y="37" on="0"/>
        <pt x="195" y="182" on="0"/>
        <pt x="95" y="404" on="0"/>
        <pt x="95" y="557" on="1"/>
        <pt x="95" y="653" on="0"/>
        <pt x="148" y="811" on="0"/>
        <pt x="240" y="936" on="0"/>
        <pt x="363" y="1029" on="0"/>
        <pt x="503" y="1090" on="0"/>
        <pt x="653" y="1122" on="0"/>
        <pt x="725" y="1122" on="1"/>
        <pt x="835" y="1122" on="0"/>
        <pt x="1005" y="1064" on="0"/>
        <pt x="1122" y="975" on="0"/>
        <pt x="1183" y="863" on="0"/>
        <pt x="1183" y="807" on="1"/>
        <pt x="1183" y="710" on="0"/>
        <pt x="1103" y="576" on="0"/>
        <pt x="976" y="512" on="0"/>
        <pt x="823" y="472" on="0"/>
        <pt x="745" y="472" on="1"/>
        <pt x="697" y="472" on="0"/>
        <pt x="581" y="481" on="0"/>
        <pt x="539" y="487" on="1"/>
        <pt x="539" y="450" on="0"/>
        <pt x="566" y="364" on="1"/>
        <pt x="581" y="316" on="0"/>
        <pt x="616" y="294" on="1"/>
        <pt x="660" y="267" on="0"/>
        <pt x="686" y="262" on="1"/>
        <pt x="764" y="249" on="0"/>
        <pt x="789" y="249" on="1"/>
        <pt x="857" y="249" on="0"/>
        <pt x="996" y="270" on="0"/>
      </contour>
      <contour>
        <pt x="539" y="631" on="1"/>
        <pt x="562" y="632" on="0"/>
        <pt x="631" y="636" on="0"/>
        <pt x="709" y="646" on="0"/>
        <pt x="786" y="664" on="0"/>
        <pt x="848" y="692" on="0"/>
        <pt x="887" y="734" on="0"/>
        <pt x="887" y="764" on="1"/>
        <pt x="887" y="822" on="0"/>
        <pt x="809" y="896" on="0"/>
        <pt x="744" y="896" on="1"/>
        <pt x="712" y="896" on="0"/>
        <pt x="642" y="875" on="0"/>
        <pt x="583" y="817" on="0"/>
        <pt x="542" y="714" on="0"/>
      </contour>
    </TTGlyph>
    <TTGlyph name="eacute" xMin="95" yMin="-32" xMax="1183" yMax="1853">
      <component glyphName="e" x="0" y="0" flags="0x1204"/>
      <component glyphName="acute" x="245" y="0" flags="0x1004"/>
    </TTGlyph>
    <TTGlyph name="ecircumflex" xMin="95" yMin="-32" xMax="1183" yMax="1792">
      <component glyphName="e" x="0" y="0" flags="0x1204"/>
      <component glyphName="circumflex" x="95" y="0" flags="0x1004"/>
    </TTGlyph>
    <TTGlyph name="edieresis" xMin="95" yMin="-32" xMax="1183" yMax="1600">
      <component glyphName="e" x="0" y="0" flags="0x1204"/>
      <component glyphName="dieresis" x="45" y="0" flags="0x1004"/>
    </TTGlyph>
    <TTGlyph name="egrave" xMin="95" yMin="-32" xMax="1183" yMax="1853">
      <component glyphName="e" x="0" y="0" flags="0x1204"/>
      <component glyphName="grave" x="341" y="0" flags="0x1004"/>
    </TTGlyph>
    <TTGlyph name="eight" xMin="96" yMin="-32" xMax="1440" yMax="1440">
      <contour>
        <pt x="1344" y="1091" on="1"/>
        <pt x="1344" y="1004" on="0"/>
        <pt x="1227" y="849" on="0"/>
        <pt x="1113" y="802" on="1"/>
        <pt x="1174" y="779" on="0"/>
        <pt x="1292" y="716" on="0"/>
        <pt x="1384" y="631" on="0"/>
        <pt x="1440" y="519" on="0"/>
        <pt x="1440" y="446" on="1"/>
        <pt x="1440" y="388" on="0"/>
        <pt x="1415" y="272" on="0"/>
        <pt x="1355" y="165" on="0"/>
        <pt x="1255" y="74" on="0"/>
        <pt x="1104" y="6" on="0"/>
        <pt x="897" y="-32" on="0"/>
        <pt x="761" y="-32" on="1"/>
        <pt x="597" y="-32" on="0"/>
        <pt x="349" y="37" on="0"/>
        <pt x="181" y="148" on="0"/>
        <pt x="96" y="287" on="0"/>
        <pt x="96" y="358" on="1"/>
        <pt x="96" y="409" on="0"/>
        <pt x="136" y="505" on="0"/>
        <pt x="215" y="589" on="0"/>
        <pt x="335" y="656" on="0"/>
        <pt x="416" y="679" on="1"/>
        <pt x="368" y="708" on="0"/>
        <pt x="286" y="781" on="0"/>
        <pt x="226" y="873" on="0"/>
        <pt x="192" y="986" on="0"/>
        <pt x="192" y="1055" on="1"/>
        <pt x="192" y="1132" on="0"/>
        <pt x="267" y="1271" on="0"/>
        <pt x="413" y="1377" on="0"/>
        <pt x="628" y="1440" on="0"/>
        <pt x="769" y="1440" on="1"/>
        <pt x="908" y="1440" on="0"/>
        <pt x="1123" y="1379" on="0"/>
        <pt x="1269" y="1280" on="0"/>
        <pt x="1344" y="1155" on="0"/>
      </contour>
      <contour>
        <pt x="711" y="559" on="1"/>
        <pt x="685" y="567" on="0"/>
        <pt x="627" y="585" on="0"/>
        <pt x="596" y="596" on="1"/>
        <pt x="557" y="568" on="0"/>
        <pt x="512" y="501" on="0"/>
        <pt x="512" y="455" on="1"/>
        <pt x="512" y="406" on="0"/>
        <pt x="541" y="341" on="0"/>
        <pt x="602" y="303" on="0"/>
        <pt x="696" y="288" on="0"/>
        <pt x="762" y="288" on="1"/>
        <pt x="822" y="288" on="0"/>
        <pt x="909" y="302" on="0"/>
        <pt x="965" y="335" on="0"/>
        <pt x="992" y="392" on="0"/>
        <pt x="992" y="435" on="1"/>
        <pt x="992" y="458" on="0"/>
        <pt x="949" y="489" on="0"/>
        <pt x="873" y="515" on="0"/>
        <pt x="771" y="541" on="0"/>
      </contour>
      <contour>
        <pt x="769" y="1162" on="1"/>
        <pt x="694" y="1162" on="0"/>
        <pt x="608" y="1099" on="0"/>
        <pt x="608" y="1057" on="1"/>
        <pt x="608" y="1022" on="0"/>
        <pt x="646" y="965" on="0"/>
        <pt x="715" y="917" on="0"/>
        <pt x="808" y="879" on="0"/>
        <pt x="864" y="864" on="1"/>
        <pt x="890" y="891" on="0"/>
        <pt x="928" y="972" on="0"/>
        <pt x="928" y="1017" on="1"/>
        <pt x="928" y="1044" on="0"/>
        <pt x="906" y="1093" on="0"/>
        <pt x="866" y="1130" on="0"/>
        <pt x="806" y="1162" on="0"/>
      </contour>
    </TTGlyph>
    <TTGlyph name="ellipsis" xMin="132" yMin="-27" xMax="2006" yMax="434">
      <contour>
        <pt x="1729" y="-27" on="1"/>
        <pt x="1660" y="-27" on="0"/>
        <pt x="1556" y="11" on="0"/>
        <pt x="1488" y="74" on="0"/>
        <pt x="1454" y="155" on="0"/>
        <pt x="1454" y="197" on="1"/>
        <pt x="1454" y="241" on="0"/>
        <pt x="1490" y="326" on="0"/>
        <pt x="1559" y="393" on="0"/>
        <pt x="1662" y="434" on="0"/>
        <pt x="1730" y="434" on="1"/>
        <pt x="1797" y="434" on="0"/>
        <pt x="1901" y="393" on="0"/>
        <pt x="1970" y="326" on="0"/>
        <pt x="2006" y="241" on="0"/>
        <pt x="2006" y="198" on="1"/>
        <pt x="2006" y="155" on="0"/>
        <pt x="1972" y="74" on="0"/>
        <pt x="1903" y="11" on="0"/>
        <pt x="1799" y="-27" on="0"/>
      </contour>
      <contour>
        <pt x="407" y="-27" on="1"/>
        <pt x="338" y="-27" on="0"/>
        <pt x="234" y="11" on="0"/>
        <pt x="166" y="74" on="0"/>
        <pt x="132" y="155" on="0"/>
        <pt x="132" y="197" on="1"/>
        <pt x="132" y="241" on="0"/>
        <pt x="168" y="326" on="0"/>
        <pt x="237" y="393" on="0"/>
        <pt x="340" y="434" on="0"/>
        <pt x="408" y="434" on="1"/>
        <pt x="475" y="434" on="0"/>
        <pt x="579" y="393" on="0"/>
        <pt x="648" y="326" on="0"/>
        <pt x="684" y="241" on="0"/>
        <pt x="684" y="198" on="1"/>
        <pt x="684" y="155" on="0"/>
        <pt x="650" y="74" on="0"/>
        <pt x="581" y="11" on="0"/>
        <pt x="477" y="-27" on="0"/>
      </contour>
      <contour>
        <pt x="1075" y="-27" on="1"/>
        <pt x="1006" y="-27" on="0"/>
        <pt x="902" y="11" on="0"/>
        <pt x="834" y="74" on="0"/>
        <pt x="800" y="155" on="0"/>
        <pt x="800" y="197" on="1"/>
        <pt x="800" y="241" on="0"/>
        <pt x="836" y="326" on="0"/>
        <pt x="905" y="393" on="0"/>
        <pt x="1008" y="434" on="0"/>
        <pt x="1076" y="434" on="1"/>
        <pt x="1143" y="434" on="0"/>
        <pt x="1247" y="393" on="0"/>
        <pt x="1316" y="326" on="0"/>
        <pt x="1352" y="241" on="0"/>
        <pt x="1352" y="198" on="1"/>
        <pt x="1352" y="155" on="0"/>
        <pt x="1318" y="74" on="0"/>
        <pt x="1249" y="11" on="0"/>
        <pt x="1145" y="-27" on="0"/>
      </contour>
    </TTGlyph>
    <TTGlyph name="emdash" xMin="0" yMin="512" xMax="992" yMax="832">
      <contour>
        <pt x="992" y="832" on="1"/>
        <pt x="992" y="512" on="1"/>
        <pt x="0" y="512" on="1"/>
        <pt x="0" y="832" on="1"/>
      </contour>
    </TTGlyph>
    <TTGlyph name="endash" xMin="96" yMin="512" xMax="896" yMax="832">
      <contour>
        <pt x="896" y="832" on="1"/>
        <pt x="896" y="512" on="1"/>
        <pt x="96" y="512" on="1"/>
        <pt x="96" y="832" on="1"/>
      </contour>
    </TTGlyph>
    <TTGlyph name="equal" xMin="192" yMin="263" xMax="896" yMax="928">
      <contour>
        <pt x="896" y="519" on="1"/>
        <pt x="896" y="263" on="1"/>
        <pt x="192" y="263" on="1"/>
        <pt x="192" y="519" on="1"/>
      </contour>
      <contour>
        <pt x="896" y="928" on="1"/>
        <pt x="896" y="672" on="1"/>
        <pt x="192" y="672" on="1"/>
        <pt x="192" y="928" on="1"/>
      </contour>
    </TTGlyph>
    <TTGlyph name="eth" xMin="96" yMin="-32" xMax="1449" yMax="1441">
      <contour>
        <pt x="777" y="1105" on="1"/>
        <pt x="777" y="1105" on="0"/>
        <pt x="712" y="1133" on="1"/>
        <pt x="621" y="1144" on="0"/>
        <pt x="614" y="1144" on="1"/>
        <pt x="540" y="1144" on="0"/>
        <pt x="423" y="1118" on="0"/>
        <pt x="335" y="1097" on="0"/>
        <pt x="274" y="1076" on="0"/>
        <pt x="256" y="1070" on="1"/>
        <pt x="224" y="1377" on="1"/>
        <pt x="392" y="1441" on="0"/>
        <pt x="636" y="1441" on="1"/>
        <pt x="724" y="1441" on="0"/>
        <pt x="869" y="1418" on="0"/>
        <pt x="988" y="1374" on="0"/>
        <pt x="1082" y="1311" on="0"/>
        <pt x="1118" y="1271" on="1"/>
        <pt x="1367" y="1373" on="1"/>
        <pt x="1449" y="1195" on="1"/>
        <pt x="1211" y="1098" on="1"/>
        <pt x="1243" y="1006" on="0"/>
        <pt x="1280" y="780" on="0"/>
        <pt x="1280" y="663" on="1"/>
        <pt x="1280" y="569" on="0"/>
        <pt x="1260" y="392" on="0"/>
        <pt x="1208" y="238" on="0"/>
        <pt x="1118" y="110" on="0"/>
        <pt x="976" y="18" on="0"/>
        <pt x="778" y="-32" on="0"/>
        <pt x="645" y="-32" on="1"/>
        <pt x="535" y="-32" on="0"/>
        <pt x="368" y="3" on="0"/>
        <pt x="246" y="65" on="0"/>
        <pt x="165" y="149" on="0"/>
        <pt x="116" y="246" on="0"/>
        <pt x="96" y="352" on="0"/>
        <pt x="96" y="406" on="1"/>
        <pt x="96" y="509" on="0"/>
        <pt x="171" y="638" on="0"/>
        <pt x="297" y="746" on="0"/>
        <pt x="464" y="802" on="0"/>
        <pt x="556" y="802" on="1"/>
        <pt x="631" y="802" on="0"/>
        <pt x="789" y="767" on="0"/>
        <pt x="864" y="738" on="1"/>
        <pt x="864" y="781" on="0"/>
        <pt x="846" y="910" on="0"/>
        <pt x="839" y="941" on="1"/>
        <pt x="681" y="855" on="1"/>
        <pt x="591" y="991" on="1"/>
      </contour>
      <contour>
        <pt x="672" y="577" on="1"/>
        <pt x="618" y="577" on="0"/>
        <pt x="545" y="550" on="0"/>
        <pt x="500" y="503" on="0"/>
        <pt x="480" y="442" on="0"/>
        <pt x="480" y="409" on="1"/>
        <pt x="480" y="376" on="0"/>
        <pt x="499" y="310" on="0"/>
        <pt x="538" y="257" on="0"/>
        <pt x="598" y="225" on="0"/>
        <pt x="640" y="225" on="1"/>
        <pt x="694" y="225" on="0"/>
        <pt x="777" y="245" on="0"/>
        <pt x="834" y="317" on="0"/>
        <pt x="864" y="457" on="0"/>
        <pt x="864" y="577" on="1"/>
      </contour>
    </TTGlyph>
    <TTGlyph name="exclam" xMin="160" yMin="-32" xMax="673" yMax="1414">
      <contour>
        <pt x="192" y="1414" on="1"/>
        <pt x="640" y="1414" on="1"/>
        <pt x="576" y="512" on="1"/>
        <pt x="256" y="512" on="1"/>
      </contour>
      <contour>
        <pt x="416" y="-32" on="1"/>
        <pt x="351" y="-32" on="0"/>
        <pt x="254" y="2" on="0"/>
        <pt x="191" y="56" on="0"/>
        <pt x="160" y="124" on="0"/>
        <pt x="160" y="159" on="1"/>
        <pt x="160" y="195" on="0"/>
        <pt x="193" y="264" on="0"/>
        <pt x="257" y="319" on="0"/>
        <pt x="353" y="352" on="0"/>
        <pt x="416" y="352" on="1"/>
        <pt x="479" y="352" on="0"/>
        <pt x="575" y="319" on="0"/>
        <pt x="640" y="265" on="0"/>
        <pt x="673" y="196" on="0"/>
        <pt x="673" y="160" on="1"/>
        <pt x="673" y="125" on="0"/>
        <pt x="642" y="56" on="0"/>
        <pt x="578" y="2" on="0"/>
        <pt x="482" y="-32" on="0"/>
      </contour>
    </TTGlyph>
    <TTGlyph name="exclamdown" xMin="160" yMin="18" xMax="673" yMax="1458">
      <contour>
        <pt x="192" y="18" on="1"/>
        <pt x="256" y="914" on="1"/>
        <pt x="576" y="914" on="1"/>
        <pt x="640" y="18" on="1"/>
      </contour>
      <contour>
        <pt x="416" y="1458" on="1"/>
        <pt x="482" y="1458" on="0"/>
        <pt x="578" y="1424" on="0"/>
        <pt x="610" y="1397" on="1"/>
        <pt x="644" y="1368" on="0"/>
        <pt x="658" y="1336" on="1"/>
        <pt x="673" y="1301" on="0"/>
        <pt x="673" y="1266" on="1"/>
        <pt x="673" y="1233" on="0"/>
        <pt x="656" y="1196" on="1"/>
        <pt x="639" y="1160" on="0"/>
        <pt x="608" y="1134" on="1"/>
        <pt x="577" y="1109" on="0"/>
        <pt x="527" y="1091" on="1"/>
        <pt x="479" y="1074" on="0"/>
        <pt x="416" y="1074" on="1"/>
        <pt x="356" y="1074" on="0"/>
        <pt x="305" y="1091" on="1"/>
        <pt x="259" y="1106" on="0"/>
        <pt x="225" y="1135" on="1"/>
        <pt x="192" y="1163" on="0"/>
        <pt x="160" y="1231" on="0"/>
        <pt x="160" y="1267" on="1"/>
        <pt x="160" y="1302" on="0"/>
        <pt x="176" y="1336" on="1"/>
        <pt x="191" y="1370" on="0"/>
        <pt x="254" y="1424" on="0"/>
        <pt x="351" y="1458" on="0"/>
      </contour>
    </TTGlyph>
    <TTGlyph name="f" xMin="51" yMin="0" xMax="992" yMax="1568">
      <contour>
        <pt x="640" y="0" on="1"/>
        <pt x="224" y="0" on="1"/>
        <pt x="224" y="832" on="1"/>
        <pt x="53" y="832" on="1"/>
        <pt x="52" y="1079" on="1"/>
        <pt x="222" y="1079" on="1"/>
        <pt x="224" y="1119" on="1"/>
        <pt x="229" y="1258" on="0"/>
        <pt x="262" y="1332" on="1"/>
        <pt x="301" y="1418" on="0"/>
        <pt x="431" y="1523" on="0"/>
        <pt x="599" y="1568" on="0"/>
        <pt x="691" y="1568" on="1"/>
        <pt x="779" y="1568" on="0"/>
        <pt x="929" y="1530" on="0"/>
        <pt x="992" y="1504" on="1"/>
        <pt x="960" y="1247" on="1"/>
        <pt x="931" y="1254" on="0"/>
        <pt x="884" y="1266" on="0"/>
        <pt x="843" y="1275" on="0"/>
        <pt x="807" y="1280" on="0"/>
        <pt x="789" y="1280" on="1"/>
        <pt x="752" y="1280" on="0"/>
        <pt x="696" y="1262" on="0"/>
        <pt x="659" y="1222" on="0"/>
        <pt x="650" y="1188" on="1"/>
        <pt x="644" y="1167" on="0"/>
        <pt x="640" y="1105" on="1"/>
        <pt x="638" y="1079" on="1"/>
        <pt x="958" y="1079" on="1"/>
        <pt x="944" y="1013" on="0"/>
        <pt x="928" y="896" on="0"/>
        <pt x="928" y="832" on="1"/>
        <pt x="640" y="832" on="1"/>
      </contour>
    </TTGlyph>
    <TTGlyph name="ff" xMin="53" yMin="0" xMax="1732" yMax="1568">
      <contour>
        <pt x="789" y="1280" on="1"/>
        <pt x="752" y="1280" on="0"/>
        <pt x="696" y="1262" on="0"/>
        <pt x="659" y="1222" on="0"/>
        <pt x="640" y="1154" on="0"/>
        <pt x="640" y="1105" on="1"/>
        <pt x="640" y="1088" on="1"/>
        <pt x="793" y="1088" on="1"/>
        <pt x="960" y="1088" on="1"/>
        <pt x="964" y="1088" on="1"/>
        <pt x="964" y="1119" on="1"/>
        <pt x="964" y="1246" on="0"/>
        <pt x="1041" y="1418" on="0"/>
        <pt x="1171" y="1523" on="0"/>
        <pt x="1339" y="1568" on="0"/>
        <pt x="1431" y="1568" on="1"/>
        <pt x="1519" y="1568" on="0"/>
        <pt x="1669" y="1530" on="0"/>
        <pt x="1732" y="1504" on="1"/>
        <pt x="1700" y="1247" on="1"/>
        <pt x="1671" y="1254" on="0"/>
        <pt x="1624" y="1266" on="0"/>
        <pt x="1583" y="1275" on="0"/>
        <pt x="1547" y="1280" on="0"/>
        <pt x="1529" y="1280" on="1"/>
        <pt x="1492" y="1280" on="0"/>
        <pt x="1436" y="1262" on="0"/>
        <pt x="1399" y="1222" on="0"/>
        <pt x="1380" y="1154" on="0"/>
        <pt x="1380" y="1105" on="1"/>
        <pt x="1380" y="1088" on="1"/>
        <pt x="1700" y="1088" on="1"/>
        <pt x="1686" y="1022" on="0"/>
        <pt x="1668" y="896" on="0"/>
        <pt x="1668" y="832" on="1"/>
        <pt x="1380" y="832" on="1"/>
        <pt x="1380" y="0" on="1"/>
        <pt x="964" y="0" on="1"/>
        <pt x="964" y="832" on="1"/>
        <pt x="928" y="832" on="1"/>
        <pt x="793" y="832" on="1"/>
        <pt x="640" y="832" on="1"/>
        <pt x="640" y="0" on="1"/>
        <pt x="224" y="0" on="1"/>
        <pt x="224" y="832" on="1"/>
        <pt x="53" y="832" on="1"/>
        <pt x="53" y="1088" on="1"/>
        <pt x="224" y="1088" on="1"/>
        <pt x="224" y="1119" on="1"/>
        <pt x="224" y="1246" on="0"/>
        <pt x="301" y="1418" on="0"/>
        <pt x="431" y="1523" on="0"/>
        <pt x="599" y="1568" on="0"/>
        <pt x="691" y="1568" on="1"/>
        <pt x="779" y="1568" on="0"/>
        <pt x="898" y="1530" on="0"/>
        <pt x="961" y="1504" on="1"/>
        <pt x="929" y="1247" on="1"/>
        <pt x="837" y="1280" on="0"/>
      </contour>
    </TTGlyph>
    <TTGlyph name="fi" xMin="79" yMin="0" xMax="1681" yMax="1581">
      <contour>
        <pt x="656" y="0" on="1"/>
        <pt x="232" y="0" on="1"/>
        <pt x="232" y="832" on="1"/>
        <pt x="79" y="832" on="1"/>
        <pt x="79" y="1088" on="1"/>
        <pt x="232" y="1088" on="1"/>
        <pt x="232" y="1119" on="1"/>
        <pt x="232" y="1246" on="0"/>
        <pt x="309" y="1417" on="0"/>
        <pt x="439" y="1522" on="0"/>
        <pt x="607" y="1567" on="0"/>
        <pt x="699" y="1567" on="1"/>
        <pt x="787" y="1567" on="0"/>
        <pt x="945" y="1532" on="0"/>
        <pt x="1008" y="1506" on="1"/>
        <pt x="987" y="1247" on="1"/>
        <pt x="928" y="1261" on="0"/>
        <pt x="834" y="1280" on="0"/>
        <pt x="797" y="1280" on="1"/>
        <pt x="760" y="1280" on="0"/>
        <pt x="707" y="1262" on="0"/>
        <pt x="672" y="1222" on="0"/>
        <pt x="656" y="1154" on="0"/>
        <pt x="656" y="1105" on="1"/>
        <pt x="656" y="1088" on="1"/>
        <pt x="1600" y="1088" on="1"/>
        <pt x="1600" y="0" on="1"/>
        <pt x="1200" y="0" on="1"/>
        <pt x="1200" y="832" on="1"/>
        <pt x="656" y="832" on="1"/>
      </contour>
      <contour>
        <pt x="1405" y="1243" on="1"/>
        <pt x="1348" y="1243" on="0"/>
        <pt x="1248" y="1262" on="0"/>
        <pt x="1175" y="1301" on="0"/>
        <pt x="1132" y="1360" on="0"/>
        <pt x="1132" y="1401" on="1"/>
        <pt x="1132" y="1452" on="0"/>
        <pt x="1174" y="1521" on="0"/>
        <pt x="1248" y="1563" on="0"/>
        <pt x="1348" y="1581" on="0"/>
        <pt x="1406" y="1581" on="1"/>
        <pt x="1464" y="1581" on="0"/>
        <pt x="1565" y="1563" on="0"/>
        <pt x="1639" y="1521" on="0"/>
        <pt x="1681" y="1452" on="0"/>
        <pt x="1681" y="1401" on="1"/>
        <pt x="1681" y="1360" on="0"/>
        <pt x="1638" y="1301" on="0"/>
        <pt x="1564" y="1262" on="0"/>
        <pt x="1463" y="1243" on="0"/>
      </contour>
    </TTGlyph>
    <TTGlyph name="five" xMin="128" yMin="-32" xMax="1280" yMax="1414">
      <contour>
        <pt x="160" y="642" on="1"/>
        <pt x="256" y="1414" on="1"/>
        <pt x="1184" y="1414" on="1"/>
        <pt x="1152" y="1122" on="1"/>
        <pt x="576" y="1122" on="1"/>
        <pt x="512" y="832" on="1"/>
        <pt x="534" y="856" on="0"/>
        <pt x="612" y="892" on="0"/>
        <pt x="701" y="916" on="0"/>
        <pt x="791" y="928" on="0"/>
        <pt x="826" y="928" on="1"/>
        <pt x="914" y="928" on="0"/>
        <pt x="1078" y="869" on="0"/>
        <pt x="1189" y="774" on="0"/>
        <pt x="1280" y="608" on="0"/>
        <pt x="1280" y="501" on="1"/>
        <pt x="1280" y="406" on="0"/>
        <pt x="1213" y="221" on="0"/>
        <pt x="1100" y="57" on="0"/>
        <pt x="882" y="-32" on="0"/>
        <pt x="717" y="-32" on="1"/>
        <pt x="568" y="-32" on="0"/>
        <pt x="359" y="36" on="0"/>
        <pt x="221" y="156" on="0"/>
        <pt x="144" y="299" on="0"/>
        <pt x="128" y="395" on="1"/>
        <pt x="544" y="395" on="1"/>
        <pt x="550" y="340" on="0"/>
        <pt x="580" y="298" on="0"/>
        <pt x="626" y="265" on="0"/>
        <pt x="685" y="256" on="0"/>
        <pt x="718" y="256" on="1"/>
        <pt x="755" y="256" on="0"/>
        <pt x="810" y="296" on="0"/>
        <pt x="846" y="360" on="0"/>
        <pt x="864" y="443" on="0"/>
        <pt x="864" y="485" on="1"/>
        <pt x="864" y="515" on="0"/>
        <pt x="842" y="571" on="0"/>
        <pt x="795" y="614" on="0"/>
        <pt x="723" y="640" on="0"/>
        <pt x="672" y="640" on="1"/>
        <pt x="619" y="640" on="0"/>
        <pt x="515" y="605" on="0"/>
        <pt x="480" y="576" on="1"/>
      </contour>
    </TTGlyph>
    <TTGlyph name="fl" xMin="79" yMin="0" xMax="1600" yMax="1566">
      <contour>
        <pt x="1600" y="1566" on="1"/>
        <pt x="1600" y="0" on="1"/>
        <pt x="1200" y="0" on="1"/>
        <pt x="1200" y="1280" on="1"/>
        <pt x="797" y="1280" on="1"/>
        <pt x="760" y="1280" on="0"/>
        <pt x="707" y="1262" on="0"/>
        <pt x="672" y="1222" on="0"/>
        <pt x="656" y="1154" on="0"/>
        <pt x="656" y="1105" on="1"/>
        <pt x="656" y="1088" on="1"/>
        <pt x="979" y="1088" on="1"/>
        <pt x="965" y="1022" on="0"/>
        <pt x="954" y="896" on="0"/>
        <pt x="954" y="832" on="1"/>
        <pt x="656" y="832" on="1"/>
        <pt x="656" y="0" on="1"/>
        <pt x="232" y="0" on="1"/>
        <pt x="232" y="832" on="1"/>
        <pt x="79" y="832" on="1"/>
        <pt x="79" y="1088" on="1"/>
        <pt x="232" y="1088" on="1"/>
        <pt x="232" y="1119" on="1"/>
        <pt x="232" y="1246" on="0"/>
        <pt x="309" y="1417" on="0"/>
        <pt x="439" y="1522" on="0"/>
        <pt x="607" y="1566" on="0"/>
        <pt x="699" y="1566" on="1"/>
      </contour>
    </TTGlyph>
    <TTGlyph name="florin" xMin="-84" yMin="-438" xMax="938" yMax="1749">
      <contour>
        <pt x="600" y="32" on="1"/>
        <pt x="600" y="-101" on="0"/>
        <pt x="527" y="-281" on="0"/>
        <pt x="407" y="-391" on="0"/>
        <pt x="253" y="-438" on="0"/>
        <pt x="172" y="-438" on="1"/>
        <pt x="102" y="-438" on="0"/>
        <pt x="-33" y="-410" on="0"/>
        <pt x="-84" y="-387" on="1"/>
        <pt x="-84" y="-385" on="0"/>
        <pt x="-81" y="-343" on="0"/>
        <pt x="-77" y="-282" on="0"/>
        <pt x="-71" y="-211" on="0"/>
        <pt x="-66" y="-149" on="0"/>
        <pt x="-63" y="-107" on="0"/>
        <pt x="-63" y="-105" on="1"/>
        <pt x="2" y="-127" on="0"/>
        <pt x="42" y="-127" on="1"/>
        <pt x="89" y="-127" on="0"/>
        <pt x="150" y="-96" on="0"/>
        <pt x="186" y="-45" on="0"/>
        <pt x="200" y="21" on="0"/>
        <pt x="200" y="57" on="1"/>
        <pt x="200" y="838" on="1"/>
        <pt x="53" y="838" on="1"/>
        <pt x="53" y="1110" on="1"/>
        <pt x="200" y="1110" on="1"/>
        <pt x="200" y="1301" on="1"/>
        <pt x="200" y="1428" on="0"/>
        <pt x="273" y="1599" on="0"/>
        <pt x="391" y="1704" on="0"/>
        <pt x="543" y="1749" on="0"/>
        <pt x="622" y="1749" on="1"/>
        <pt x="629" y="1749" on="1"/>
        <pt x="716" y="1749" on="0"/>
        <pt x="875" y="1714" on="0"/>
        <pt x="938" y="1688" on="1"/>
        <pt x="938" y="1686" on="0"/>
        <pt x="935" y="1644" on="0"/>
        <pt x="930" y="1582" on="0"/>
        <pt x="924" y="1511" on="0"/>
        <pt x="920" y="1450" on="0"/>
        <pt x="917" y="1408" on="0"/>
        <pt x="917" y="1406" on="1"/>
        <pt x="866" y="1421" on="0"/>
        <pt x="784" y="1438" on="0"/>
        <pt x="752" y="1438" on="1"/>
        <pt x="698" y="1438" on="0"/>
        <pt x="637" y="1397" on="0"/>
        <pt x="607" y="1329" on="0"/>
        <pt x="600" y="1241" on="0"/>
        <pt x="600" y="1195" on="1"/>
        <pt x="600" y="1110" on="1"/>
        <pt x="909" y="1110" on="1"/>
        <pt x="901" y="1069" on="0"/>
        <pt x="896" y="1024" on="1"/>
        <pt x="891" y="986" on="0"/>
        <pt x="884" y="889" on="0"/>
        <pt x="884" y="838" on="1"/>
        <pt x="600" y="838" on="1"/>
      </contour>
    </TTGlyph>
    <TTGlyph name="four" xMin="96" yMin="0" xMax="1290" yMax="1414">
      <contour>
        <pt x="1120" y="608" on="1"/>
        <pt x="1290" y="608" on="1"/>
        <pt x="1290" y="288" on="1"/>
        <pt x="1120" y="288" on="1"/>
        <pt x="1120" y="0" on="1"/>
        <pt x="704" y="0" on="1"/>
        <pt x="704" y="288" on="1"/>
        <pt x="96" y="288" on="1"/>
        <pt x="96" y="608" on="1"/>
        <pt x="448" y="1414" on="1"/>
        <pt x="1120" y="1414" on="1"/>
      </contour>
      <contour>
        <pt x="635" y="1120" on="1"/>
        <pt x="440" y="608" on="1"/>
        <pt x="704" y="608" on="1"/>
        <pt x="704" y="1120" on="1"/>
      </contour>
    </TTGlyph>
    <TTGlyph name="foursuperior" xMin="100" yMin="305" xMax="1219" yMax="1414">
      <contour>
        <pt x="1044" y="748" on="1"/>
        <pt x="1219" y="748" on="1"/>
        <pt x="1219" y="509" on="1"/>
        <pt x="1044" y="509" on="1"/>
        <pt x="1044" y="305" on="1"/>
        <pt x="602" y="305" on="1"/>
        <pt x="602" y="509" on="1"/>
        <pt x="100" y="509" on="1"/>
        <pt x="100" y="748" on="1"/>
        <pt x="448" y="1414" on="1"/>
        <pt x="1044" y="1414" on="1"/>
      </contour>
      <contour>
        <pt x="638" y="1195" on="1"/>
        <pt x="397" y="748" on="1"/>
        <pt x="662" y="748" on="1"/>
        <pt x="662" y="1195" on="1"/>
      </contour>
    </TTGlyph>
    <TTGlyph name="fraction" xMin="26" yMin="0" xMax="967" yMax="1426">
      <contour>
        <pt x="967" y="1426" on="1"/>
        <pt x="443" y="0" on="1"/>
        <pt x="26" y="0" on="1"/>
        <pt x="525" y="1426" on="1"/>
      </contour>
    </TTGlyph>
    <TTGlyph name="g" xMin="88" yMin="-513" xMax="1368" yMax="1122">
      <contour>
        <pt x="952" y="219" on="1"/>
        <pt x="825" y="73" on="0"/>
        <pt x="674" y="64" on="1"/>
        <pt x="640" y="63" on="0"/>
        <pt x="609" y="63" on="1"/>
        <pt x="501" y="63" on="0"/>
        <pt x="426" y="85" on="1"/>
        <pt x="329" y="114" on="0"/>
        <pt x="179" y="216" on="0"/>
        <pt x="88" y="415" on="0"/>
        <pt x="88" y="555" on="1"/>
        <pt x="88" y="711" on="0"/>
        <pt x="170" y="927" on="0"/>
        <pt x="303" y="1061" on="0"/>
        <pt x="470" y="1122" on="0"/>
        <pt x="555" y="1122" on="1"/>
        <pt x="617" y="1122" on="0"/>
        <pt x="732" y="1086" on="0"/>
        <pt x="841" y="1029" on="0"/>
        <pt x="949" y="933" on="0"/>
        <pt x="976" y="868" on="1"/>
        <pt x="976" y="898" on="0"/>
        <pt x="972" y="963" on="0"/>
        <pt x="969" y="1012" on="0"/>
        <pt x="962" y="1061" on="0"/>
        <pt x="954" y="1088" on="1"/>
        <pt x="1368" y="1088" on="1"/>
        <pt x="1368" y="182" on="1"/>
        <pt x="1368" y="8" on="0"/>
        <pt x="1277" y="-242" on="0"/>
        <pt x="1121" y="-404" on="0"/>
        <pt x="914" y="-513" on="0"/>
        <pt x="798" y="-513" on="1"/>
        <pt x="680" y="-513" on="0"/>
        <pt x="457" y="-487" on="0"/>
        <pt x="357" y="-465" on="1"/>
        <pt x="387" y="-168" on="1"/>
        <pt x="445" y="-179" on="0"/>
        <pt x="500" y="-188" on="1"/>
        <pt x="547" y="-196" on="0"/>
        <pt x="645" y="-208" on="0"/>
        <pt x="679" y="-208" on="1"/>
        <pt x="765" y="-208" on="0"/>
        <pt x="872" y="-154" on="0"/>
        <pt x="931" y="-13" on="0"/>
        <pt x="952" y="114" on="0"/>
        <pt x="952" y="186" on="1"/>
      </contour>
      <contour>
        <pt x="770" y="300" on="1"/>
        <pt x="821" y="300" on="0"/>
        <pt x="891" y="348" on="0"/>
        <pt x="934" y="423" on="0"/>
        <pt x="952" y="515" on="0"/>
        <pt x="952" y="559" on="1"/>
        <pt x="952" y="637" on="0"/>
        <pt x="923" y="745" on="0"/>
        <pt x="873" y="812" on="0"/>
        <pt x="806" y="843" on="0"/>
        <pt x="769" y="843" on="1"/>
        <pt x="752" y="843" on="0"/>
        <pt x="709" y="840" on="0"/>
        <pt x="664" y="823" on="0"/>
        <pt x="622" y="788" on="0"/>
        <pt x="588" y="724" on="0"/>
        <pt x="568" y="626" on="0"/>
        <pt x="568" y="555" on="1"/>
        <pt x="568" y="466" on="0"/>
        <pt x="612" y="364" on="0"/>
        <pt x="675" y="313" on="0"/>
        <pt x="744" y="300" on="0"/>
      </contour>
    </TTGlyph>
    <TTGlyph name="germandbls" xMin="199" yMin="-50" xMax="1531" yMax="1426">
      <contour>
        <pt x="648" y="0" on="1"/>
        <pt x="200" y="0" on="1"/>
        <pt x="199" y="993" on="1"/>
        <pt x="199" y="1083" on="0"/>
        <pt x="226" y="1150" on="1"/>
        <pt x="252" y="1217" on="0"/>
        <pt x="343" y="1313" on="0"/>
        <pt x="464" y="1376" on="0"/>
        <pt x="599" y="1412" on="0"/>
        <pt x="749" y="1426" on="0"/>
        <pt x="815" y="1426" on="1"/>
        <pt x="966" y="1426" on="0"/>
        <pt x="1183" y="1365" on="0"/>
        <pt x="1322" y="1266" on="0"/>
        <pt x="1387" y="1140" on="0"/>
        <pt x="1387" y="1074" on="1"/>
        <pt x="1387" y="1026" on="0"/>
        <pt x="1354" y="933" on="0"/>
        <pt x="1292" y="851" on="0"/>
        <pt x="1202" y="784" on="0"/>
        <pt x="1144" y="762" on="1"/>
        <pt x="1237" y="752" on="0"/>
        <pt x="1381" y="686" on="0"/>
        <pt x="1480" y="589" on="0"/>
        <pt x="1531" y="469" on="0"/>
        <pt x="1531" y="405" on="1"/>
        <pt x="1531" y="323" on="0"/>
        <pt x="1443" y="161" on="0"/>
        <pt x="1258" y="31" on="0"/>
        <pt x="973" y="-50" on="0"/>
        <pt x="777" y="-50" on="1"/>
        <pt x="777" y="200" on="1"/>
        <pt x="859" y="200" on="0"/>
        <pt x="981" y="233" on="0"/>
        <pt x="1063" y="288" on="0"/>
        <pt x="1104" y="358" on="0"/>
        <pt x="1104" y="394" on="1"/>
        <pt x="1104" y="429" on="0"/>
        <pt x="1065" y="497" on="0"/>
        <pt x="987" y="550" on="0"/>
        <pt x="870" y="582" on="0"/>
        <pt x="793" y="582" on="1"/>
        <pt x="793" y="828" on="1"/>
        <pt x="855" y="828" on="0"/>
        <pt x="945" y="857" on="0"/>
        <pt x="1003" y="904" on="0"/>
        <pt x="1030" y="964" on="0"/>
        <pt x="1030" y="995" on="1"/>
        <pt x="1030" y="1073" on="0"/>
        <pt x="948" y="1165" on="0"/>
        <pt x="867" y="1165" on="1"/>
        <pt x="764" y="1165" on="0"/>
        <pt x="649" y="1073" on="0"/>
        <pt x="649" y="995" on="1"/>
      </contour>
    </TTGlyph>
    <TTGlyph name="grave" xMin="32" yMin="1219" xMax="576" yMax="1853">
      <contour>
        <pt x="288" y="1219" on="1"/>
        <pt x="32" y="1853" on="1"/>
        <pt x="480" y="1853" on="1"/>
        <pt x="576" y="1219" on="1"/>
      </contour>
    </TTGlyph>
    <TTGlyph name="greater" xMin="89" yMin="384" xMax="783" yMax="1280">
      <contour>
        <pt x="783" y="640" on="1"/>
        <pt x="89" y="384" on="1"/>
        <pt x="89" y="704" on="1"/>
        <pt x="601" y="832" on="1"/>
        <pt x="89" y="960" on="1"/>
        <pt x="89" y="1280" on="1"/>
        <pt x="783" y="1024" on="1"/>
      </contour>
    </TTGlyph>
    <TTGlyph name="greaterequal" xMin="89" yMin="0" xMax="783" yMax="1280">
      <contour>
        <pt x="783" y="258" on="1"/>
        <pt x="783" y="0" on="1"/>
        <pt x="89" y="0" on="1"/>
        <pt x="89" y="258" on="1"/>
      </contour>
      <contour>
        <pt x="783" y="640" on="1"/>
        <pt x="89" y="384" on="1"/>
        <pt x="89" y="704" on="1"/>
        <pt x="601" y="832" on="1"/>
        <pt x="89" y="960" on="1"/>
        <pt x="89" y="1280" on="1"/>
        <pt x="783" y="1024" on="1"/>
      </contour>
    </TTGlyph>
    <TTGlyph name="guillemotleft" xMin="96" yMin="200" xMax="1056" yMax="1300">
      <contour>
        <pt x="544" y="200" on="1"/>
        <pt x="96" y="600" on="1"/>
        <pt x="96" y="900" on="1"/>
        <pt x="544" y="1300" on="1"/>
        <pt x="544" y="900" on="1"/>
        <pt x="368" y="750" on="1"/>
        <pt x="544" y="600" on="1"/>
      </contour>
      <contour>
        <pt x="1056" y="200" on="1"/>
        <pt x="608" y="600" on="1"/>
        <pt x="608" y="900" on="1"/>
        <pt x="1056" y="1300" on="1"/>
        <pt x="1056" y="900" on="1"/>
        <pt x="880" y="750" on="1"/>
        <pt x="1056" y="600" on="1"/>
      </contour>
    </TTGlyph>
    <TTGlyph name="guillemotright" xMin="96" yMin="200" xMax="1056" yMax="1300">
      <contour>
        <pt x="608" y="600" on="1"/>
        <pt x="784" y="750" on="1"/>
        <pt x="608" y="900" on="1"/>
        <pt x="608" y="1300" on="1"/>
        <pt x="1056" y="900" on="1"/>
        <pt x="1056" y="600" on="1"/>
        <pt x="608" y="200" on="1"/>
      </contour>
      <contour>
        <pt x="96" y="600" on="1"/>
        <pt x="272" y="750" on="1"/>
        <pt x="96" y="900" on="1"/>
        <pt x="96" y="1300" on="1"/>
        <pt x="544" y="900" on="1"/>
        <pt x="544" y="600" on="1"/>
        <pt x="96" y="200" on="1"/>
      </contour>
    </TTGlyph>
    <TTGlyph name="guilsinglleft" xMin="100" yMin="200" xMax="700" yMax="1300">
      <contour>
        <pt x="700" y="200" on="1"/>
        <pt x="100" y="600" on="1"/>
        <pt x="100" y="900" on="1"/>
        <pt x="700" y="1300" on="1"/>
        <pt x="700" y="900" on="1"/>
        <pt x="372" y="750" on="1"/>
        <pt x="700" y="600" on="1"/>
      </contour>
    </TTGlyph>
    <TTGlyph name="guilsinglright" xMin="100" yMin="200" xMax="700" yMax="1300">
      <contour>
        <pt x="100" y="600" on="1"/>
        <pt x="428" y="750" on="1"/>
        <pt x="100" y="900" on="1"/>
        <pt x="100" y="1300" on="1"/>
        <pt x="700" y="900" on="1"/>
        <pt x="700" y="600" on="1"/>
        <pt x="100" y="200" on="1"/>
      </contour>
    </TTGlyph>
    <TTGlyph name="h" xMin="160" yMin="0" xMax="1376" yMax="1536">
      <contour>
        <pt x="160" y="1536" on="1"/>
        <pt x="608" y="1536" on="1"/>
        <pt x="608" y="931" on="1"/>
        <pt x="637" y="975" on="0"/>
        <pt x="725" y="1045" on="0"/>
        <pt x="830" y="1094" on="0"/>
        <pt x="948" y="1122" on="0"/>
        <pt x="1007" y="1122" on="1"/>
        <pt x="1082" y="1122" on="0"/>
        <pt x="1216" y="1073" on="0"/>
        <pt x="1317" y="967" on="0"/>
        <pt x="1376" y="798" on="0"/>
        <pt x="1376" y="677" on="1"/>
        <pt x="1376" y="0" on="1"/>
        <pt x="928" y="0" on="1"/>
        <pt x="928" y="570" on="1"/>
        <pt x="928" y="645" on="0"/>
        <pt x="903" y="749" on="0"/>
        <pt x="863" y="814" on="0"/>
        <pt x="812" y="843" on="0"/>
        <pt x="786" y="843" on="1"/>
        <pt x="756" y="843" on="0"/>
        <pt x="697" y="816" on="0"/>
        <pt x="649" y="770" on="0"/>
        <pt x="614" y="708" on="0"/>
        <pt x="608" y="673" on="1"/>
        <pt x="608" y="0" on="1"/>
        <pt x="160" y="0" on="1"/>
      </contour>
    </TTGlyph>
    <TTGlyph name="hungarumlaut" xMin="160" yMin="1248" xMax="1024" yMax="1792">
      <contour>
        <pt x="160" y="1248" on="1"/>
        <pt x="192" y="1792" on="1"/>
        <pt x="576" y="1792" on="1"/>
        <pt x="352" y="1248" on="1"/>
      </contour>
      <contour>
        <pt x="608" y="1248" on="1"/>
        <pt x="640" y="1792" on="1"/>
        <pt x="1024" y="1792" on="1"/>
        <pt x="800" y="1248" on="1"/>
      </contour>
    </TTGlyph>
    <TTGlyph name="hyphen" xMin="96" yMin="512" xMax="896" yMax="832">
      <contour>
        <pt x="896" y="832" on="1"/>
        <pt x="896" y="512" on="1"/>
        <pt x="96" y="512" on="1"/>
        <pt x="96" y="832" on="1"/>
      </contour>
    </TTGlyph>
    <TTGlyph name="i" xMin="108" yMin="0" xMax="657" yMax="1624">
      <contour>
        <pt x="171" y="1079" on="1"/>
        <pt x="587" y="1079" on="1"/>
        <pt x="587" y="0" on="1"/>
        <pt x="171" y="0" on="1"/>
      </contour>
      <contour>
        <pt x="381" y="1301" on="1"/>
        <pt x="324" y="1301" on="0"/>
        <pt x="224" y="1325" on="0"/>
        <pt x="151" y="1367" on="0"/>
        <pt x="108" y="1427" on="0"/>
        <pt x="108" y="1463" on="1"/>
        <pt x="108" y="1503" on="0"/>
        <pt x="150" y="1564" on="0"/>
        <pt x="224" y="1604" on="0"/>
        <pt x="324" y="1624" on="0"/>
        <pt x="382" y="1624" on="1"/>
        <pt x="440" y="1624" on="0"/>
        <pt x="541" y="1604" on="0"/>
        <pt x="615" y="1564" on="0"/>
        <pt x="657" y="1503" on="0"/>
        <pt x="657" y="1463" on="1"/>
        <pt x="657" y="1427" on="0"/>
        <pt x="614" y="1367" on="0"/>
        <pt x="540" y="1325" on="0"/>
        <pt x="439" y="1301" on="0"/>
      </contour>
    </TTGlyph>
    <TTGlyph name="iacute" xMin="97" yMin="0" xMax="641" yMax="1853">
      <component glyphName="dotlessi" x="0" y="0" flags="0x1204"/>
      <component glyphName="acute" x="-31" y="0" flags="0x1004"/>
    </TTGlyph>
    <TTGlyph name="icircumflex" xMin="-81" yMin="0" xMax="819" yMax="1792">
      <component glyphName="dotlessi" x="0" y="0" flags="0x1204"/>
      <component glyphName="circumflex" x="-181" y="0" flags="0x1004"/>
    </TTGlyph>
    <TTGlyph name="idieresis" xMin="-131" yMin="0" xMax="869" yMax="1600">
      <component glyphName="dotlessi" x="0" y="0" flags="0x1204"/>
      <component glyphName="dieresis" x="-231" y="0" flags="0x1004"/>
    </TTGlyph>
    <TTGlyph name="igrave" xMin="96" yMin="0" xMax="640" yMax="1853">
      <component glyphName="dotlessi" x="0" y="0" flags="0x1204"/>
      <component glyphName="grave" x="64" y="0" flags="0x1004"/>
    </TTGlyph>
    <TTGlyph name="infinity" xMin="77" yMin="330" xMax="1399" yMax="1113">
      <contour>
        <pt x="681" y="857" on="1"/>
        <pt x="765" y="993" on="0"/>
        <pt x="940" y="1112" on="0"/>
        <pt x="1049" y="1112" on="1"/>
        <pt x="1199" y="1112" on="0"/>
        <pt x="1399" y="903" on="0"/>
        <pt x="1399" y="722" on="1"/>
        <pt x="1399" y="540" on="0"/>
        <pt x="1199" y="331" on="0"/>
        <pt x="1049" y="331" on="1"/>
        <pt x="942" y="331" on="0"/>
        <pt x="766" y="449" on="0"/>
        <pt x="681" y="586" on="1"/>
        <pt x="612" y="492" on="0"/>
        <pt x="434" y="393" on="0"/>
        <pt x="353" y="393" on="1"/>
        <pt x="238" y="393" on="0"/>
        <pt x="78" y="569" on="0"/>
        <pt x="78" y="722" on="1"/>
        <pt x="78" y="874" on="0"/>
        <pt x="238" y="1049" on="0"/>
        <pt x="353" y="1049" on="1"/>
        <pt x="434" y="1049" on="0"/>
        <pt x="612" y="950" on="0"/>
      </contour>
      <contour>
        <pt x="800" y="724" on="1"/>
        <pt x="884" y="595" on="0"/>
        <pt x="918" y="566" on="1"/>
        <pt x="971" y="521" on="0"/>
        <pt x="1033" y="521" on="1"/>
        <pt x="1109" y="521" on="0"/>
        <pt x="1191" y="639" on="0"/>
        <pt x="1191" y="726" on="1"/>
        <pt x="1191" y="820" on="0"/>
        <pt x="1101" y="924" on="0"/>
        <pt x="1036" y="924" on="1"/>
        <pt x="985" y="924" on="0"/>
        <pt x="882" y="852" on="0"/>
      </contour>
      <contour>
        <pt x="566" y="726" on="1"/>
        <pt x="466" y="867" on="0"/>
        <pt x="376" y="867" on="1"/>
        <pt x="330" y="867" on="0"/>
        <pt x="263" y="793" on="0"/>
        <pt x="263" y="727" on="1"/>
        <pt x="263" y="659" on="0"/>
        <pt x="329" y="583" on="0"/>
        <pt x="376" y="583" on="1"/>
        <pt x="415" y="583" on="0"/>
        <pt x="446" y="604" on="1"/>
        <pt x="500" y="640" on="0"/>
      </contour>
    </TTGlyph>
    <TTGlyph name="integral" xMin="-84" yMin="-438" xMax="938" yMax="1749">
      <contour>
        <pt x="200" y="1301" on="1"/>
        <pt x="200" y="1428" on="0"/>
        <pt x="273" y="1599" on="0"/>
        <pt x="391" y="1704" on="0"/>
        <pt x="543" y="1749" on="0"/>
        <pt x="622" y="1749" on="1"/>
        <pt x="629" y="1749" on="1"/>
        <pt x="716" y="1749" on="0"/>
        <pt x="875" y="1714" on="0"/>
        <pt x="938" y="1688" on="1"/>
        <pt x="938" y="1686" on="0"/>
        <pt x="935" y="1644" on="0"/>
        <pt x="930" y="1582" on="0"/>
        <pt x="924" y="1511" on="0"/>
        <pt x="920" y="1450" on="0"/>
        <pt x="917" y="1408" on="0"/>
        <pt x="917" y="1406" on="1"/>
        <pt x="866" y="1421" on="0"/>
        <pt x="784" y="1438" on="0"/>
        <pt x="752" y="1438" on="1"/>
        <pt x="698" y="1438" on="0"/>
        <pt x="637" y="1397" on="0"/>
        <pt x="607" y="1329" on="0"/>
        <pt x="600" y="1241" on="0"/>
        <pt x="600" y="1195" on="1"/>
        <pt x="600" y="32" on="1"/>
        <pt x="600" y="-101" on="0"/>
        <pt x="527" y="-281" on="0"/>
        <pt x="407" y="-391" on="0"/>
        <pt x="253" y="-438" on="0"/>
        <pt x="172" y="-438" on="1"/>
        <pt x="102" y="-438" on="0"/>
        <pt x="-33" y="-410" on="0"/>
        <pt x="-84" y="-387" on="1"/>
        <pt x="-84" y="-385" on="0"/>
        <pt x="-81" y="-343" on="0"/>
        <pt x="-77" y="-282" on="0"/>
        <pt x="-71" y="-211" on="0"/>
        <pt x="-66" y="-149" on="0"/>
        <pt x="-63" y="-107" on="0"/>
        <pt x="-63" y="-105" on="1"/>
        <pt x="2" y="-127" on="0"/>
        <pt x="42" y="-127" on="1"/>
        <pt x="89" y="-127" on="0"/>
        <pt x="150" y="-96" on="0"/>
        <pt x="186" y="-45" on="0"/>
        <pt x="200" y="21" on="0"/>
        <pt x="200" y="57" on="1"/>
      </contour>
    </TTGlyph>
    <TTGlyph name="j" xMin="0" yMin="-416" xMax="754" yMax="1641">
      <contour>
        <pt x="288" y="-416" on="1"/>
        <pt x="209" y="-416" on="0"/>
        <pt x="63" y="-407" on="0"/>
        <pt x="0" y="-384" on="1"/>
        <pt x="0" y="-97" on="1"/>
        <pt x="24" y="-106" on="0"/>
        <pt x="59" y="-118" on="0"/>
        <pt x="88" y="-125" on="0"/>
        <pt x="113" y="-128" on="0"/>
        <pt x="128" y="-128" on="1"/>
        <pt x="170" y="-128" on="0"/>
        <pt x="221" y="-95" on="0"/>
        <pt x="248" y="-41" on="0"/>
        <pt x="256" y="29" on="0"/>
        <pt x="256" y="67" on="1"/>
        <pt x="256" y="1079" on="1"/>
        <pt x="704" y="1079" on="1"/>
        <pt x="704" y="44" on="1"/>
        <pt x="704" y="-88" on="0"/>
        <pt x="637" y="-265" on="0"/>
        <pt x="523" y="-371" on="0"/>
        <pt x="372" y="-416" on="0"/>
      </contour>
      <contour>
        <pt x="478" y="1318" on="1"/>
        <pt x="421" y="1318" on="0"/>
        <pt x="321" y="1342" on="0"/>
        <pt x="248" y="1384" on="0"/>
        <pt x="205" y="1444" on="0"/>
        <pt x="205" y="1480" on="1"/>
        <pt x="205" y="1520" on="0"/>
        <pt x="247" y="1581" on="0"/>
        <pt x="321" y="1621" on="0"/>
        <pt x="421" y="1641" on="0"/>
        <pt x="479" y="1641" on="1"/>
        <pt x="537" y="1641" on="0"/>
        <pt x="638" y="1621" on="0"/>
        <pt x="712" y="1581" on="0"/>
        <pt x="754" y="1520" on="0"/>
        <pt x="754" y="1480" on="1"/>
        <pt x="754" y="1444" on="0"/>
        <pt x="711" y="1384" on="0"/>
        <pt x="637" y="1342" on="0"/>
        <pt x="536" y="1318" on="0"/>
      </contour>
    </TTGlyph>
    <TTGlyph name="k" xMin="160" yMin="0" xMax="1391" yMax="1536">
      <contour>
        <pt x="626" y="626" on="1"/>
        <pt x="928" y="1079" on="1"/>
        <pt x="1371" y="1079" on="1"/>
        <pt x="1030" y="581" on="1"/>
        <pt x="1391" y="0" on="1"/>
        <pt x="891" y="0" on="1"/>
        <pt x="622" y="495" on="1"/>
        <pt x="608" y="495" on="1"/>
        <pt x="608" y="0" on="1"/>
        <pt x="160" y="0" on="1"/>
        <pt x="160" y="1536" on="1"/>
        <pt x="608" y="1536" on="1"/>
        <pt x="608" y="626" on="1"/>
      </contour>
    </TTGlyph>
    <TTGlyph name="l" xMin="192" yMin="0" xMax="640" yMax="1536">
      <contour>
        <pt x="192" y="1536" on="1"/>
        <pt x="640" y="1536" on="1"/>
        <pt x="640" y="0" on="1"/>
        <pt x="192" y="0" on="1"/>
      </contour>
    </TTGlyph>
    <TTGlyph name="less" xMin="96" yMin="384" xMax="800" yMax="1280">
      <contour>
        <pt x="96" y="1024" on="1"/>
        <pt x="800" y="1280" on="1"/>
        <pt x="800" y="960" on="1"/>
        <pt x="288" y="832" on="1"/>
        <pt x="800" y="704" on="1"/>
        <pt x="800" y="384" on="1"/>
        <pt x="96" y="640" on="1"/>
      </contour>
    </TTGlyph>
    <TTGlyph name="lessequal" xMin="96" yMin="-5" xMax="800" yMax="1280">
      <contour>
        <pt x="800" y="258" on="1"/>
        <pt x="800" y="-5" on="1"/>
        <pt x="96" y="-5" on="1"/>
        <pt x="96" y="258" on="1"/>
      </contour>
      <contour>
        <pt x="96" y="1024" on="1"/>
        <pt x="800" y="1280" on="1"/>
        <pt x="800" y="960" on="1"/>
        <pt x="288" y="832" on="1"/>
        <pt x="800" y="704" on="1"/>
        <pt x="800" y="384" on="1"/>
        <pt x="96" y="640" on="1"/>
      </contour>
    </TTGlyph>
    <TTGlyph name="logicalnot" xMin="96" yMin="288" xMax="896" yMax="832">
      <contour>
        <pt x="896" y="832" on="1"/>
        <pt x="896" y="529" on="1"/>
        <pt x="320" y="529" on="1"/>
        <pt x="320" y="288" on="1"/>
        <pt x="96" y="288" on="1"/>
        <pt x="96" y="832" on="1"/>
      </contour>
    </TTGlyph>
    <TTGlyph name="lozenge" xMin="174" yMin="0" xMax="1209" yMax="1404">
      <contour>
        <pt x="614" y="702" on="1"/>
        <pt x="734" y="204" on="1"/>
        <pt x="842" y="702" on="1"/>
        <pt x="734" y="1200" on="1"/>
      </contour>
      <contour>
        <pt x="174" y="702" on="1"/>
        <pt x="420" y="1404" on="1"/>
        <pt x="967" y="1404" on="1"/>
        <pt x="1209" y="702" on="1"/>
        <pt x="967" y="0" on="1"/>
        <pt x="420" y="0" on="1"/>
      </contour>
    </TTGlyph>
    <TTGlyph name="lslash" xMin="52" yMin="0" xMax="752" yMax="1536">
      <contour>
        <pt x="179" y="1536" on="1"/>
        <pt x="622" y="1536" on="1"/>
        <pt x="622" y="1044" on="1"/>
        <pt x="752" y="1100" on="1"/>
        <pt x="752" y="800" on="1"/>
        <pt x="622" y="744" on="1"/>
        <pt x="622" y="0" on="1"/>
        <pt x="179" y="0" on="1"/>
        <pt x="179" y="554" on="1"/>
        <pt x="52" y="500" on="1"/>
        <pt x="52" y="800" on="1"/>
        <pt x="179" y="854" on="1"/>
      </contour>
    </TTGlyph>
    <TTGlyph name="m" xMin="168" yMin="0" xMax="2135" yMax="1123">
      <contour>
        <pt x="168" y="1079" on="1"/>
        <pt x="613" y="1079" on="1"/>
        <pt x="596" y="1022" on="0"/>
        <pt x="583" y="932" on="0"/>
        <pt x="583" y="876" on="1"/>
        <pt x="609" y="925" on="0"/>
        <pt x="698" y="1012" on="0"/>
        <pt x="807" y="1077" on="0"/>
        <pt x="928" y="1122" on="0"/>
        <pt x="986" y="1122" on="1"/>
        <pt x="1035" y="1122" on="0"/>
        <pt x="1131" y="1090" on="0"/>
        <pt x="1216" y="1036" on="0"/>
        <pt x="1288" y="951" on="0"/>
        <pt x="1314" y="890" on="1"/>
        <pt x="1344" y="942" on="0"/>
        <pt x="1436" y="1028" on="0"/>
        <pt x="1550" y="1089" on="0"/>
        <pt x="1677" y="1122" on="0"/>
        <pt x="1742" y="1122" on="1"/>
        <pt x="1826" y="1122" on="0"/>
        <pt x="1982" y="1073" on="0"/>
        <pt x="2102" y="965" on="0"/>
        <pt x="2118" y="880" on="1"/>
        <pt x="2133" y="796" on="0"/>
        <pt x="2133" y="673" on="1"/>
        <pt x="2135" y="0" on="1"/>
        <pt x="1728" y="0" on="1"/>
        <pt x="1726" y="564" on="1"/>
        <pt x="1726" y="638" on="0"/>
        <pt x="1713" y="689" on="1"/>
        <pt x="1700" y="740" on="0"/>
        <pt x="1656" y="806" on="0"/>
        <pt x="1597" y="836" on="0"/>
        <pt x="1565" y="836" on="1"/>
        <pt x="1535" y="836" on="0"/>
        <pt x="1467" y="806" on="0"/>
        <pt x="1411" y="752" on="0"/>
        <pt x="1392" y="714" on="1"/>
        <pt x="1374" y="676" on="0"/>
        <pt x="1374" y="631" on="1"/>
        <pt x="1376" y="0" on="1"/>
        <pt x="960" y="0" on="1"/>
        <pt x="958" y="564" on="1"/>
        <pt x="958" y="640" on="0"/>
        <pt x="942" y="691" on="1"/>
        <pt x="927" y="743" on="0"/>
        <pt x="880" y="809" on="0"/>
        <pt x="823" y="838" on="0"/>
        <pt x="798" y="838" on="1"/>
        <pt x="765" y="838" on="0"/>
        <pt x="696" y="811" on="0"/>
        <pt x="641" y="765" on="0"/>
        <pt x="606" y="703" on="0"/>
        <pt x="606" y="668" on="1"/>
        <pt x="608" y="0" on="1"/>
        <pt x="170" y="0" on="1"/>
      </contour>
    </TTGlyph>
    <TTGlyph name="macron" xMin="100" yMin="1300" xMax="900" yMax="1545">
      <contour>
        <pt x="900" y="1545" on="1"/>
        <pt x="900" y="1300" on="1"/>
        <pt x="100" y="1300" on="1"/>
        <pt x="100" y="1545" on="1"/>
      </contour>
    </TTGlyph>
    <TTGlyph name="minus" xMin="100" yMin="529" xMax="900" yMax="847">
      <contour>
        <pt x="900" y="847" on="1"/>
        <pt x="900" y="529" on="1"/>
        <pt x="100" y="529" on="1"/>
        <pt x="100" y="847" on="1"/>
      </contour>
    </TTGlyph>
    <TTGlyph name="mu" xMin="128" yMin="-352" xMax="1376" yMax="1088">
      <contour>
        <pt x="128" y="1088" on="1"/>
        <pt x="576" y="1088" on="1"/>
        <pt x="576" y="540" on="1"/>
        <pt x="576" y="465" on="0"/>
        <pt x="599" y="361" on="0"/>
        <pt x="639" y="296" on="0"/>
        <pt x="691" y="267" on="0"/>
        <pt x="720" y="267" on="1"/>
        <pt x="754" y="267" on="0"/>
        <pt x="823" y="294" on="0"/>
        <pt x="880" y="340" on="0"/>
        <pt x="921" y="402" on="0"/>
        <pt x="928" y="437" on="1"/>
        <pt x="928" y="1088" on="1"/>
        <pt x="1376" y="1088" on="1"/>
        <pt x="1376" y="0" on="1"/>
        <pt x="921" y="0" on="1"/>
        <pt x="932" y="34" on="0"/>
        <pt x="951" y="141" on="0"/>
        <pt x="951" y="229" on="1"/>
        <pt x="922" y="181" on="0"/>
        <pt x="868" y="98" on="0"/>
        <pt x="784" y="36" on="0"/>
        <pt x="652" y="0" on="0"/>
        <pt x="544" y="0" on="1"/>
        <pt x="544" y="-352" on="1"/>
        <pt x="128" y="-352" on="1"/>
      </contour>
    </TTGlyph>
    <TTGlyph name="multiply" xMin="57" yMin="277" xMax="871" yMax="1092">
      <contour>
        <pt x="676" y="684" on="1"/>
        <pt x="871" y="490" on="1"/>
        <pt x="658" y="277" on="1"/>
        <pt x="464" y="471" on="1"/>
        <pt x="270" y="277" on="1"/>
        <pt x="57" y="490" on="1"/>
        <pt x="251" y="684" on="1"/>
        <pt x="57" y="879" on="1"/>
        <pt x="270" y="1092" on="1"/>
        <pt x="464" y="897" on="1"/>
        <pt x="658" y="1092" on="1"/>
        <pt x="871" y="879" on="1"/>
      </contour>
    </TTGlyph>
    <TTGlyph name="n" xMin="169" yMin="0" xMax="1440" yMax="1122">
      <contour>
        <pt x="169" y="1079" on="1"/>
        <pt x="616" y="1079" on="1"/>
        <pt x="598" y="1023" on="0"/>
        <pt x="586" y="937" on="0"/>
        <pt x="586" y="881" on="1"/>
        <pt x="620" y="936" on="0"/>
        <pt x="722" y="1025" on="0"/>
        <pt x="845" y="1087" on="0"/>
        <pt x="984" y="1122" on="0"/>
        <pt x="1054" y="1122" on="1"/>
        <pt x="1132" y="1122" on="0"/>
        <pt x="1272" y="1073" on="0"/>
        <pt x="1378" y="968" on="0"/>
        <pt x="1440" y="799" on="0"/>
        <pt x="1440" y="678" on="1"/>
        <pt x="1440" y="0" on="1"/>
        <pt x="992" y="0" on="1"/>
        <pt x="992" y="570" on="1"/>
        <pt x="992" y="645" on="0"/>
        <pt x="965" y="749" on="0"/>
        <pt x="921" y="814" on="0"/>
        <pt x="865" y="843" on="0"/>
        <pt x="836" y="843" on="1"/>
        <pt x="798" y="843" on="0"/>
        <pt x="724" y="816" on="0"/>
        <pt x="657" y="770" on="0"/>
        <pt x="612" y="708" on="0"/>
        <pt x="604" y="673" on="1"/>
        <pt x="604" y="0" on="1"/>
        <pt x="169" y="0" on="1"/>
      </contour>
    </TTGlyph>
    <TTGlyph name="nine" xMin="96" yMin="-32" xMax="1280" yMax="1441">
      <contour>
        <pt x="256" y="352" on="1"/>
        <pt x="274" y="346" on="0"/>
        <pt x="334" y="324" on="0"/>
        <pt x="423" y="303" on="0"/>
        <pt x="540" y="288" on="0"/>
        <pt x="614" y="288" on="1"/>
        <pt x="667" y="288" on="0"/>
        <pt x="759" y="322" on="0"/>
        <pt x="826" y="403" on="0"/>
        <pt x="864" y="538" on="0"/>
        <pt x="864" y="640" on="1"/>
        <pt x="790" y="611" on="0"/>
        <pt x="630" y="576" on="0"/>
        <pt x="556" y="576" on="1"/>
        <pt x="464" y="576" on="0"/>
        <pt x="297" y="632" on="0"/>
        <pt x="171" y="740" on="0"/>
        <pt x="96" y="899" on="0"/>
        <pt x="96" y="1003" on="1"/>
        <pt x="96" y="1056" on="0"/>
        <pt x="116" y="1163" on="0"/>
        <pt x="165" y="1260" on="0"/>
        <pt x="246" y="1344" on="0"/>
        <pt x="368" y="1406" on="0"/>
        <pt x="535" y="1441" on="0"/>
        <pt x="645" y="1441" on="1"/>
        <pt x="778" y="1441" on="0"/>
        <pt x="976" y="1391" on="0"/>
        <pt x="1118" y="1299" on="0"/>
        <pt x="1208" y="1171" on="0"/>
        <pt x="1260" y="1017" on="0"/>
        <pt x="1280" y="840" on="0"/>
        <pt x="1280" y="746" on="1"/>
        <pt x="1280" y="639" on="0"/>
        <pt x="1261" y="441" on="0"/>
        <pt x="1210" y="268" on="0"/>
        <pt x="1119" y="126" on="0"/>
        <pt x="976" y="24" on="0"/>
        <pt x="773" y="-32" on="0"/>
        <pt x="636" y="-32" on="1"/>
        <pt x="393" y="-32" on="0"/>
        <pt x="224" y="32" on="1"/>
      </contour>
      <contour>
        <pt x="864" y="832" on="1"/>
        <pt x="864" y="952" on="0"/>
        <pt x="834" y="1092" on="0"/>
        <pt x="777" y="1164" on="0"/>
        <pt x="694" y="1184" on="0"/>
        <pt x="640" y="1184" on="1"/>
        <pt x="598" y="1184" on="0"/>
        <pt x="538" y="1152" on="0"/>
        <pt x="499" y="1099" on="0"/>
        <pt x="480" y="1033" on="0"/>
        <pt x="480" y="1000" on="1"/>
        <pt x="480" y="967" on="0"/>
        <pt x="500" y="906" on="0"/>
        <pt x="545" y="859" on="0"/>
        <pt x="618" y="832" on="0"/>
        <pt x="672" y="832" on="1"/>
      </contour>
    </TTGlyph>
    <TTGlyph name="notequal" xMin="107" yMin="0" xMax="949" yMax="1120">
      <contour>
        <pt x="948" y="928" on="1"/>
        <pt x="948" y="672" on="1"/>
        <pt x="690" y="672" on="1"/>
        <pt x="636" y="519" on="1"/>
        <pt x="948" y="519" on="1"/>
        <pt x="948" y="263" on="1"/>
        <pt x="546" y="263" on="1"/>
        <pt x="454" y="0" on="1"/>
        <pt x="215" y="0" on="1"/>
        <pt x="305" y="263" on="1"/>
        <pt x="107" y="263" on="1"/>
        <pt x="107" y="519" on="1"/>
        <pt x="393" y="519" on="1"/>
        <pt x="446" y="672" on="1"/>
        <pt x="107" y="672" on="1"/>
        <pt x="107" y="928" on="1"/>
        <pt x="533" y="928" on="1"/>
        <pt x="599" y="1120" on="1"/>
        <pt x="847" y="1120" on="1"/>
        <pt x="780" y="928" on="1"/>
      </contour>
    </TTGlyph>
    <TTGlyph name="ntilde" xMin="169" yMin="0" xMax="1440" yMax="1676">
      <component glyphName="n" x="0" y="0" flags="0x1204"/>
      <component glyphName="tilde" x="116" y="0" flags="0x1004"/>
    </TTGlyph>
    <TTGlyph name="numbersign" xMin="32" yMin="416" xMax="960" yMax="1473">
      <contour>
        <pt x="147" y="691" on="1"/>
        <pt x="105" y="750" on="0"/>
        <pt x="64" y="888" on="0"/>
        <pt x="64" y="960" on="1"/>
        <pt x="64" y="1026" on="0"/>
        <pt x="100" y="1154" on="0"/>
        <pt x="135" y="1210" on="1"/>
        <pt x="32" y="1319" on="1"/>
        <pt x="192" y="1473" on="1"/>
        <pt x="299" y="1360" on="1"/>
        <pt x="344" y="1383" on="0"/>
        <pt x="451" y="1408" on="0"/>
        <pt x="512" y="1408" on="1"/>
        <pt x="566" y="1408" on="0"/>
        <pt x="660" y="1388" on="0"/>
        <pt x="702" y="1370" on="1"/>
        <pt x="800" y="1473" on="1"/>
        <pt x="960" y="1319" on="1"/>
        <pt x="875" y="1230" on="1"/>
        <pt x="917" y="1171" on="0"/>
        <pt x="960" y="1032" on="0"/>
        <pt x="960" y="960" on="1"/>
        <pt x="960" y="882" on="0"/>
        <pt x="910" y="733" on="0"/>
        <pt x="862" y="672" on="1"/>
        <pt x="960" y="570" on="1"/>
        <pt x="800" y="416" on="1"/>
        <pt x="681" y="541" on="1"/>
        <pt x="605" y="512" on="0"/>
        <pt x="512" y="512" on="1"/>
        <pt x="457" y="512" on="0"/>
        <pt x="362" y="532" on="0"/>
        <pt x="320" y="550" on="1"/>
        <pt x="192" y="416" on="1"/>
        <pt x="32" y="570" on="1"/>
      </contour>
      <contour>
        <pt x="320" y="960" on="1"/>
        <pt x="320" y="913" on="0"/>
        <pt x="340" y="831" on="0"/>
        <pt x="386" y="771" on="0"/>
        <pt x="459" y="736" on="0"/>
        <pt x="512" y="736" on="1"/>
        <pt x="565" y="736" on="0"/>
        <pt x="639" y="771" on="0"/>
        <pt x="684" y="831" on="0"/>
        <pt x="704" y="913" on="0"/>
        <pt x="704" y="960" on="1"/>
        <pt x="704" y="1007" on="0"/>
        <pt x="684" y="1089" on="0"/>
        <pt x="639" y="1149" on="0"/>
        <pt x="565" y="1184" on="0"/>
        <pt x="512" y="1184" on="1"/>
        <pt x="459" y="1184" on="0"/>
        <pt x="386" y="1149" on="0"/>
        <pt x="340" y="1089" on="0"/>
        <pt x="320" y="1007" on="0"/>
      </contour>
    </TTGlyph>
    <TTGlyph name="o" xMin="65" yMin="-32" xMax="1345" yMax="1122">
      <contour>
        <pt x="705" y="-32" on="1"/>
        <pt x="583" y="-32" on="0"/>
        <pt x="394" y="14" on="0"/>
        <pt x="252" y="95" on="0"/>
        <pt x="153" y="207" on="0"/>
        <pt x="92" y="338" on="0"/>
        <pt x="65" y="483" on="0"/>
        <pt x="65" y="557" on="1"/>
        <pt x="65" y="628" on="0"/>
        <pt x="92" y="768" on="0"/>
        <pt x="153" y="893" on="0"/>
        <pt x="251" y="999" on="0"/>
        <pt x="393" y="1076" on="0"/>
        <pt x="583" y="1122" on="0"/>
        <pt x="705" y="1122" on="1"/>
        <pt x="827" y="1122" on="0"/>
        <pt x="1017" y="1076" on="0"/>
        <pt x="1159" y="999" on="0"/>
        <pt x="1257" y="893" on="0"/>
        <pt x="1318" y="768" on="0"/>
        <pt x="1345" y="628" on="0"/>
        <pt x="1345" y="557" on="1"/>
        <pt x="1345" y="483" on="0"/>
        <pt x="1318" y="338" on="0"/>
        <pt x="1257" y="207" on="0"/>
        <pt x="1158" y="95" on="0"/>
        <pt x="1016" y="14" on="0"/>
        <pt x="827" y="-32" on="0"/>
      </contour>
      <contour>
        <pt x="705" y="268" on="1"/>
        <pt x="759" y="268" on="0"/>
        <pt x="832" y="317" on="0"/>
        <pt x="877" y="398" on="0"/>
        <pt x="897" y="501" on="0"/>
        <pt x="897" y="555" on="1"/>
        <pt x="897" y="606" on="0"/>
        <pt x="877" y="704" on="0"/>
        <pt x="832" y="782" on="0"/>
        <pt x="759" y="829" on="0"/>
        <pt x="705" y="829" on="1"/>
        <pt x="651" y="829" on="0"/>
        <pt x="578" y="782" on="0"/>
        <pt x="533" y="704" on="0"/>
        <pt x="513" y="606" on="0"/>
        <pt x="513" y="555" on="1"/>
        <pt x="513" y="501" on="0"/>
        <pt x="532" y="398" on="0"/>
        <pt x="577" y="317" on="0"/>
        <pt x="651" y="268" on="0"/>
      </contour>
    </TTGlyph>
    <TTGlyph name="oacute" xMin="65" yMin="-32" xMax="1345" yMax="1853">
      <component glyphName="o" x="0" y="0" flags="0x1204"/>
      <component glyphName="acute" x="336" y="0" flags="0x1004"/>
    </TTGlyph>
    <TTGlyph name="ocircumflex" xMin="65" yMin="-32" xMax="1345" yMax="1792">
      <component glyphName="o" x="0" y="0" flags="0x1204"/>
      <component glyphName="circumflex" x="186" y="0" flags="0x1004"/>
    </TTGlyph>
    <TTGlyph name="odieresis" xMin="65" yMin="-32" xMax="1345" yMax="1600">
      <component glyphName="o" x="0" y="0" flags="0x1204"/>
      <component glyphName="dieresis" x="136" y="0" flags="0x1004"/>
    </TTGlyph>
    <TTGlyph name="oe" xMin="107" yMin="-41" xMax="2054" yMax="1147">
      <contour>
        <pt x="762" y="-28" on="1"/>
        <pt x="638" y="-28" on="0"/>
        <pt x="445" y="18" on="0"/>
        <pt x="299" y="99" on="0"/>
        <pt x="198" y="211" on="0"/>
        <pt x="135" y="341" on="0"/>
        <pt x="107" y="484" on="0"/>
        <pt x="107" y="557" on="1"/>
        <pt x="107" y="631" on="0"/>
        <pt x="135" y="776" on="0"/>
        <pt x="197" y="907" on="0"/>
        <pt x="298" y="1019" on="0"/>
        <pt x="443" y="1101" on="0"/>
        <pt x="637" y="1147" on="0"/>
        <pt x="762" y="1147" on="1"/>
        <pt x="900" y="1147" on="0"/>
        <pt x="1093" y="1065" on="0"/>
        <pt x="1158" y="997" on="1"/>
        <pt x="1250" y="1071" on="0"/>
        <pt x="1474" y="1143" on="0"/>
        <pt x="1584" y="1143" on="1"/>
        <pt x="1696" y="1143" on="0"/>
        <pt x="1871" y="1083" on="0"/>
        <pt x="1991" y="987" on="0"/>
        <pt x="2054" y="867" on="0"/>
        <pt x="2054" y="807" on="1"/>
        <pt x="2054" y="702" on="0"/>
        <pt x="1967" y="557" on="0"/>
        <pt x="1827" y="467" on="0"/>
        <pt x="1654" y="427" on="0"/>
        <pt x="1568" y="427" on="1"/>
        <pt x="1524" y="427" on="0"/>
        <pt x="1432" y="434" on="0"/>
        <pt x="1394" y="439" on="1"/>
        <pt x="1395" y="395" on="0"/>
        <pt x="1436" y="332" on="0"/>
        <pt x="1505" y="292" on="0"/>
        <pt x="1597" y="273" on="0"/>
        <pt x="1649" y="273" on="1"/>
        <pt x="1688" y="273" on="0"/>
        <pt x="1778" y="283" on="0"/>
        <pt x="1868" y="302" on="0"/>
        <pt x="1952" y="329" on="0"/>
        <pt x="1985" y="347" on="1"/>
        <pt x="2035" y="53" on="1"/>
        <pt x="1934" y="8" on="0"/>
        <pt x="1711" y="-41" on="0"/>
        <pt x="1590" y="-41" on="1"/>
        <pt x="1462" y="-41" on="0"/>
        <pt x="1233" y="27" on="0"/>
        <pt x="1145" y="100" on="1"/>
        <pt x="1079" y="41" on="0"/>
        <pt x="893" y="-28" on="0"/>
      </contour>
      <contour>
        <pt x="758" y="268" on="1"/>
        <pt x="810" y="268" on="0"/>
        <pt x="883" y="317" on="0"/>
        <pt x="929" y="398" on="0"/>
        <pt x="950" y="501" on="0"/>
        <pt x="950" y="555" on="1"/>
        <pt x="950" y="610" on="0"/>
        <pt x="928" y="715" on="0"/>
        <pt x="882" y="798" on="0"/>
        <pt x="809" y="849" on="0"/>
        <pt x="758" y="849" on="1"/>
        <pt x="704" y="849" on="0"/>
        <pt x="625" y="798" on="0"/>
        <pt x="574" y="715" on="0"/>
        <pt x="550" y="610" on="0"/>
        <pt x="550" y="555" on="1"/>
        <pt x="550" y="501" on="0"/>
        <pt x="574" y="398" on="0"/>
        <pt x="624" y="317" on="0"/>
        <pt x="703" y="268" on="0"/>
      </contour>
      <contour>
        <pt x="1394" y="611" on="1"/>
        <pt x="1418" y="612" on="0"/>
        <pt x="1488" y="617" on="0"/>
        <pt x="1567" y="628" on="0"/>
        <pt x="1645" y="649" on="0"/>
        <pt x="1707" y="682" on="0"/>
        <pt x="1746" y="730" on="0"/>
        <pt x="1746" y="764" on="1"/>
        <pt x="1746" y="793" on="0"/>
        <pt x="1727" y="842" on="0"/>
        <pt x="1692" y="877" on="0"/>
        <pt x="1643" y="897" on="0"/>
        <pt x="1613" y="897" on="1"/>
        <pt x="1578" y="897" on="0"/>
        <pt x="1503" y="875" on="0"/>
        <pt x="1440" y="812" on="0"/>
        <pt x="1397" y="700" on="0"/>
      </contour>
    </TTGlyph>
    <TTGlyph name="ogonek" xMin="320" yMin="-672" xMax="912" yMax="95">
      <contour>
        <pt x="800" y="-672" on="1"/>
        <pt x="692" y="-672" on="0"/>
        <pt x="515" y="-613" on="0"/>
        <pt x="389" y="-515" on="0"/>
        <pt x="320" y="-388" on="0"/>
        <pt x="320" y="-320" on="1"/>
        <pt x="320" y="-235" on="0"/>
        <pt x="370" y="-107" on="0"/>
        <pt x="456" y="-15" on="0"/>
        <pt x="572" y="46" on="0"/>
        <pt x="703" y="81" on="0"/>
        <pt x="844" y="95" on="0"/>
        <pt x="912" y="95" on="1"/>
        <pt x="912" y="0" on="1"/>
        <pt x="877" y="-8" on="0"/>
        <pt x="793" y="-38" on="0"/>
        <pt x="721" y="-95" on="0"/>
        <pt x="672" y="-186" on="0"/>
        <pt x="672" y="-256" on="1"/>
        <pt x="672" y="-285" on="0"/>
        <pt x="694" y="-332" on="0"/>
        <pt x="730" y="-366" on="0"/>
        <pt x="776" y="-384" on="0"/>
        <pt x="800" y="-384" on="1"/>
      </contour>
    </TTGlyph>
    <TTGlyph name="ograve" xMin="65" yMin="-32" xMax="1345" yMax="1853">
      <component glyphName="o" x="0" y="0" flags="0x1204"/>
      <component glyphName="grave" x="432" y="0" flags="0x1004"/>
    </TTGlyph>
    <TTGlyph name="one" xMin="73" yMin="0" xMax="724" yMax="1414">
      <contour>
        <pt x="724" y="0" on="1"/>
        <pt x="297" y="0" on="1"/>
        <pt x="297" y="1021" on="1"/>
        <pt x="73" y="980" on="1"/>
        <pt x="73" y="1254" on="1"/>
        <pt x="121" y="1269" on="0"/>
        <pt x="176" y="1291" on="1"/>
        <pt x="223" y="1310" on="0"/>
        <pt x="342" y="1374" on="0"/>
        <pt x="408" y="1414" on="1"/>
        <pt x="724" y="1414" on="1"/>
      </contour>
    </TTGlyph>
    <TTGlyph name="onehalf" xMin="52" yMin="0" xMax="2300" yMax="1426">
      <contour>
        <pt x="600" y="347" on="1"/>
        <pt x="252" y="347" on="1"/>
        <pt x="252" y="1100" on="1"/>
        <pt x="52" y="1059" on="1"/>
        <pt x="52" y="1272" on="1"/>
        <pt x="94" y="1287" on="0"/>
        <pt x="144" y="1309" on="1"/>
        <pt x="187" y="1328" on="0"/>
        <pt x="300" y="1386" on="0"/>
        <pt x="366" y="1426" on="1"/>
        <pt x="600" y="1426" on="1"/>
      </contour>
      <contour>
        <pt x="1542" y="1426" on="1"/>
        <pt x="1018" y="0" on="1"/>
        <pt x="600" y="0" on="1"/>
        <pt x="1100" y="1426" on="1"/>
      </contour>
      <contour>
        <pt x="1941" y="250" on="1"/>
        <pt x="2300" y="250" on="1"/>
        <pt x="2300" y="0" on="1"/>
        <pt x="1561" y="0" on="1"/>
        <pt x="1510" y="270" on="1"/>
        <pt x="1606" y="319" on="0"/>
        <pt x="1764" y="428" on="0"/>
        <pt x="1876" y="532" on="0"/>
        <pt x="1937" y="626" on="0"/>
        <pt x="1937" y="661" on="1"/>
        <pt x="1937" y="705" on="0"/>
        <pt x="1920" y="761" on="0"/>
        <pt x="1890" y="792" on="0"/>
        <pt x="1850" y="804" on="0"/>
        <pt x="1827" y="804" on="1"/>
        <pt x="1794" y="804" on="0"/>
        <pt x="1721" y="795" on="0"/>
        <pt x="1651" y="781" on="0"/>
        <pt x="1591" y="764" on="0"/>
        <pt x="1571" y="756" on="1"/>
        <pt x="1518" y="1015" on="1"/>
        <pt x="1617" y="1057" on="0"/>
        <pt x="1811" y="1099" on="0"/>
        <pt x="1897" y="1099" on="1"/>
        <pt x="2000" y="1099" on="0"/>
        <pt x="2152" y="1033" on="0"/>
        <pt x="2252" y="922" on="0"/>
        <pt x="2300" y="773" on="0"/>
        <pt x="2300" y="691" on="1"/>
        <pt x="2300" y="636" on="0"/>
        <pt x="2249" y="513" on="0"/>
        <pt x="2155" y="398" on="0"/>
        <pt x="2023" y="299" on="0"/>
        <pt x="1941" y="267" on="1"/>
      </contour>
    </TTGlyph>
    <TTGlyph name="onequarter" xMin="52" yMin="-52" xMax="2476" yMax="1426">
      <contour>
        <pt x="600" y="347" on="1"/>
        <pt x="252" y="347" on="1"/>
        <pt x="252" y="1100" on="1"/>
        <pt x="52" y="1059" on="1"/>
        <pt x="52" y="1272" on="1"/>
        <pt x="94" y="1287" on="0"/>
        <pt x="144" y="1309" on="1"/>
        <pt x="187" y="1328" on="0"/>
        <pt x="300" y="1386" on="0"/>
        <pt x="366" y="1426" on="1"/>
        <pt x="600" y="1426" on="1"/>
      </contour>
      <contour>
        <pt x="1599" y="1426" on="1"/>
        <pt x="1056" y="0" on="1"/>
        <pt x="600" y="0" on="1"/>
        <pt x="1117" y="1426" on="1"/>
      </contour>
      <contour>
        <pt x="2301" y="391" on="1"/>
        <pt x="2476" y="391" on="1"/>
        <pt x="2476" y="152" on="1"/>
        <pt x="2301" y="152" on="1"/>
        <pt x="2301" y="-52" on="1"/>
        <pt x="1859" y="-52" on="1"/>
        <pt x="1859" y="152" on="1"/>
        <pt x="1357" y="152" on="1"/>
        <pt x="1357" y="391" on="1"/>
        <pt x="1705" y="1057" on="1"/>
        <pt x="2301" y="1057" on="1"/>
      </contour>
      <contour>
        <pt x="1895" y="838" on="1"/>
        <pt x="1654" y="391" on="1"/>
        <pt x="1919" y="391" on="1"/>
        <pt x="1919" y="838" on="1"/>
      </contour>
    </TTGlyph>
    <TTGlyph name="onesuperior" xMin="52" yMin="347" xMax="600" yMax="1426">
      <contour>
        <pt x="600" y="347" on="1"/>
        <pt x="252" y="347" on="1"/>
        <pt x="252" y="1100" on="1"/>
        <pt x="52" y="1059" on="1"/>
        <pt x="52" y="1272" on="1"/>
        <pt x="94" y="1287" on="0"/>
        <pt x="144" y="1309" on="1"/>
        <pt x="187" y="1328" on="0"/>
        <pt x="300" y="1386" on="0"/>
        <pt x="366" y="1426" on="1"/>
        <pt x="600" y="1426" on="1"/>
      </contour>
    </TTGlyph>
    <TTGlyph name="ordfeminine" xMin="96" yMin="330" xMax="864" yMax="1120">
      <contour>
        <pt x="318" y="330" on="1"/>
        <pt x="275" y="330" on="0"/>
        <pt x="195" y="354" on="0"/>
        <pt x="133" y="406" on="0"/>
        <pt x="96" y="482" on="0"/>
        <pt x="96" y="533" on="1"/>
        <pt x="96" y="588" on="0"/>
        <pt x="131" y="668" on="0"/>
        <pt x="189" y="725" on="0"/>
        <pt x="266" y="760" on="0"/>
        <pt x="350" y="780" on="0"/>
        <pt x="434" y="787" on="0"/>
        <pt x="473" y="787" on="1"/>
        <pt x="495" y="787" on="0"/>
        <pt x="533" y="785" on="0"/>
        <pt x="561" y="783" on="0"/>
        <pt x="578" y="782" on="0"/>
        <pt x="579" y="782" on="1"/>
        <pt x="579" y="813" on="1"/>
        <pt x="579" y="845" on="0"/>
        <pt x="559" y="888" on="0"/>
        <pt x="522" y="913" on="0"/>
        <pt x="475" y="923" on="0"/>
        <pt x="447" y="923" on="1"/>
        <pt x="394" y="923" on="0"/>
        <pt x="299" y="908" on="0"/>
        <pt x="262" y="901" on="1"/>
        <pt x="220" y="891" on="0"/>
        <pt x="184" y="878" on="1"/>
        <pt x="140" y="1076" on="1"/>
        <pt x="194" y="1088" on="0"/>
        <pt x="256" y="1098" on="1"/>
        <pt x="308" y="1107" on="0"/>
        <pt x="444" y="1120" on="0"/>
        <pt x="517" y="1120" on="1"/>
        <pt x="587" y="1120" on="0"/>
        <pt x="712" y="1088" on="0"/>
        <pt x="808" y="1013" on="0"/>
        <pt x="864" y="892" on="0"/>
        <pt x="864" y="801" on="1"/>
        <pt x="864" y="352" on="1"/>
        <pt x="579" y="352" on="1"/>
        <pt x="579" y="474" on="1"/>
        <pt x="564" y="441" on="0"/>
        <pt x="507" y="388" on="0"/>
        <pt x="437" y="350" on="0"/>
        <pt x="357" y="330" on="0"/>
      </contour>
      <contour>
        <pt x="434" y="493" on="1"/>
        <pt x="454" y="493" on="0"/>
        <pt x="493" y="507" on="0"/>
        <pt x="532" y="528" on="0"/>
        <pt x="566" y="553" on="0"/>
        <pt x="579" y="564" on="1"/>
        <pt x="579" y="673" on="1"/>
        <pt x="556" y="673" on="1"/>
        <pt x="523" y="673" on="0"/>
        <pt x="454" y="658" on="0"/>
        <pt x="397" y="631" on="0"/>
        <pt x="360" y="591" on="0"/>
        <pt x="360" y="565" on="1"/>
        <pt x="360" y="545" on="0"/>
        <pt x="373" y="517" on="0"/>
        <pt x="394" y="500" on="0"/>
        <pt x="421" y="493" on="0"/>
      </contour>
    </TTGlyph>
    <TTGlyph name="ordmasculine" xMin="96" yMin="384" xMax="864" yMax="1120">
      <contour>
        <pt x="480" y="928" on="1"/>
        <pt x="408" y="928" on="0"/>
        <pt x="352" y="836" on="0"/>
        <pt x="352" y="751" on="1"/>
        <pt x="352" y="661" on="0"/>
        <pt x="408" y="576" on="0"/>
        <pt x="480" y="576" on="1"/>
        <pt x="552" y="576" on="0"/>
        <pt x="608" y="661" on="0"/>
        <pt x="608" y="751" on="1"/>
        <pt x="608" y="836" on="0"/>
        <pt x="552" y="928" on="0"/>
      </contour>
      <contour>
        <pt x="480" y="1120" on="1"/>
        <pt x="588" y="1120" on="0"/>
        <pt x="735" y="1056" on="0"/>
        <pt x="825" y="953" on="0"/>
        <pt x="864" y="821" on="0"/>
        <pt x="864" y="752" on="1"/>
        <pt x="864" y="682" on="0"/>
        <pt x="825" y="548" on="0"/>
        <pt x="735" y="445" on="0"/>
        <pt x="588" y="382" on="0"/>
        <pt x="480" y="384" on="1"/>
        <pt x="372" y="382" on="0"/>
        <pt x="225" y="445" on="0"/>
        <pt x="135" y="548" on="0"/>
        <pt x="96" y="682" on="0"/>
        <pt x="96" y="752" on="1"/>
        <pt x="96" y="821" on="0"/>
        <pt x="135" y="953" on="0"/>
        <pt x="225" y="1056" on="0"/>
        <pt x="372" y="1120" on="0"/>
      </contour>
    </TTGlyph>
    <TTGlyph name="oslash" xMin="107" yMin="-215" xMax="1393" yMax="1318">
      <contour>
        <pt x="750" y="1147" on="1"/>
        <pt x="805" y="1147" on="0"/>
        <pt x="902" y="1137" on="0"/>
        <pt x="947" y="1128" on="1"/>
        <pt x="1045" y="1318" on="1"/>
        <pt x="1207" y="1232" on="1"/>
        <pt x="1120" y="1067" on="1"/>
        <pt x="1195" y="1027" on="0"/>
        <pt x="1300" y="914" on="0"/>
        <pt x="1364" y="781" on="0"/>
        <pt x="1393" y="633" on="0"/>
        <pt x="1393" y="557" on="1"/>
        <pt x="1393" y="483" on="0"/>
        <pt x="1365" y="338" on="0"/>
        <pt x="1304" y="208" on="0"/>
        <pt x="1205" y="98" on="0"/>
        <pt x="1062" y="17" on="0"/>
        <pt x="872" y="-28" on="0"/>
        <pt x="750" y="-28" on="1"/>
        <pt x="694" y="-28" on="0"/>
        <pt x="596" y="-18" on="0"/>
        <pt x="551" y="-9" on="1"/>
        <pt x="443" y="-215" on="1"/>
        <pt x="294" y="-142" on="1"/>
        <pt x="390" y="45" on="1"/>
        <pt x="312" y="84" on="0"/>
        <pt x="204" y="196" on="0"/>
        <pt x="137" y="330" on="0"/>
        <pt x="107" y="480" on="0"/>
        <pt x="107" y="557" on="1"/>
        <pt x="107" y="631" on="0"/>
        <pt x="134" y="776" on="0"/>
        <pt x="196" y="907" on="0"/>
        <pt x="295" y="1019" on="0"/>
        <pt x="437" y="1101" on="0"/>
        <pt x="628" y="1147" on="0"/>
      </contour>
      <contour>
        <pt x="750" y="849" on="1"/>
        <pt x="686" y="849" on="0"/>
        <pt x="595" y="798" on="0"/>
        <pt x="537" y="715" on="0"/>
        <pt x="510" y="610" on="0"/>
        <pt x="510" y="555" on="1"/>
        <pt x="510" y="504" on="0"/>
        <pt x="532" y="408" on="0"/>
        <pt x="557" y="369" on="1"/>
        <pt x="801" y="844" on="1"/>
        <pt x="789" y="846" on="0"/>
        <pt x="764" y="849" on="0"/>
      </contour>
      <contour>
        <pt x="750" y="268" on="1"/>
        <pt x="814" y="268" on="0"/>
        <pt x="906" y="317" on="0"/>
        <pt x="963" y="398" on="0"/>
        <pt x="990" y="501" on="0"/>
        <pt x="990" y="555" on="1"/>
        <pt x="990" y="604" on="0"/>
        <pt x="969" y="698" on="0"/>
        <pt x="946" y="737" on="1"/>
        <pt x="700" y="272" on="1"/>
        <pt x="712" y="270" on="0"/>
        <pt x="736" y="268" on="0"/>
      </contour>
    </TTGlyph>
    <TTGlyph name="otilde" xMin="65" yMin="-32" xMax="1345" yMax="1676">
      <component glyphName="o" x="0" y="0" flags="0x1204"/>
      <component glyphName="tilde" x="68" y="0" flags="0x1004"/>
    </TTGlyph>
    <TTGlyph name="p" xMin="160" yMin="-432" xMax="1440" yMax="1122">
      <contour>
        <pt x="160" y="1088" on="1"/>
        <pt x="616" y="1088" on="1"/>
        <pt x="599" y="1035" on="0"/>
        <pt x="586" y="932" on="0"/>
        <pt x="586" y="881" on="1"/>
        <pt x="615" y="935" on="0"/>
        <pt x="704" y="1023" on="0"/>
        <pt x="812" y="1086" on="0"/>
        <pt x="930" y="1122" on="0"/>
        <pt x="988" y="1122" on="1"/>
        <pt x="1076" y="1122" on="0"/>
        <pt x="1239" y="1056" on="0"/>
        <pt x="1365" y="920" on="0"/>
        <pt x="1440" y="705" on="0"/>
        <pt x="1440" y="555" on="1"/>
        <pt x="1440" y="447" on="0"/>
        <pt x="1402" y="276" on="0"/>
        <pt x="1335" y="145" on="0"/>
        <pt x="1245" y="53" on="0"/>
        <pt x="1140" y="-5" on="0"/>
        <pt x="1025" y="-32" on="0"/>
        <pt x="968" y="-32" on="1"/>
        <pt x="909" y="-32" on="0"/>
        <pt x="798" y="-6" on="0"/>
        <pt x="703" y="40" on="0"/>
        <pt x="629" y="102" on="0"/>
        <pt x="608" y="138" on="1"/>
        <pt x="608" y="-432" on="1"/>
        <pt x="160" y="-432" on="1"/>
      </contour>
      <contour>
        <pt x="794" y="266" on="1"/>
        <pt x="811" y="266" on="0"/>
        <pt x="854" y="269" on="0"/>
        <pt x="898" y="286" on="0"/>
        <pt x="940" y="321" on="0"/>
        <pt x="972" y="386" on="0"/>
        <pt x="992" y="484" on="0"/>
        <pt x="992" y="555" on="1"/>
        <pt x="992" y="654" on="0"/>
        <pt x="951" y="769" on="0"/>
        <pt x="891" y="827" on="0"/>
        <pt x="824" y="843" on="0"/>
        <pt x="798" y="843" on="1"/>
        <pt x="760" y="843" on="0"/>
        <pt x="691" y="813" on="0"/>
        <pt x="639" y="744" on="0"/>
        <pt x="608" y="632" on="0"/>
        <pt x="608" y="550" on="1"/>
        <pt x="608" y="472" on="0"/>
        <pt x="638" y="364" on="0"/>
        <pt x="689" y="297" on="0"/>
        <pt x="756" y="266" on="0"/>
      </contour>
    </TTGlyph>
    <TTGlyph name="paragraph" xMin="83" yMin="0" xMax="1300" yMax="1426">
      <contour>
        <pt x="1300" y="0" on="1"/>
        <pt x="1000" y="0" on="1"/>
        <pt x="1000" y="1100" on="1"/>
        <pt x="800" y="1100" on="1"/>
        <pt x="800" y="0" on="1"/>
        <pt x="500" y="0" on="1"/>
        <pt x="500" y="700" on="1"/>
        <pt x="377" y="700" on="0"/>
        <pt x="215" y="763" on="0"/>
        <pt x="121" y="865" on="0"/>
        <pt x="83" y="992" on="0"/>
        <pt x="83" y="1055" on="1"/>
        <pt x="83" y="1131" on="0"/>
        <pt x="128" y="1267" on="0"/>
        <pt x="244" y="1367" on="0"/>
        <pt x="446" y="1426" on="0"/>
        <pt x="604" y="1426" on="1"/>
        <pt x="1300" y="1426" on="1"/>
      </contour>
    </TTGlyph>
    <TTGlyph name="parenleft" xMin="96" yMin="-32" xMax="736" yMax="1472">
      <contour>
        <pt x="96" y="711" on="1"/>
        <pt x="96" y="812" on="0"/>
        <pt x="134" y="1002" on="0"/>
        <pt x="208" y="1172" on="0"/>
        <pt x="318" y="1313" on="0"/>
        <pt x="460" y="1415" on="0"/>
        <pt x="634" y="1472" on="0"/>
        <pt x="736" y="1472" on="1"/>
        <pt x="736" y="1216" on="1"/>
        <pt x="691" y="1216" on="0"/>
        <pt x="609" y="1129" on="0"/>
        <pt x="548" y="986" on="0"/>
        <pt x="512" y="805" on="0"/>
        <pt x="512" y="711" on="1"/>
        <pt x="512" y="619" on="0"/>
        <pt x="548" y="443" on="0"/>
        <pt x="609" y="307" on="0"/>
        <pt x="691" y="224" on="0"/>
        <pt x="736" y="224" on="1"/>
        <pt x="736" y="-32" on="1"/>
        <pt x="634" y="-32" on="0"/>
        <pt x="460" y="23" on="0"/>
        <pt x="318" y="122" on="0"/>
        <pt x="208" y="259" on="0"/>
        <pt x="134" y="424" on="0"/>
        <pt x="96" y="612" on="0"/>
      </contour>
    </TTGlyph>
    <TTGlyph name="parenright" xMin="160" yMin="-32" xMax="800" yMax="1472">
      <contour>
        <pt x="800" y="711" on="1"/>
        <pt x="800" y="612" on="0"/>
        <pt x="762" y="424" on="0"/>
        <pt x="688" y="259" on="0"/>
        <pt x="578" y="122" on="0"/>
        <pt x="436" y="23" on="0"/>
        <pt x="262" y="-32" on="0"/>
        <pt x="160" y="-32" on="1"/>
        <pt x="160" y="224" on="1"/>
        <pt x="205" y="224" on="0"/>
        <pt x="287" y="307" on="0"/>
        <pt x="348" y="443" on="0"/>
        <pt x="384" y="619" on="0"/>
        <pt x="384" y="711" on="1"/>
        <pt x="384" y="805" on="0"/>
        <pt x="348" y="986" on="0"/>
        <pt x="287" y="1129" on="0"/>
        <pt x="205" y="1216" on="0"/>
        <pt x="160" y="1216" on="1"/>
        <pt x="160" y="1472" on="1"/>
        <pt x="262" y="1472" on="0"/>
        <pt x="436" y="1415" on="0"/>
        <pt x="578" y="1313" on="0"/>
        <pt x="688" y="1172" on="0"/>
        <pt x="762" y="1002" on="0"/>
        <pt x="800" y="811" on="0"/>
      </contour>
    </TTGlyph>
    <TTGlyph name="partialdiff" xMin="151" yMin="-32" xMax="1353" yMax="1441">
      <contour>
        <pt x="317" y="1056" on="1"/>
        <pt x="317" y="1056" on="0"/>
        <pt x="304" y="1376" on="1"/>
        <pt x="390" y="1408" on="0"/>
        <pt x="617" y="1441" on="0"/>
        <pt x="740" y="1441" on="1"/>
        <pt x="880" y="1441" on="0"/>
        <pt x="1082" y="1387" on="0"/>
        <pt x="1222" y="1288" on="0"/>
        <pt x="1307" y="1149" on="0"/>
        <pt x="1349" y="981" on="0"/>
        <pt x="1357" y="789" on="0"/>
        <pt x="1351" y="685" on="1"/>
        <pt x="1345" y="588" on="0"/>
        <pt x="1313" y="406" on="0"/>
        <pt x="1251" y="247" on="0"/>
        <pt x="1151" y="115" on="0"/>
        <pt x="1001" y="20" on="0"/>
        <pt x="797" y="-32" on="0"/>
        <pt x="661" y="-32" on="1"/>
        <pt x="553" y="-32" on="0"/>
        <pt x="391" y="5" on="0"/>
        <pt x="276" y="70" on="0"/>
        <pt x="202" y="158" on="0"/>
        <pt x="161" y="260" on="0"/>
        <pt x="148" y="372" on="0"/>
        <pt x="152" y="428" on="1"/>
        <pt x="158" y="534" on="0"/>
        <pt x="241" y="697" on="0"/>
        <pt x="370" y="807" on="0"/>
        <pt x="536" y="864" on="0"/>
        <pt x="626" y="864" on="1"/>
        <pt x="663" y="864" on="0"/>
        <pt x="743" y="857" on="0"/>
        <pt x="826" y="841" on="0"/>
        <pt x="906" y="817" on="0"/>
        <pt x="942" y="800" on="1"/>
        <pt x="948" y="896" on="0"/>
        <pt x="913" y="1020" on="0"/>
        <pt x="847" y="1092" on="0"/>
        <pt x="756" y="1120" on="0"/>
        <pt x="705" y="1120" on="1"/>
        <pt x="629" y="1120" on="0"/>
        <pt x="503" y="1104" on="0"/>
        <pt x="405" y="1083" on="0"/>
        <pt x="335" y="1062" on="0"/>
      </contour>
      <contour>
        <pt x="930" y="608" on="1"/>
        <pt x="707" y="608" on="1"/>
        <pt x="656" y="608" on="0"/>
        <pt x="582" y="578" on="0"/>
        <pt x="532" y="528" on="0"/>
        <pt x="506" y="464" on="0"/>
        <pt x="504" y="431" on="1"/>
        <pt x="502" y="398" on="0"/>
        <pt x="521" y="335" on="0"/>
        <pt x="561" y="286" on="0"/>
        <pt x="624" y="256" on="0"/>
        <pt x="666" y="256" on="1"/>
        <pt x="729" y="256" on="0"/>
        <pt x="823" y="276" on="0"/>
        <pt x="886" y="348" on="0"/>
        <pt x="923" y="488" on="0"/>
      </contour>
    </TTGlyph>
    <TTGlyph name="percent" xMin="100" yMin="-28" xMax="2800" yMax="1455">
      <contour>
        <pt x="607" y="299" on="1"/>
        <pt x="512" y="299" on="0"/>
        <pt x="364" y="345" on="0"/>
        <pt x="251" y="426" on="0"/>
        <pt x="172" y="537" on="0"/>
        <pt x="123" y="667" on="0"/>
        <pt x="100" y="810" on="0"/>
        <pt x="100" y="883" on="1"/>
        <pt x="100" y="954" on="0"/>
        <pt x="122" y="1095" on="0"/>
        <pt x="172" y="1222" on="0"/>
        <pt x="250" y="1331" on="0"/>
        <pt x="363" y="1410" on="0"/>
        <pt x="512" y="1455" on="0"/>
        <pt x="607" y="1455" on="1"/>
        <pt x="749" y="1455" on="0"/>
        <pt x="943" y="1357" on="0"/>
        <pt x="1062" y="1196" on="0"/>
        <pt x="1114" y="990" on="0"/>
        <pt x="1114" y="883" on="1"/>
        <pt x="1114" y="810" on="0"/>
        <pt x="1091" y="667" on="0"/>
        <pt x="1042" y="537" on="0"/>
        <pt x="963" y="426" on="0"/>
        <pt x="850" y="345" on="0"/>
        <pt x="701" y="299" on="0"/>
      </contour>
      <contour>
        <pt x="607" y="536" on="1"/>
        <pt x="648" y="536" on="0"/>
        <pt x="710" y="595" on="0"/>
        <pt x="751" y="692" on="0"/>
        <pt x="772" y="816" on="0"/>
        <pt x="772" y="881" on="1"/>
        <pt x="772" y="945" on="0"/>
        <pt x="751" y="1069" on="0"/>
        <pt x="710" y="1166" on="0"/>
        <pt x="648" y="1225" on="0"/>
        <pt x="607" y="1225" on="1"/>
        <pt x="566" y="1225" on="0"/>
        <pt x="504" y="1166" on="0"/>
        <pt x="462" y="1069" on="0"/>
        <pt x="441" y="945" on="0"/>
        <pt x="441" y="881" on="1"/>
        <pt x="441" y="816" on="0"/>
        <pt x="462" y="692" on="0"/>
        <pt x="503" y="595" on="0"/>
        <pt x="565" y="536" on="0"/>
      </contour>
      <contour>
        <pt x="2293" y="-28" on="1"/>
        <pt x="2198" y="-28" on="0"/>
        <pt x="2050" y="18" on="0"/>
        <pt x="1937" y="99" on="0"/>
        <pt x="1858" y="210" on="0"/>
        <pt x="1809" y="340" on="0"/>
        <pt x="1786" y="483" on="0"/>
        <pt x="1786" y="556" on="1"/>
        <pt x="1786" y="628" on="0"/>
        <pt x="1808" y="768" on="0"/>
        <pt x="1858" y="895" on="0"/>
        <pt x="1936" y="1004" on="0"/>
        <pt x="2049" y="1083" on="0"/>
        <pt x="2198" y="1128" on="0"/>
        <pt x="2293" y="1128" on="1"/>
        <pt x="2435" y="1128" on="0"/>
        <pt x="2629" y="1030" on="0"/>
        <pt x="2748" y="869" on="0"/>
        <pt x="2800" y="663" on="0"/>
        <pt x="2800" y="556" on="1"/>
        <pt x="2800" y="483" on="0"/>
        <pt x="2777" y="340" on="0"/>
        <pt x="2728" y="210" on="0"/>
        <pt x="2649" y="99" on="0"/>
        <pt x="2536" y="18" on="0"/>
        <pt x="2387" y="-28" on="0"/>
      </contour>
      <contour>
        <pt x="2293" y="209" on="1"/>
        <pt x="2334" y="209" on="0"/>
        <pt x="2396" y="268" on="0"/>
        <pt x="2437" y="365" on="0"/>
        <pt x="2458" y="489" on="0"/>
        <pt x="2458" y="554" on="1"/>
        <pt x="2458" y="618" on="0"/>
        <pt x="2437" y="742" on="0"/>
        <pt x="2396" y="839" on="0"/>
        <pt x="2334" y="898" on="0"/>
        <pt x="2293" y="898" on="1"/>
        <pt x="2252" y="898" on="0"/>
        <pt x="2190" y="839" on="0"/>
        <pt x="2148" y="742" on="0"/>
        <pt x="2127" y="618" on="0"/>
        <pt x="2127" y="554" on="1"/>
        <pt x="2127" y="489" on="0"/>
        <pt x="2148" y="365" on="0"/>
        <pt x="2189" y="268" on="0"/>
        <pt x="2251" y="209" on="0"/>
      </contour>
      <contour>
        <pt x="1919" y="1426" on="1"/>
        <pt x="1395" y="0" on="1"/>
        <pt x="978" y="0" on="1"/>
        <pt x="1477" y="1426" on="1"/>
      </contour>
    </TTGlyph>
    <TTGlyph name="period" xMin="128" yMin="-31" xMax="672" yMax="417">
      <contour>
        <pt x="393" y="-31" on="1"/>
        <pt x="326" y="-31" on="0"/>
        <pt x="227" y="7" on="0"/>
        <pt x="161" y="70" on="0"/>
        <pt x="128" y="151" on="0"/>
        <pt x="128" y="193" on="1"/>
        <pt x="128" y="233" on="0"/>
        <pt x="162" y="313" on="0"/>
        <pt x="230" y="377" on="0"/>
        <pt x="329" y="417" on="0"/>
        <pt x="394" y="417" on="1"/>
        <pt x="461" y="417" on="0"/>
        <pt x="565" y="377" on="0"/>
        <pt x="636" y="313" on="0"/>
        <pt x="672" y="234" on="0"/>
        <pt x="672" y="194" on="1"/>
        <pt x="672" y="151" on="0"/>
        <pt x="637" y="70" on="0"/>
        <pt x="568" y="7" on="0"/>
        <pt x="463" y="-31" on="0"/>
      </contour>
    </TTGlyph>
    <TTGlyph name="periodcentered" xMin="132" yMin="502" xMax="684" yMax="963">
      <contour>
        <pt x="407" y="502" on="1"/>
        <pt x="338" y="502" on="0"/>
        <pt x="234" y="540" on="0"/>
        <pt x="166" y="603" on="0"/>
        <pt x="132" y="684" on="0"/>
        <pt x="132" y="726" on="1"/>
        <pt x="132" y="770" on="0"/>
        <pt x="168" y="855" on="0"/>
        <pt x="237" y="922" on="0"/>
        <pt x="340" y="963" on="0"/>
        <pt x="408" y="963" on="1"/>
        <pt x="475" y="963" on="0"/>
        <pt x="579" y="922" on="0"/>
        <pt x="648" y="855" on="0"/>
        <pt x="684" y="770" on="0"/>
        <pt x="684" y="727" on="1"/>
        <pt x="684" y="684" on="0"/>
        <pt x="650" y="603" on="0"/>
        <pt x="581" y="540" on="0"/>
        <pt x="477" y="502" on="0"/>
      </contour>
    </TTGlyph>
    <TTGlyph name="perthousand" xMin="100" yMin="-28" xMax="3915" yMax="1455">
      <contour>
        <pt x="607" y="299" on="1"/>
        <pt x="512" y="299" on="0"/>
        <pt x="364" y="345" on="0"/>
        <pt x="251" y="426" on="0"/>
        <pt x="172" y="537" on="0"/>
        <pt x="123" y="667" on="0"/>
        <pt x="100" y="810" on="0"/>
        <pt x="100" y="883" on="1"/>
        <pt x="100" y="954" on="0"/>
        <pt x="122" y="1095" on="0"/>
        <pt x="172" y="1222" on="0"/>
        <pt x="250" y="1331" on="0"/>
        <pt x="363" y="1410" on="0"/>
        <pt x="512" y="1455" on="0"/>
        <pt x="607" y="1455" on="1"/>
        <pt x="749" y="1455" on="0"/>
        <pt x="943" y="1357" on="0"/>
        <pt x="1062" y="1196" on="0"/>
        <pt x="1114" y="990" on="0"/>
        <pt x="1114" y="883" on="1"/>
        <pt x="1114" y="810" on="0"/>
        <pt x="1091" y="667" on="0"/>
        <pt x="1042" y="537" on="0"/>
        <pt x="963" y="426" on="0"/>
        <pt x="850" y="345" on="0"/>
        <pt x="701" y="299" on="0"/>
      </contour>
      <contour>
        <pt x="607" y="536" on="1"/>
        <pt x="648" y="536" on="0"/>
        <pt x="710" y="595" on="0"/>
        <pt x="751" y="692" on="0"/>
        <pt x="772" y="816" on="0"/>
        <pt x="772" y="881" on="1"/>
        <pt x="772" y="945" on="0"/>
        <pt x="751" y="1069" on="0"/>
        <pt x="710" y="1166" on="0"/>
        <pt x="648" y="1225" on="0"/>
        <pt x="607" y="1225" on="1"/>
        <pt x="566" y="1225" on="0"/>
        <pt x="504" y="1166" on="0"/>
        <pt x="462" y="1069" on="0"/>
        <pt x="441" y="945" on="0"/>
        <pt x="441" y="881" on="1"/>
        <pt x="441" y="816" on="0"/>
        <pt x="462" y="692" on="0"/>
        <pt x="503" y="595" on="0"/>
        <pt x="565" y="536" on="0"/>
      </contour>
      <contour>
        <pt x="2293" y="-28" on="1"/>
        <pt x="2198" y="-28" on="0"/>
        <pt x="2050" y="18" on="0"/>
        <pt x="1937" y="99" on="0"/>
        <pt x="1858" y="210" on="0"/>
        <pt x="1809" y="340" on="0"/>
        <pt x="1786" y="483" on="0"/>
        <pt x="1786" y="556" on="1"/>
        <pt x="1786" y="628" on="0"/>
        <pt x="1808" y="768" on="0"/>
        <pt x="1858" y="895" on="0"/>
        <pt x="1936" y="1004" on="0"/>
        <pt x="2049" y="1083" on="0"/>
        <pt x="2198" y="1128" on="0"/>
        <pt x="2293" y="1128" on="1"/>
        <pt x="2435" y="1128" on="0"/>
        <pt x="2629" y="1030" on="0"/>
        <pt x="2748" y="869" on="0"/>
        <pt x="2800" y="663" on="0"/>
        <pt x="2800" y="556" on="1"/>
        <pt x="2800" y="483" on="0"/>
        <pt x="2777" y="340" on="0"/>
        <pt x="2728" y="210" on="0"/>
        <pt x="2649" y="99" on="0"/>
        <pt x="2536" y="18" on="0"/>
        <pt x="2387" y="-28" on="0"/>
      </contour>
      <contour>
        <pt x="2293" y="209" on="1"/>
        <pt x="2334" y="209" on="0"/>
        <pt x="2396" y="268" on="0"/>
        <pt x="2437" y="365" on="0"/>
        <pt x="2458" y="489" on="0"/>
        <pt x="2458" y="554" on="1"/>
        <pt x="2458" y="618" on="0"/>
        <pt x="2437" y="742" on="0"/>
        <pt x="2396" y="839" on="0"/>
        <pt x="2334" y="898" on="0"/>
        <pt x="2293" y="898" on="1"/>
        <pt x="2252" y="898" on="0"/>
        <pt x="2190" y="839" on="0"/>
        <pt x="2148" y="742" on="0"/>
        <pt x="2127" y="618" on="0"/>
        <pt x="2127" y="554" on="1"/>
        <pt x="2127" y="489" on="0"/>
        <pt x="2148" y="365" on="0"/>
        <pt x="2189" y="268" on="0"/>
        <pt x="2251" y="209" on="0"/>
      </contour>
      <contour>
        <pt x="1919" y="1426" on="1"/>
        <pt x="1395" y="0" on="1"/>
        <pt x="978" y="0" on="1"/>
        <pt x="1477" y="1426" on="1"/>
      </contour>
      <contour>
        <pt x="3408" y="-28" on="1"/>
        <pt x="3313" y="-28" on="0"/>
        <pt x="3165" y="18" on="0"/>
        <pt x="3052" y="99" on="0"/>
        <pt x="2973" y="210" on="0"/>
        <pt x="2924" y="340" on="0"/>
        <pt x="2901" y="483" on="0"/>
        <pt x="2901" y="556" on="1"/>
        <pt x="2901" y="628" on="0"/>
        <pt x="2923" y="768" on="0"/>
        <pt x="2973" y="895" on="0"/>
        <pt x="3051" y="1004" on="0"/>
        <pt x="3164" y="1083" on="0"/>
        <pt x="3313" y="1128" on="0"/>
        <pt x="3408" y="1128" on="1"/>
        <pt x="3550" y="1128" on="0"/>
        <pt x="3744" y="1030" on="0"/>
        <pt x="3863" y="869" on="0"/>
        <pt x="3915" y="663" on="0"/>
        <pt x="3915" y="556" on="1"/>
        <pt x="3915" y="483" on="0"/>
        <pt x="3892" y="340" on="0"/>
        <pt x="3843" y="210" on="0"/>
        <pt x="3764" y="99" on="0"/>
        <pt x="3651" y="18" on="0"/>
        <pt x="3502" y="-28" on="0"/>
      </contour>
      <contour>
        <pt x="3408" y="209" on="1"/>
        <pt x="3449" y="209" on="0"/>
        <pt x="3511" y="268" on="0"/>
        <pt x="3552" y="365" on="0"/>
        <pt x="3573" y="489" on="0"/>
        <pt x="3573" y="554" on="1"/>
        <pt x="3573" y="618" on="0"/>
        <pt x="3552" y="742" on="0"/>
        <pt x="3511" y="839" on="0"/>
        <pt x="3449" y="898" on="0"/>
        <pt x="3408" y="898" on="1"/>
        <pt x="3367" y="898" on="0"/>
        <pt x="3305" y="839" on="0"/>
        <pt x="3263" y="742" on="0"/>
        <pt x="3242" y="618" on="0"/>
        <pt x="3242" y="554" on="1"/>
        <pt x="3242" y="489" on="0"/>
        <pt x="3263" y="365" on="0"/>
        <pt x="3304" y="268" on="0"/>
        <pt x="3366" y="209" on="0"/>
      </contour>
    </TTGlyph>
    <TTGlyph name="pi" xMin="157" yMin="0" xMax="1375" yMax="1185">
      <contour>
        <pt x="158" y="1184" on="1"/>
        <pt x="1375" y="1184" on="1"/>
        <pt x="1375" y="0" on="1"/>
        <pt x="948" y="0" on="1"/>
        <pt x="948" y="896" on="1"/>
        <pt x="544" y="896" on="1"/>
        <pt x="544" y="0" on="1"/>
        <pt x="160" y="0" on="1"/>
      </contour>
    </TTGlyph>
    <TTGlyph name="plus" xMin="45" yMin="288" xMax="813" yMax="1088">
      <contour>
        <pt x="269" y="544" on="1"/>
        <pt x="45" y="544" on="1"/>
        <pt x="45" y="832" on="1"/>
        <pt x="269" y="832" on="1"/>
        <pt x="269" y="1088" on="1"/>
        <pt x="589" y="1088" on="1"/>
        <pt x="589" y="832" on="1"/>
        <pt x="813" y="832" on="1"/>
        <pt x="813" y="544" on="1"/>
        <pt x="589" y="544" on="1"/>
        <pt x="589" y="288" on="1"/>
        <pt x="269" y="288" on="1"/>
      </contour>
    </TTGlyph>
    <TTGlyph name="plusminus" xMin="100" yMin="0" xMax="800" yMax="1108">
      <contour>
        <pt x="300" y="604" on="1"/>
        <pt x="100" y="604" on="1"/>
        <pt x="100" y="860" on="1"/>
        <pt x="300" y="860" on="1"/>
        <pt x="300" y="1108" on="1"/>
        <pt x="600" y="1108" on="1"/>
        <pt x="600" y="860" on="1"/>
        <pt x="800" y="860" on="1"/>
        <pt x="800" y="604" on="1"/>
        <pt x="600" y="604" on="1"/>
        <pt x="600" y="360" on="1"/>
        <pt x="300" y="360" on="1"/>
      </contour>
      <contour>
        <pt x="800" y="249" on="1"/>
        <pt x="800" y="0" on="1"/>
        <pt x="100" y="0" on="1"/>
        <pt x="100" y="249" on="1"/>
      </contour>
    </TTGlyph>
    <TTGlyph name="product" xMin="160" yMin="0" xMax="1289" yMax="1408">
      <contour>
        <pt x="160" y="1408" on="1"/>
        <pt x="1289" y="1408" on="1"/>
        <pt x="1289" y="0" on="1"/>
        <pt x="857" y="0" on="1"/>
        <pt x="857" y="1120" on="1"/>
        <pt x="608" y="1120" on="1"/>
        <pt x="608" y="0" on="1"/>
        <pt x="160" y="0" on="1"/>
      </contour>
    </TTGlyph>
</ttFont>
